<?xml version="1.0" encoding="utf-8"?>
<!-- Generator: Adobe Illustrator 15.0.2, SVG Export Plug-In . SVG Version: 6.00 Build 0)  -->
<!DOCTYPE svg PUBLIC "-//W3C//DTD SVG 1.1//EN" "http://www.w3.org/Graphics/SVG/1.1/DTD/svg11.dtd">
<svg version="1.1" id="Layer_1" xmlns="http://www.w3.org/2000/svg" xmlns:xlink="http://www.w3.org/1999/xlink" x="0px" y="0px"
	 width="900px" height="900px" viewBox="-176.298 -345 900 900" enable-background="new -176.298 -345 900 900"
	 xml:space="preserve">
<g>
	<g>
		<circle fill="#9EAF9F" cx="273.702" cy="105" r="450"/>
	</g>
	<g>
		<path fill="#FFFFFF" d="M3.322,73.1c-0.815-0.339-1.288-0.472-2.303-0.472c-3.042,0-7.707,1.553-13.459,1.553
			c-15.756,0-24.285-9.198-24.285-21.306c0-11.496,7.707-22.932,24.822-22.932c7.37,0,12.579,2.232,14.534,2.232
			c0.549,0,0.886-0.133,1.223-0.479h1.689l0.336,11.165H3.853C1.349,35.896-4.126,32.11-11.638,32.11
			c-10.152,0-16.914,7.571-16.914,19.005c0,11.841,7.778,20.635,18.131,20.635c6.626,0,12.508-3.52,16.294-9.942h2.032L3.322,73.1z"
			/>
		<path fill="#FFFFFF" d="M45.359,65.39c0,3.918,0.608,5.75,6.018,5.882V73.1H31.829v-1.828c5.48-0.337,6.018-1.825,6.018-6.361
			V39.682c0-5.076-0.744-6.762-6.018-6.83v-1.825h19.548v1.825c-5.073,0.207-6.018,1.285-6.018,7.173v10.081h24.415V39.959
			c0-5.48-0.674-6.901-6.225-7.102v-1.825H83.44v1.825c-5.345,0.269-6.16,1.423-6.16,6.629v25.496c0,4.801,0.744,5.953,6.16,6.295
			v1.828H63.549v-1.828c5.28-0.204,6.225-1.624,6.225-6.429V53.147H45.359V65.39z"/>
		<path fill="#FFFFFF" d="M106.006,71.272c4.53-0.065,5.41-0.809,7.299-6.089l12.237-33.551l-0.538-1.689h7.577l13.188,35.24
			c1.96,5.28,2.646,6.089,6.904,6.089V73.1h-20.086v-1.828c5.339,0,6.827-0.543,6.827-2.504c0-0.676-0.266-1.825-0.945-3.584
			l-3.242-8.389h-15.491l-3.319,8.994c-0.473,1.282-0.673,2.165-0.673,2.841c0,1.961,1.358,2.844,6.762,2.643V73.1h-16.501V71.272z
			 M133.935,53.413l-6.491-17.112l-6.425,17.112H133.935z"/>
		<path fill="#FFFFFF" d="M188.888,64.572c0,5.817,0.738,6.901,6.904,6.694v1.828h-20.7v-1.828c5.675,0.201,6.29-1.353,6.29-5.817
			V38.326c0-4.397-0.744-5.48-6.29-5.48v-1.825c1.553,0,5.008-0.266,9.674-0.472c3.584-0.133,6.904-0.133,8.25-0.133
			c13.666,0,18.332,5.95,18.332,12.107c0,5.008-2.847,8.661-8.522,11.026c1.081,0.744,3.993,3.585,5.073,4.668l4.394,4.397
			c6.024,6.015,10.625,8.72,16.241,9.332v1.893c-13.323,0.337-16.637-2.025-22.726-8.118l-3.59-3.584
			c-3.443-3.449-4.459-4.397-7.306-6.497c-1.955,0.133-4.258,0.207-6.018,0v8.933H188.888z M188.888,53.752
			c0.473,0.068,1.754,0.207,2.162,0.207c8.995-0.405,12.107-3.859,12.107-10.757c0-6.83-3.65-10.888-11.026-10.888
			c-1.016,0-2.634,0.133-3.242,0.266V53.752L188.888,53.752z"/>
		<path fill="#FFFFFF" d="M245.195,29.878h1.825c0.272,0.473,0.479,0.809,1.093,0.948c0.608,0.133,1.553,0.201,3.313,0.201h28.608
			c3.449,0,3.986-0.133,4.4-1.149h1.825l1.217,11.635h-1.961c-0.945-7.034-2.297-7.438-6.354-7.438h-9.68v31.859
			c0,4.601,0.744,5.345,7.843,5.345v1.828h-23.198v-1.828c6.762,0,7.854-0.883,7.854-5.345V34.074h-9.68
			c-3.992,0-5.345,0.404-6.36,7.438h-1.961L245.195,29.878z"/>
		<path fill="#FFFFFF" d="M309.899,73.1v-1.828c5.469,0,6.827-0.883,6.827-4.668V37.449c0-4.465-2.232-4.598-6.827-4.598v-1.825
			h34.561l0.608,10.146h-1.831l-0.337-1.42c-1.358-5.545-2.439-5.678-6.768-5.678h-11.9v15.76h10.477
			c3.921,0,4.666-0.473,5.073-5.141h1.831v13.601h-1.831c-0.466-4.802-1.353-5.413-5.073-5.413h-10.477v12.313
			c0,4.19,0.537,4.869,3.98,4.869h7.512c6.827,0,8.186-0.945,10.01-7.571h1.825l-1.016,10.619h-36.646V73.1z"/>
		<path fill="#FFFFFF" d="M383.644,64.572c0,5.817,0.738,6.901,6.904,6.694v1.828h-20.7v-1.828c5.676,0.201,6.29-1.353,6.29-5.817
			V38.326c0-4.397-0.744-5.48-6.29-5.48v-1.825c1.554,0,5.009-0.266,9.674-0.472c3.585-0.133,6.898-0.133,8.251-0.133
			c13.666,0,18.331,5.95,18.331,12.107c0,5.008-2.847,8.661-8.521,11.026c1.08,0.744,3.992,3.585,5.073,4.668l4.394,4.397
			c6.023,6.015,10.618,8.72,16.241,9.332v1.893c-13.324,0.337-16.637-2.025-22.726-8.118l-3.591-3.584
			c-3.443-3.449-4.459-4.397-7.306-6.497c-1.955,0.133-4.264,0.207-6.019,0v8.933H383.644z M383.644,53.752
			c0.473,0.068,1.754,0.207,2.162,0.207c8.994-0.405,12.106-3.859,12.106-10.757c0-6.83-3.649-10.888-11.026-10.888
			c-1.016,0-2.634,0.133-3.242,0.266V53.752z"/>
		<path fill="#FFFFFF" d="M443.14,73.1v-1.828c5.469,0,6.826-0.883,6.826-4.668V37.449c0-4.465-2.231-4.598-6.826-4.598v-1.825
			h34.561l0.608,10.146h-1.825l-0.337-1.42c-1.358-5.545-2.438-5.678-6.768-5.678h-11.906v15.76h10.482
			c3.922,0,4.666-0.473,5.073-5.141h1.831v13.601h-1.831c-0.467-4.802-1.353-5.413-5.073-5.413h-10.482v12.313
			c0,4.19,0.543,4.869,3.986,4.869h7.513c6.827,0,8.186-0.945,10.01-7.571h1.825l-1.016,10.619H443.14V73.1z"/>
		<path fill="#FFFFFF" d="M509.722,38.805c0-4.943-1.281-6.024-6.426-5.953v-1.825c1.967,0,7.784-0.266,10.631-0.405
			c3.649-0.133,7.099-0.133,9.668-0.133c10.217,0,17.587,1.825,21.715,5.95c4.193,4.19,5.817,9.331,5.817,14.404
			c0,9.942-6.963,22.256-26.788,22.256h-21.043v-1.828c5.752,0,6.426-0.948,6.426-5.478V38.805z M517.234,66.332
			c0,4.264,0.608,4.875,5.002,4.875c8.121,0,12.314-1.76,15.427-4.875c4.122-4.125,5.273-9.81,5.273-14.537
			c0-4.875-1.081-10.347-5.209-14.478c-3.384-3.387-7.642-4.94-15.556-4.94c-1.146,0-3.242,0-4.932,0.133v33.823H517.234z"/>
		<path fill="#FFFFFF" d="M-26.503,161.524h2.032c1.683,6.219,5.882,9.739,11.699,9.739c4.938,0,8.392-2.912,8.392-6.963
			c0-9.474-21.302-13.2-21.302-24.964c0-5.823,5.138-9.875,12.378-9.875c2.232,0,3.851,0.266,5.203,0.537
			c1.358,0.272,2.433,0.544,3.585,0.544c0.88,0,1.358-0.201,1.89-0.815h1.689l1.488,10.483h-2.025
			c-2.032-5.345-6.225-8.594-11.026-8.594c-4.329,0-6.626,2.575-6.626,5.552c0,9.06,21.373,11.765,21.373,24.816
			c0,6.969-5.894,11.705-14.546,11.705c-5.073,0-7.17-1.211-9.06-1.211c-0.815,0-1.353,0.195-1.831,0.744h-1.624L-26.503,161.524z"
			/>
		<path fill="#FFFFFF" d="M27.163,130.543h19.206v1.83c-5.002,0-5.953,1.081-5.953,5.812v18.202c0,8.988,6.024,13.123,14.481,13.123
			c7.512,0,14.54-3.249,14.54-13.253v-18.061c0-5.273-1.016-5.823-6.49-5.823v-1.83h16.371v1.83c-5.144,0-6.16,1.087-6.16,5.823
			v18.805c0,10.618-8.186,16.701-20.499,16.701c-12.851,0-19.755-6.153-19.755-17.186v-19.005c0-4.122-1.081-5.139-5.741-5.139
			V130.543L27.163,130.543z"/>
		<path fill="#FFFFFF" d="M115.597,164.088c0,5.812,0.744,6.903,6.904,6.697v1.818h-20.7v-1.818c5.676,0.2,6.29-1.358,6.29-5.823
			v-27.119c0-4.4-0.744-5.481-6.29-5.481v-1.83c1.553,0,5.008-0.267,9.674-0.473c3.591-0.124,6.904-0.124,8.25-0.124
			c13.666,0,18.332,5.947,18.332,12.106c0,5.003-2.84,8.664-8.522,11.021c1.081,0.738,3.992,3.591,5.073,4.666l4.399,4.405
			c6.019,6.007,10.619,8.711,16.235,9.331v1.884c-13.323,0.343-16.637-2.025-22.726-8.114l-3.585-3.585
			c-3.449-3.449-4.465-4.399-7.305-6.49c-1.961,0.13-4.264,0.201-6.024,0v8.93H115.597z M115.597,153.269
			c0.478,0.064,1.76,0.2,2.161,0.2c8.995-0.407,12.107-3.862,12.107-10.76c0-6.827-3.65-10.891-11.02-10.891
			c-1.016,0-2.64,0.136-3.248,0.271V153.269z"/>
		<path fill="#FFFFFF" d="M172.175,137.582c-1.89-4.665-2.64-5.209-6.963-5.209v-1.83h20.83v1.83
			c-5.545,0.071-6.496,1.488-6.496,2.9c0,0.88,0.348,2.232,1.092,4.063l10.206,25.088l9.951-23.942
			c1.216-2.9,1.553-4.193,1.553-5.209c0-2.227-1.76-2.9-6.089-2.9v-1.83h16.436v1.83c-4.802,0-5.682,2.505-7.843,7.708
			l-14.002,33.621h-4.128L172.175,137.582z"/>
		<path fill="#FFFFFF" d="M234.641,172.616v-1.825c5.475,0,6.827-0.88,6.827-4.672v-29.151c0-4.458-2.232-4.595-6.827-4.595v-1.83
			h34.561l0.614,10.146h-1.831l-0.337-1.417c-1.352-5.546-2.439-5.682-6.768-5.682h-11.9v15.757h10.483
			c3.916,0,4.66-0.473,5.073-5.138h1.825v13.595h-1.825c-0.472-4.807-1.358-5.415-5.073-5.415H248.98v12.308
			c0,4.188,0.537,4.872,3.986,4.872h7.512c6.827,0,8.18-0.945,10.004-7.577h1.831l-1.016,10.625H234.641z"/>
		<path fill="#FFFFFF" d="M302.51,137.854c-3.384-4.879-4.252-5.28-8.451-5.481v-1.83h20.363v1.83c-3.656,0-4.736,0.744-4.736,1.961
			c0,0.88,0.543,2.032,2.303,4.536l8.859,12.639l7.713-12.237c1.553-2.504,2.227-3.851,2.227-4.802c0-1.488-1.282-2.097-4.335-2.097
			v-1.83h15.904v1.83c-4.938,0.544-6.16,1.412-10.483,8.387l-9.13,14.741v9.408c0,5.002,0.809,5.888,6.419,5.888v1.819h-20.428
			v-1.819c5.144,0,6.491-0.479,6.491-6.095v-8.587L302.51,137.854z"/>
		<path fill="#FFFFFF" d="M386.497,129.462c14.611,0,24.687,8.723,24.687,21.367c0,12.178-9.738,22.861-24.958,22.861
			c-14.139,0-24.421-8.858-24.421-20.966C361.804,139.188,372.152,129.462,386.497,129.462z M387.301,171.529
			c9.402,0,15.691-7.643,15.691-19.005c0-12.243-7.099-20.907-17.038-20.907c-9.738,0-15.97,7.441-15.97,19.283
			C369.984,164.495,378.714,171.529,387.301,171.529z"/>
		<path fill="#FFFFFF" d="M450.309,164.088c0,5.812,0.738,6.903,6.898,6.697v1.818h-20.7v-1.818c5.682,0.2,6.29-1.358,6.29-5.823
			v-27.119c0-4.4-0.744-5.481-6.29-5.481v-1.83c1.554,0,5.008-0.267,9.68-0.473c3.585-0.124,6.898-0.124,8.244-0.124
			c13.673,0,18.332,5.947,18.332,12.106c0,5.003-2.841,8.664-8.521,11.021c1.086,0.738,3.992,3.591,5.072,4.666l4.4,4.405
			c6.023,6.007,10.618,8.711,16.241,9.331v1.884c-13.324,0.343-16.637-2.025-22.731-8.114l-3.585-3.585
			c-3.449-3.449-4.465-4.399-7.306-6.49c-1.961,0.13-4.264,0.201-6.019,0v8.93H450.309z M450.309,153.269
			c0.473,0.064,1.754,0.2,2.162,0.2c8.988-0.407,12.106-3.862,12.106-10.76c0-6.827-3.655-10.891-11.026-10.891
			c-1.016,0-2.64,0.136-3.242,0.271V153.269z"/>
		<path fill="#FFFFFF" d="M512.439,161.524h2.031c1.689,6.219,5.882,9.739,11.699,9.739c4.938,0,8.393-2.912,8.393-6.963
			c0-9.474-21.303-13.2-21.303-24.964c0-5.823,5.139-9.875,12.379-9.875c2.232,0,3.851,0.266,5.203,0.537
			c1.358,0.272,2.434,0.544,3.585,0.544c0.88,0,1.358-0.201,1.896-0.815h1.684l1.488,10.483h-2.026
			c-2.031-5.345-6.225-8.594-11.026-8.594c-4.328,0-6.626,2.575-6.626,5.552c0,9.06,21.373,11.765,21.373,24.816
			c0,6.969-5.894,11.705-14.546,11.705c-5.073,0-7.17-1.211-9.06-1.211c-0.815,0-1.353,0.195-1.831,0.744h-1.624L512.439,161.524z"
			/>
	</g>
</g>
</svg>
