<?xml version="1.0" encoding="utf-8"?>
<!-- Generator: Adobe Illustrator 15.0.2, SVG Export Plug-In . SVG Version: 6.00 Build 0)  -->
<!DOCTYPE svg PUBLIC "-//W3C//DTD SVG 1.1//EN" "http://www.w3.org/Graphics/SVG/1.1/DTD/svg11.dtd">
<svg version="1.1" id="Layer_1" xmlns="http://www.w3.org/2000/svg" xmlns:xlink="http://www.w3.org/1999/xlink" x="0px" y="0px"
	 width="891px" height="897px" viewBox="4.5 1.5 891 897" enable-background="new 4.5 1.5 891 897" xml:space="preserve">
<g>
	<g>
		<path fill="#93AF9F" d="M895.314,446.907c0,245.996-199.41,445.413-445.404,445.413C203.916,892.32,4.5,692.903,4.5,446.907
			C4.5,200.919,203.917,1.5,449.91,1.5C695.905,1.5,895.314,200.919,895.314,446.907z"/>
	</g>
	<g>
		<path fill="#FFFFFF" d="M182.284,415.332c-0.806-0.336-1.274-0.468-2.28-0.468c-3.01,0-7.628,1.538-13.322,1.538
			c-15.595,0-24.031-9.105-24.031-21.087c0-11.381,7.628-22.696,24.569-22.696c7.296,0,12.452,2.21,14.392,2.21
			c0.538,0,0.871-0.135,1.209-0.471h1.672l0.333,11.047h-2.006c-2.479-6.895-7.904-10.644-15.332-10.644
			c-10.043,0-16.742,7.497-16.742,18.812c0,11.716,7.705,20.421,17.945,20.421c6.56,0,12.387-3.48,16.135-9.842h2.01
			L182.284,415.332z"/>
		<path fill="#FFFFFF" d="M223.895,407.701c0,3.881,0.6,5.69,5.956,5.824v1.808h-19.349v-1.808c5.425-0.335,5.956-1.808,5.956-6.295
			v-24.972c0-5.021-0.736-6.693-5.956-6.761v-1.809h19.349v1.809c-5.021,0.202-5.956,1.271-5.956,7.097v9.975h24.165v-10.042
			c0-5.421-0.667-6.828-6.162-7.03v-1.809h19.688v1.809c-5.29,0.266-6.097,1.406-6.097,6.561v25.239
			c0,4.756,0.737,5.892,6.097,6.228v1.808h-19.688v-1.808c5.227-0.202,6.162-1.606,6.162-6.361v-11.58h-24.165V407.701z"/>
		<path fill="#FFFFFF" d="M283.917,413.525c4.483-0.066,5.354-0.803,7.225-6.025l12.117-33.208l-0.532-1.672h7.5l13.054,34.88
			c1.941,5.223,2.613,6.025,6.828,6.025v1.807h-19.881v-1.807c5.285,0,6.758-0.537,6.758-2.478c0-0.669-0.264-1.805-0.936-3.547
			l-3.215-8.301h-15.327l-3.284,8.903c-0.468,1.272-0.667,2.143-0.667,2.812c0,1.941,1.338,2.812,6.693,2.612v1.807h-16.332V413.525
			L283.917,413.525z M311.566,395.849l-6.429-16.938l-6.36,16.938H311.566z"/>
		<path fill="#FFFFFF" d="M365.953,406.896c0,5.758,0.737,6.828,6.834,6.628v1.808h-20.489v-1.808
			c5.624,0.199,6.226-1.341,6.226-5.757v-26.849c0-4.352-0.735-5.421-6.226-5.421v-1.809c1.538,0,4.957-0.266,9.575-0.468
			c3.548-0.135,6.828-0.135,8.167-0.135c13.526,0,18.144,5.892,18.144,11.983c0,4.954-2.812,8.569-8.435,10.913
			c1.07,0.736,3.953,3.548,5.021,4.622l4.349,4.352c5.963,5.957,10.511,8.634,16.07,9.239v1.874
			c-13.188,0.333-16.467-2.008-22.495-8.035l-3.547-3.548c-3.415-3.415-4.419-4.353-7.231-6.427c-1.941,0.134-4.221,0.202-5.963,0
			L365.953,406.896L365.953,406.896z M365.953,396.185c0.474,0.068,1.742,0.202,2.146,0.202c8.903-0.403,11.983-3.817,11.983-10.647
			c0-6.761-3.612-10.777-10.913-10.777c-1.007,0-2.607,0.131-3.216,0.267V396.185z"/>
		<path fill="#FFFFFF" d="M421.691,372.552h1.805c0.27,0.467,0.475,0.803,1.076,0.938c0.603,0.131,1.538,0.199,3.28,0.199h28.325
			c3.414,0,3.94-0.135,4.35-1.137h1.8l1.206,11.515h-1.941c-0.935-6.962-2.268-7.366-6.289-7.366h-9.573v31.535
			c0,4.554,0.736,5.29,7.76,5.29v1.807h-22.958v-1.807c6.693,0,7.769-0.87,7.769-5.29v-31.535h-9.575
			c-3.952,0-5.291,0.404-6.296,7.366h-1.939L421.691,372.552z"/>
		<path fill="#FFFFFF" d="M485.733,415.332v-1.808c5.413,0,6.757-0.87,6.757-4.62v-28.857c0-4.416-2.208-4.55-6.757-4.55v-1.809
			h34.208l0.597,10.042h-1.802l-0.338-1.406c-1.333-5.489-2.41-5.625-6.699-5.625h-11.773v15.599h10.368
			c3.882,0,4.619-0.468,5.029-5.089h1.8v13.46h-1.8c-0.468-4.756-1.346-5.358-5.029-5.358h-10.368v12.186
			c0,4.15,0.525,4.82,3.939,4.82h7.437c6.757,0,8.101-0.934,9.912-7.498h1.802l-1.006,10.512L485.733,415.332L485.733,415.332z"/>
		<path fill="#FFFFFF" d="M558.732,406.896c0,5.758,0.725,6.828,6.828,6.628v1.808h-20.494v-1.808
			c5.622,0.199,6.23-1.341,6.23-5.757v-26.849c0-4.352-0.736-5.421-6.23-5.421v-1.809c1.543,0,4.956-0.266,9.575-0.468
			c3.554-0.135,6.827-0.135,8.171-0.135c13.527,0,18.146,5.892,18.146,11.983c0,4.954-2.817,8.569-8.441,10.913
			c1.076,0.736,3.952,3.548,5.027,4.622l4.35,4.352c5.963,5.957,10.51,8.634,16.064,9.239v1.874
			c-13.188,0.333-16.462-2.008-22.495-8.035l-3.543-3.548c-3.413-3.415-4.417-4.353-7.235-6.427c-1.94,0.134-4.221,0.202-5.951,0
			v8.839H558.732z M558.732,396.185c0.468,0.068,1.73,0.202,2.14,0.202c8.896-0.403,11.983-3.817,11.983-10.647
			c0-6.761-3.613-10.777-10.921-10.777c-1.005,0-2.606,0.131-3.203,0.267L558.732,396.185L558.732,396.185z"/>
		<path fill="#FFFFFF" d="M617.608,415.332v-1.808c5.425,0,6.759-0.87,6.759-4.62v-28.857c0-4.416-2.211-4.55-6.759-4.55v-1.809
			h34.208l0.607,10.042h-1.811l-0.328-1.406c-1.346-5.489-2.42-5.625-6.699-5.625h-11.784v15.599h10.382
			c3.882,0,4.618-0.468,5.015-5.089h1.813v13.46h-1.813c-0.468-4.756-1.332-5.358-5.015-5.358h-10.382v12.186
			c0,4.15,0.538,4.82,3.952,4.82h7.436c6.758,0,8.091-0.934,9.903-7.498h1.811l-1.005,10.512L617.608,415.332L617.608,415.332z"/>
		<path fill="#FFFFFF" d="M683.512,381.39c0-4.89-1.264-5.96-6.359-5.893v-1.809c1.952,0,7.703-0.266,10.521-0.401
			c3.613-0.134,7.027-0.134,9.563-0.134c10.113,0,17.408,1.809,21.501,5.892c4.15,4.15,5.752,9.239,5.752,14.26
			c0,9.841-6.897,22.026-26.516,22.026h-20.821v-1.808c5.692,0,6.359-0.937,6.359-5.424L683.512,381.39L683.512,381.39z
			 M690.948,408.636c0,4.218,0.607,4.823,4.956,4.823c8.032,0,12.183-1.742,15.269-4.823c4.08-4.083,5.215-9.706,5.215-14.393
			c0-4.822-1.064-10.243-5.155-14.327c-3.344-3.35-7.563-4.891-15.398-4.891c-1.133,0-3.214,0-4.886,0.135V408.636L690.948,408.636z
			"/>
		<path fill="#FFFFFF" d="M152.76,502.852h2.011c1.671,6.162,5.821,9.646,11.579,9.646c4.887,0,8.301-2.883,8.301-6.898
			c0-9.375-21.085-13.06-21.085-24.703c0-5.765,5.086-9.774,12.253-9.774c2.208,0,3.811,0.264,5.15,0.532
			c1.344,0.269,2.413,0.532,3.548,0.532c0.87,0,1.344-0.199,1.876-0.802h1.671l1.474,10.376h-2.005
			c-2.011-5.285-6.162-8.5-10.914-8.5c-4.285,0-6.56,2.544-6.56,5.487c0,8.974,21.156,11.651,21.156,24.57
			c0,6.897-5.829,11.585-14.398,11.585c-5.022,0-7.098-1.204-8.967-1.204c-0.807,0-1.339,0.199-1.813,0.736h-1.601L152.76,502.852z"
			/>
		<path fill="#FFFFFF" d="M205.877,472.187h19.011v1.811c-4.951,0-5.893,1.07-5.893,5.759v18.011
			c0,8.903,5.962,12.989,14.329,12.989c7.434,0,14.397-3.215,14.397-13.124v-17.876c0-5.22-1.005-5.759-6.429-5.759v-1.811h16.204
			v1.811c-5.086,0-6.092,1.07-6.092,5.759v18.611c0,10.512-8.101,16.537-20.29,16.537c-12.72,0-19.547-6.091-19.547-17.011v-18.812
			c0-4.079-1.07-5.085-5.688-5.085L205.877,472.187L205.877,472.187z"/>
		<path fill="#FFFFFF" d="M293.409,505.401c0,5.752,0.737,6.826,6.833,6.629v1.801h-20.489v-1.801
			c5.624,0.197,6.227-1.345,6.227-5.764v-26.842c0-4.356-0.737-5.426-6.227-5.426v-1.812c1.539,0,4.957-0.265,9.576-0.469
			c3.547-0.129,6.828-0.129,8.166-0.129c13.527,0,18.145,5.894,18.145,11.983c0,4.95-2.812,8.569-8.436,10.907
			c1.07,0.736,3.953,3.554,5.022,4.624l4.349,4.354c5.963,5.951,10.51,8.629,16.07,9.236v1.871
			c-13.188,0.339-16.467-2.006-22.494-8.031l-3.548-3.549c-3.414-3.414-4.419-4.354-7.231-6.424c-1.94,0.129-4.22,0.197-5.962,0
			V505.401L293.409,505.401z M293.409,494.686c0.474,0.064,1.742,0.205,2.146,0.205c8.903-0.409,11.983-3.823,11.983-10.651
			c0-6.757-3.612-10.779-10.913-10.779c-1.005,0-2.607,0.136-3.215,0.27V494.686z"/>
		<path fill="#FFFFFF" d="M349.415,479.154c-1.876-4.618-2.612-5.155-6.897-5.155v-1.812h20.624v1.812
			c-5.489,0.07-6.43,1.473-6.43,2.876c0,0.877,0.338,2.21,1.076,4.022l10.106,24.832l9.844-23.697
			c1.204-2.877,1.537-4.151,1.537-5.156c0-2.21-1.742-2.876-6.027-2.876v-1.812h16.269V474c-4.753,0-5.623,2.478-7.762,7.635
			l-13.86,33.272h-4.085L349.415,479.154z"/>
		<path fill="#FFFFFF" d="M411.244,513.83v-1.801c5.42,0,6.757-0.877,6.757-4.623v-28.859c0-4.413-2.209-4.548-6.757-4.548v-1.812
			h34.209l0.602,10.041h-1.805l-0.333-1.402c-1.34-5.488-2.416-5.622-6.699-5.622h-11.779v15.594h10.375
			c3.882,0,4.618-0.468,5.022-5.084h1.806v13.456h-1.806c-0.467-4.752-1.338-5.355-5.022-5.355h-10.375v12.184
			c0,4.15,0.531,4.821,3.945,4.821h7.436c6.757,0,8.096-0.934,9.909-7.499h1.805l-1.005,10.51H411.244L411.244,513.83z"/>
		<path fill="#FFFFFF" d="M478.424,479.424c-3.355-4.823-4.22-5.228-8.37-5.427v-1.811h20.155v1.811
			c-3.623,0-4.688,0.736-4.688,1.941c0,0.871,0.538,2.011,2.28,4.49l8.769,12.515l7.634-12.117c1.532-2.478,2.198-3.812,2.198-4.752
			c0-1.473-1.262-2.075-4.279-2.075v-1.812h15.736v1.812c-4.887,0.537-6.091,1.402-10.382,8.3l-9.037,14.597v9.307
			c0,4.95,0.809,5.827,6.359,5.827v1.801h-20.214v-1.801c5.086,0,6.419-0.474,6.419-6.032v-8.501L478.424,479.424z"/>
		<path fill="#FFFFFF" d="M561.55,471.122c14.462,0,24.434,8.634,24.434,21.149c0,12.054-9.645,22.634-24.702,22.634
			c-13.995,0-24.178-8.769-24.178-20.751C537.103,480.756,547.357,471.122,561.55,471.122z M562.344,512.761
			c9.306,0,15.537-7.564,15.537-18.812c0-12.118-7.025-20.688-16.869-20.688c-9.646,0-15.806,7.365-15.806,19.081
			C545.206,505.799,553.845,512.761,562.344,512.761z"/>
		<path fill="#FFFFFF" d="M624.716,505.401c0,5.752,0.725,6.826,6.827,6.629v1.801H611.05v-1.801c5.624,0.197,6.23-1.345,6.23-5.764
			v-26.842c0-4.356-0.735-5.426-6.23-5.426v-1.812c1.544,0,4.957-0.265,9.576-0.469c3.554-0.129,6.826-0.129,8.172-0.129
			c13.526,0,18.146,5.894,18.146,11.983c0,4.95-2.818,8.569-8.441,10.907c1.075,0.736,3.952,3.554,5.028,4.624l4.35,4.354
			c5.961,5.951,10.51,8.629,16.063,9.236v1.871c-13.188,0.339-16.462-2.006-22.495-8.031l-3.542-3.549
			c-3.414-3.414-4.419-4.354-7.237-6.424c-1.939,0.129-4.22,0.197-5.95,0v8.839H624.716z M624.716,494.686
			c0.468,0.064,1.73,0.205,2.141,0.205c8.896-0.409,11.981-3.823,11.981-10.651c0-6.757-3.612-10.779-10.92-10.779
			c-1.005,0-2.607,0.136-3.203,0.27L624.716,494.686L624.716,494.686z"/>
		<path fill="#FFFFFF" d="M686.201,502.852h2.009c1.674,6.162,5.822,9.646,11.587,9.646c4.887,0,8.301-2.883,8.301-6.898
			c0-9.375-21.091-13.06-21.091-24.703c0-5.765,5.086-9.774,12.252-9.774c2.211,0,3.812,0.264,5.156,0.532
			c1.343,0.268,2.408,0.532,3.541,0.532c0.878,0,1.346-0.199,1.883-0.802h1.673l1.473,10.376h-2.012
			c-2.009-5.285-6.16-8.5-10.905-8.5c-4.292,0-6.561,2.544-6.561,5.487c0,8.974,21.149,11.651,21.149,24.57
			c0,6.897-5.822,11.585-14.393,11.585c-5.026,0-7.097-1.204-8.966-1.204c-0.808,0-1.346,0.199-1.812,0.736h-1.602L686.201,502.852z
			"/>
	</g>
</g>
</svg>
