<?xml version="1.0" encoding="utf-8"?>
<!-- Generator: Adobe Illustrator 16.0.0, SVG Export Plug-In . SVG Version: 6.00 Build 0)  -->
<!DOCTYPE svg PUBLIC "-//W3C//DTD SVG 1.1//EN" "http://www.w3.org/Graphics/SVG/1.1/DTD/svg11.dtd">
<svg version="1.1" id="Layer_1" xmlns="http://www.w3.org/2000/svg" xmlns:xlink="http://www.w3.org/1999/xlink" x="0px" y="0px"
	 width="900px" height="900px" viewBox="0 0 900 900" enable-background="new 0 0 900 900" xml:space="preserve">
<g>
	<g>
		<path fill="#93AF9F" d="M899.109,449.997c0,247.653-200.753,448.413-448.404,448.413S2.295,697.65,2.295,449.997
			C2.295,202.352,203.055,1.59,450.706,1.59S899.109,202.352,899.109,449.997z"/>
	</g>
	<g>
		<path fill="#FFFFFF" d="M181.277,418.209c-0.812-0.338-1.283-0.471-2.295-0.471c-3.031,0-7.68,1.548-13.412,1.548
			c-15.701,0-24.193-9.166-24.193-21.229c0-11.458,7.68-22.849,24.735-22.849c7.344,0,12.535,2.225,14.488,2.225
			c0.542,0,0.877-0.136,1.218-0.474h1.683l0.335,11.122h-2.019c-2.495-6.941-7.957-10.716-15.436-10.716
			c-10.11,0-16.854,7.547-16.854,18.938c0,11.796,7.756,20.559,18.066,20.559c6.604,0,12.471-3.504,16.243-9.908h2.024
			L181.277,418.209z"/>
		<path fill="#FFFFFF" d="M223.167,410.526c0,3.908,0.605,5.729,5.996,5.864v1.819h-19.479v-1.819
			c5.461-0.338,5.996-1.821,5.996-6.338v-25.141c0-5.055-0.741-6.738-5.996-6.806v-1.821h19.479v1.821
			c-5.055,0.203-5.996,1.28-5.996,7.145v10.042h24.328v-10.11c0-5.458-0.671-6.874-6.203-7.077v-1.821h19.821v1.821
			c-5.326,0.268-6.138,1.415-6.138,6.605v25.409c0,4.788,0.742,5.932,6.138,6.27v1.819h-19.821v-1.819
			c5.262-0.203,6.203-1.618,6.203-6.405v-11.658h-24.328V410.526z"/>
		<path fill="#FFFFFF" d="M283.594,416.391c4.514-0.067,5.391-0.809,7.273-6.067l12.199-33.432l-0.535-1.683h7.55l13.141,35.115
			c1.954,5.259,2.631,6.067,6.874,6.067v1.819h-20.015v-1.819c5.32,0,6.803-0.541,6.803-2.495c0-0.674-0.265-1.818-0.941-3.572
			l-3.237-8.356h-15.43l-3.307,8.963c-0.471,1.28-0.671,2.157-0.671,2.831c0,1.954,1.348,2.831,6.738,2.63v1.819h-16.442V416.391z
			 M311.429,398.595l-6.473-17.052l-6.403,17.052H311.429z"/>
		<path fill="#FFFFFF" d="M366.183,409.717c0,5.797,0.742,6.874,6.88,6.673v1.819h-20.627v-1.819c5.661,0.2,6.268-1.351,6.268-5.796
			v-27.03c0-4.381-0.741-5.458-6.268-5.458v-1.821c1.548,0,4.99-0.268,9.64-0.471c3.572-0.136,6.874-0.136,8.221-0.136
			c13.618,0,18.267,5.932,18.267,12.064c0,4.987-2.831,8.627-8.492,10.987c1.077,0.741,3.979,3.572,5.055,4.652l4.378,4.381
			c6.003,5.997,10.581,8.692,16.178,9.301v1.887c-13.276,0.335-16.578-2.021-22.646-8.089l-3.572-3.572
			c-3.437-3.437-4.449-4.382-7.28-6.471c-1.954,0.135-4.249,0.203-6.003,0V409.717z M366.183,398.933
			c0.477,0.068,1.754,0.203,2.16,0.203c8.963-0.406,12.064-3.843,12.064-10.719c0-6.806-3.637-10.849-10.987-10.849
			c-1.013,0-2.625,0.132-3.237,0.268V398.933z"/>
		<path fill="#FFFFFF" d="M422.296,375.141h1.818c0.271,0.471,0.477,0.809,1.083,0.944c0.606,0.132,1.548,0.2,3.302,0.2h28.515
			c3.438,0,3.967-0.136,4.379-1.145h1.813l1.213,11.593h-1.954c-0.941-7.009-2.283-7.415-6.332-7.415h-9.637v31.747
			c0,4.584,0.741,5.326,7.812,5.326v1.819h-23.112v-1.819c6.738,0,7.821-0.876,7.821-5.326v-31.747h-9.64
			c-3.978,0-5.326,0.406-6.338,7.415h-1.953L422.296,375.141z"/>
		<path fill="#FFFFFF" d="M486.769,418.209v-1.819c5.449,0,6.803-0.876,6.803-4.652v-29.051c0-4.446-2.224-4.581-6.803-4.581v-1.821
			h34.438l0.601,10.11h-1.813l-0.341-1.416c-1.342-5.526-2.426-5.662-6.744-5.662h-11.853v15.704h10.439
			c3.907,0,4.649-0.471,5.062-5.123h1.813v13.55h-1.813c-0.471-4.788-1.354-5.394-5.062-5.394h-10.439v12.267
			c0,4.179,0.529,4.853,3.966,4.853h7.486c6.803,0,8.156-0.941,9.98-7.548h1.813l-1.012,10.582H486.769z"/>
		<path fill="#FFFFFF" d="M560.26,409.717c0,5.797,0.73,6.874,6.874,6.673v1.819h-20.633v-1.819c5.661,0.2,6.273-1.351,6.273-5.796
			v-27.03c0-4.381-0.741-5.458-6.273-5.458v-1.821c1.554,0,4.99-0.268,9.64-0.471c3.578-0.136,6.873-0.136,8.227-0.136
			c13.618,0,18.268,5.932,18.268,12.064c0,4.987-2.837,8.627-8.498,10.987c1.083,0.741,3.979,3.572,5.061,4.652l4.379,4.381
			c6.003,5.997,10.581,8.692,16.172,9.301v1.887c-13.276,0.335-16.572-2.021-22.646-8.089l-3.566-3.572
			c-3.437-3.437-4.448-4.382-7.285-6.471c-1.954,0.135-4.249,0.203-5.991,0V409.717z M560.26,398.933
			c0.471,0.068,1.742,0.203,2.154,0.203c8.957-0.406,12.064-3.843,12.064-10.719c0-6.806-3.638-10.849-10.994-10.849
			c-1.012,0-2.624,0.132-3.225,0.268V398.933z"/>
		<path fill="#FFFFFF" d="M619.533,418.209v-1.819c5.461,0,6.803-0.876,6.803-4.652v-29.051c0-4.446-2.225-4.581-6.803-4.581v-1.821
			h34.438l0.612,10.11h-1.824l-0.33-1.416c-1.354-5.526-2.436-5.662-6.744-5.662h-11.863v15.704h10.451
			c3.908,0,4.649-0.471,5.049-5.123h1.825v13.55h-1.825c-0.471-4.788-1.341-5.394-5.049-5.394h-10.451v12.267
			c0,4.179,0.541,4.853,3.978,4.853h7.486c6.803,0,8.145-0.941,9.969-7.548h1.824l-1.012,10.582H619.533z"/>
		<path fill="#FFFFFF" d="M685.88,384.038c0-4.923-1.271-6-6.402-5.932v-1.821c1.966,0,7.756-0.268,10.593-0.403
			c3.637-0.135,7.074-0.135,9.628-0.135c10.181,0,17.525,1.821,21.645,5.932c4.179,4.178,5.791,9.301,5.791,14.356
			c0,9.907-6.944,22.174-26.694,22.174h-20.962v-1.819c5.731,0,6.402-0.944,6.402-5.461V384.038z M693.366,411.468
			c0,4.246,0.612,4.855,4.99,4.855c8.086,0,12.265-1.754,15.371-4.855c4.108-4.111,5.25-9.772,5.25-14.489
			c0-4.855-1.071-10.313-5.19-14.424c-3.367-3.372-7.615-4.923-15.502-4.923c-1.141,0-3.236,0-4.919,0.135V411.468z"/>
		<path fill="#FFFFFF" d="M151.553,506.318h2.024c1.683,6.203,5.861,9.711,11.658,9.711c4.92,0,8.356-2.901,8.356-6.944
			c0-9.439-21.227-13.147-21.227-24.87c0-5.803,5.12-9.84,12.335-9.84c2.224,0,3.837,0.266,5.185,0.536
			c1.354,0.271,2.43,0.535,3.572,0.535c0.876,0,1.354-0.2,1.889-0.806h1.683l1.483,10.445h-2.019
			c-2.024-5.32-6.203-8.557-10.987-8.557c-4.313,0-6.603,2.561-6.603,5.525c0,9.034,21.298,11.729,21.298,24.735
			c0,6.944-5.868,11.663-14.495,11.663c-5.055,0-7.145-1.212-9.027-1.212c-0.813,0-1.348,0.2-1.825,0.741h-1.612L151.553,506.318z"
			/>
		<path fill="#FFFFFF" d="M205.029,475.446h19.138v1.824c-4.984,0-5.932,1.077-5.932,5.797v18.132
			c0,8.963,6.002,13.076,14.424,13.076c7.485,0,14.495-3.236,14.495-13.212v-17.996c0-5.255-1.012-5.797-6.473-5.797v-1.824h16.313
			v1.824c-5.12,0-6.132,1.077-6.132,5.797v18.737c0,10.582-8.156,16.648-20.427,16.648c-12.806,0-19.679-6.132-19.679-17.125
			v-18.938c0-4.107-1.077-5.12-5.726-5.12V475.446z"/>
		<path fill="#FFFFFF" d="M293.15,508.885c0,5.791,0.742,6.873,6.88,6.674v1.813h-20.627v-1.813
			c5.661,0.199,6.268-1.354,6.268-5.803v-27.023c0-4.385-0.742-5.462-6.268-5.462v-1.824c1.548,0,4.99-0.265,9.64-0.471
			c3.572-0.13,6.874-0.13,8.221-0.13c13.618,0,18.267,5.933,18.267,12.064c0,4.984-2.831,8.627-8.492,10.981
			c1.077,0.741,3.979,3.578,5.055,4.655l4.378,4.384c6.003,5.991,10.581,8.687,16.178,9.299v1.883
			c-13.276,0.341-16.578-2.019-22.646-8.086l-3.572-3.572c-3.437-3.437-4.449-4.384-7.279-6.468c-1.954,0.13-4.249,0.2-6.003,0
			V508.885z M293.15,498.098c0.477,0.064,1.754,0.206,2.16,0.206c8.963-0.412,12.064-3.849,12.064-10.723
			c0-6.803-3.637-10.852-10.987-10.852c-1.012,0-2.625,0.136-3.237,0.271V498.098z"/>
		<path fill="#FFFFFF" d="M349.534,482.461c-1.889-4.648-2.63-5.19-6.944-5.19v-1.824h20.763v1.824
			c-5.526,0.071-6.474,1.483-6.474,2.896c0,0.883,0.341,2.225,1.083,4.049l10.175,25l9.91-23.858
			c1.212-2.896,1.548-4.178,1.548-5.19c0-2.225-1.754-2.896-6.067-2.896v-1.824h16.378v1.824c-4.785,0-5.661,2.495-7.815,7.687
			l-13.953,33.496h-4.113L349.534,482.461z"/>
		<path fill="#FFFFFF" d="M411.779,517.371v-1.813c5.456,0,6.803-0.883,6.803-4.655V481.85c0-4.443-2.225-4.579-6.803-4.579v-1.824
			h34.439l0.606,10.11h-1.818l-0.335-1.412c-1.348-5.526-2.431-5.661-6.744-5.661h-11.858v15.7h10.445
			c3.908,0,4.649-0.471,5.056-5.119h1.818v13.547h-1.818c-0.471-4.784-1.348-5.391-5.056-5.391h-10.445v12.265
			c0,4.178,0.535,4.854,3.972,4.854h7.486c6.803,0,8.15-0.941,9.975-7.55h1.818l-1.012,10.581H411.779z"/>
		<path fill="#FFFFFF" d="M479.412,482.732c-3.378-4.855-4.248-5.262-8.427-5.462v-1.824h20.291v1.824
			c-3.648,0-4.72,0.741-4.72,1.954c0,0.877,0.541,2.024,2.295,4.52l8.828,12.6l7.686-12.199c1.542-2.495,2.213-3.837,2.213-4.785
			c0-1.482-1.271-2.089-4.309-2.089v-1.824h15.843v1.824c-4.92,0.542-6.132,1.413-10.452,8.356l-9.098,14.695v9.369
			c0,4.984,0.813,5.867,6.402,5.867v1.813h-20.35v-1.813c5.12,0,6.462-0.477,6.462-6.073v-8.558L479.412,482.732z"/>
		<path fill="#FFFFFF" d="M563.097,474.375c14.56,0,24.599,8.692,24.599,21.292c0,12.135-9.71,22.786-24.869,22.786
			c-14.089,0-24.341-8.827-24.341-20.891C538.485,484.074,548.808,474.375,563.097,474.375z M563.896,516.294
			c9.369,0,15.643-7.615,15.643-18.938c0-12.2-7.074-20.827-16.984-20.827c-9.71,0-15.912,7.415-15.912,19.209
			C546.643,509.285,555.34,516.294,563.896,516.294z"/>
		<path fill="#FFFFFF" d="M626.689,508.885c0,5.791,0.729,6.873,6.873,6.674v1.813H612.93v-1.813
			c5.662,0.199,6.273-1.354,6.273-5.803v-27.023c0-4.385-0.741-5.462-6.273-5.462v-1.824c1.555,0,4.991-0.265,9.641-0.471
			c3.578-0.13,6.873-0.13,8.227-0.13c13.618,0,18.268,5.933,18.268,12.064c0,4.984-2.837,8.627-8.498,10.981
			c1.082,0.741,3.978,3.578,5.061,4.655l4.379,4.384c6.002,5.991,10.581,8.687,16.172,9.299v1.883
			c-13.277,0.341-16.572-2.019-22.646-8.086l-3.566-3.572c-3.437-3.437-4.449-4.384-7.286-6.468c-1.953,0.13-4.248,0.2-5.99,0
			V508.885z M626.689,498.098c0.471,0.064,1.742,0.206,2.154,0.206c8.956-0.412,12.063-3.849,12.063-10.723
			c0-6.803-3.637-10.852-10.993-10.852c-1.012,0-2.625,0.136-3.225,0.271V498.098z"/>
		<path fill="#FFFFFF" d="M688.588,506.318h2.023c1.684,6.203,5.861,9.711,11.664,9.711c4.92,0,8.357-2.901,8.357-6.944
			c0-9.439-21.233-13.147-21.233-24.87c0-5.803,5.12-9.84,12.335-9.84c2.225,0,3.837,0.266,5.19,0.536s2.425,0.535,3.566,0.535
			c0.883,0,1.354-0.2,1.895-0.806h1.684l1.483,10.445h-2.025c-2.023-5.32-6.202-8.557-10.98-8.557c-4.32,0-6.604,2.561-6.604,5.525
			c0,9.034,21.292,11.729,21.292,24.735c0,6.944-5.861,11.663-14.489,11.663c-5.061,0-7.145-1.212-9.027-1.212
			c-0.813,0-1.354,0.2-1.824,0.741h-1.612L688.588,506.318z"/>
	</g>
</g>
</svg>
