<?xml version="1.0" encoding="utf-8"?>
<!-- Generator: Adobe Illustrator 16.0.0, SVG Export Plug-In . SVG Version: 6.00 Build 0)  -->
<!DOCTYPE svg PUBLIC "-//W3C//DTD SVG 1.1//EN" "http://www.w3.org/Graphics/SVG/1.1/DTD/svg11.dtd">
<svg version="1.1" id="Layer_1" xmlns="http://www.w3.org/2000/svg" xmlns:xlink="http://www.w3.org/1999/xlink" x="0px" y="0px"
	 width="900px" height="900px" viewBox="0 0 900 900" enable-background="new 0 0 900 900" xml:space="preserve">
<g>
	<g>
		<path fill="#7A8E8E" d="M900.26,449.88C900.26,698.476,698.712,900,450.143,900C201.548,900,0,698.476,0,449.88
			C0,201.309,201.548-0.239,450.143-0.239C698.712-0.239,900.26,201.309,900.26,449.88z"/>
	</g>
	<g>
		<path fill="#FFFFFF" d="M312.95,417.99c-0.815-0.337-1.288-0.473-2.304-0.473c-3.042,0-7.708,1.554-13.462,1.554
			c-15.761,0-24.286-9.198-24.286-21.308c0-11.508,7.709-22.938,24.829-22.938c7.373,0,12.583,2.233,14.543,2.233
			c0.544,0,0.88-0.136,1.223-0.473h1.689l0.337,11.159h-2.026c-2.505-6.965-7.986-10.757-15.495-10.757
			c-10.149,0-16.919,7.579-16.919,19.016c0,11.839,7.786,20.635,18.136,20.635c6.628,0,12.517-3.521,16.304-9.948h2.032
			L312.95,417.99z"/>
		<path fill="#FFFFFF" d="M342.002,375.905h18.88v1.825c-4.531,0-5.819,1.016-5.819,5.819v26.324c0,5.074,0.945,6.427,5.819,6.291
			v1.826h-18.88v-1.826c5.347,0.136,5.553-1.961,5.553-5.819v-27.541c0-3.651-0.88-5.14-5.553-5.075V375.905z"/>
		<path fill="#FFFFFF" d="M385.936,374.753h1.826c0.271,0.479,0.479,0.815,1.087,0.951c0.608,0.136,1.554,0.201,3.314,0.201h28.622
			c3.449,0,3.987-0.136,4.395-1.152h1.825l1.217,11.637h-1.961c-0.945-7.036-2.298-7.438-6.356-7.438h-9.676v31.865
			c0,4.602,0.744,5.346,7.845,5.346v1.826h-23.205v-1.826c6.764,0,7.851-0.88,7.851-5.346v-31.865h-9.676
			c-3.994,0-5.346,0.401-6.362,7.438h-1.961L385.936,374.753z"/>
		<path fill="#FFFFFF" d="M459.238,383.212c-3.392-4.874-4.266-5.275-8.463-5.482v-1.825h20.372v1.825
			c-3.663,0-4.738,0.745-4.738,1.967c0,0.875,0.544,2.026,2.305,4.531l8.861,12.654l7.715-12.246
			c1.548-2.505,2.221-3.858,2.221-4.809c0-1.488-1.275-2.097-4.324-2.097v-1.825h15.902v1.825
			c-4.938,0.543-6.155,1.424-10.491,8.395l-9.133,14.745v9.405c0,5.01,0.815,5.89,6.428,5.89v1.826h-20.428v-1.826
			c5.139,0,6.486-0.472,6.486-6.09v-8.595L459.238,383.212z"/>
		<path fill="#FFFFFF" d="M610.443,415.485c-3.935,2.57-6.568,3.586-9.475,3.586c-3.863,0-6.156-1.825-9.334-7.443
			c-5.151,5.009-9.948,7.443-14.757,7.443c-6.428,0-11.496-5.003-11.496-11.295c0-5.553,3.65-9.34,11.638-12.317
			c-3.178-2.369-5.08-5.683-5.08-8.796c0-5.003,4.064-8.052,10.692-8.052c5.813,0,9.334,2.44,9.334,6.427
			c0,3.32-2.292,5.754-7.846,8.524c4.194,2.913,8.117,6.971,11.095,11.573c5.08-6.835,7.585-10.757,7.585-12.447
			c0-1.016-0.815-1.288-3.993-1.424v-1.689h13.527v1.689c-3.923-0.065-5.341,0.337-6.298,1.288
			c-1.347,1.353-5.139,8.796-9.806,14.136c4.266,6.363,4.597,9.612,7.986,9.612c1.548,0,3.58-0.815,5.411-2.168L610.443,415.485z
			 M578.366,396.747c-3.993,2.499-6.085,5.884-6.085,9.676c0,4.667,3.38,8.454,8.46,8.454c3.107,0,6.699-1.825,9.877-4.938
			C588.043,405.135,582.23,399.653,578.366,396.747z M586.483,385.853c0-3.048-2.021-5.346-4.596-5.346
			c-2.505,0-4.266,1.825-4.266,4.33s1.087,4.059,5.08,7.508C585.267,390.455,586.483,388.358,586.483,385.853z"/>
		<path fill="#FFFFFF" d="M258.023,517.526c-0.815-0.331-1.288-0.473-2.304-0.473c-3.042,0-7.709,1.56-13.463,1.56
			c-15.761,0-24.286-9.204-24.286-21.314c0-11.508,7.709-22.932,24.829-22.932c7.373,0,12.583,2.231,14.544,2.231
			c0.543,0,0.88-0.142,1.223-0.473h1.69l0.336,11.153h-2.026c-2.504-6.959-7.986-10.751-15.495-10.751
			c-10.149,0-16.919,7.573-16.919,19.01c0,11.839,7.786,20.642,18.136,20.642c6.628,0,12.518-3.521,16.304-9.949h2.032
			L258.023,517.526z"/>
		<path fill="#FFFFFF" d="M285.593,517.526v-1.819c5.477,0,6.829-0.887,6.829-4.667v-29.172c0-4.466-2.233-4.596-6.829-4.596v-1.83
			h34.57l0.608,10.147h-1.825l-0.337-1.417c-1.353-5.554-2.44-5.684-6.77-5.684h-11.903v15.762h10.485
			c3.922,0,4.667-0.473,5.074-5.14h1.826v13.599h-1.826c-0.473-4.797-1.353-5.411-5.074-5.411h-10.485v12.312
			c0,4.194,0.538,4.879,3.987,4.879h7.514c6.829,0,8.182-0.957,10.014-7.585h1.825l-1.016,10.622H285.593z"/>
		<path fill="#FFFFFF" d="M355.3,483.085v25.981c0,5.281,0.68,6.971,6.77,6.641v1.819h-16.175v-1.819
			c4.874,0.13,5.683-1.43,5.683-5.825v-30.447c-1.619-1.418-3.107-1.961-5.683-2.162v-1.83h12.247l30.174,31.876v-24.233
			c0-5.068-0.81-5.884-6.693-5.813v-1.83h16.37v1.83c-4.531,0-5.955,0.815-5.955,5.955v34.712h-3.651L355.3,483.085z"/>
		<path fill="#FFFFFF" d="M422.591,474.296h1.825c0.272,0.473,0.479,0.815,1.087,0.945c0.609,0.142,1.554,0.201,3.314,0.201h28.625
			c3.449,0,3.981-0.13,4.395-1.146h1.819l1.218,11.637h-1.962c-0.945-7.042-2.292-7.443-6.356-7.443h-9.673v31.865
			c0,4.607,0.744,5.353,7.842,5.353v1.819h-23.201v-1.819c6.764,0,7.851-0.887,7.851-5.353v-31.865h-9.676
			c-3.993,0-5.346,0.401-6.362,7.443h-1.961L422.591,474.296z"/>
		<path fill="#FFFFFF" d="M501.771,509.008c0,5.813,0.745,6.899,6.912,6.699v1.819h-20.711v-1.819
			c5.683,0.2,6.297-1.359,6.297-5.825v-27.127c0-4.396-0.744-5.482-6.297-5.482v-1.83c1.56,0,5.009-0.272,9.676-0.473
			c3.592-0.13,6.899-0.13,8.259-0.13c13.67,0,18.337,5.953,18.337,12.109c0,5.009-2.848,8.66-8.53,11.023
			c1.087,0.744,3.993,3.592,5.08,4.667l4.396,4.406c6.025,6.015,10.62,8.72,16.232,9.334v1.891
			c-13.326,0.343-16.635-2.032-22.731-8.117l-3.579-3.58c-3.45-3.462-4.467-4.406-7.313-6.498c-1.962,0.13-4.266,0.201-6.026,0
			V509.008z M501.771,498.173c0.484,0.071,1.761,0.213,2.175,0.213c8.99-0.413,12.109-3.863,12.109-10.764
			c0-6.829-3.65-10.894-11.035-10.894c-1.016,0-2.635,0.143-3.249,0.272V498.173z"/>
		<path fill="#FFFFFF" d="M561.282,515.707c4.537-0.071,5.411-0.815,7.302-6.097l12.252-33.555l-0.544-1.688h7.586l13.186,35.243
			c1.961,5.281,2.646,6.097,6.898,6.097v1.819h-20.084v-1.819c5.34,0,6.829-0.544,6.829-2.505c0-0.686-0.272-1.832-0.945-3.592
			l-3.249-8.389h-15.49l-3.319,9.003c-0.473,1.288-0.674,2.162-0.674,2.836c0,1.961,1.347,2.847,6.758,2.646v1.819h-16.505V515.707z
			 M589.225,497.843l-6.498-17.12l-6.428,17.12H589.225z"/>
		<path fill="#FFFFFF" d="M630.398,517.526v-1.819c5.411,0,6.558-0.473,6.558-5.825v-26.797c0-4.596-0.473-5.954-6.558-5.813v-1.83
			h22.188v1.83c-7.301,0-8.115,0.271-8.115,5.341v28.557c0,2.776,0.543,3.319,3.649,3.319h6.971c5.754,0,6.156-0.271,11.236-7.171
			h2.021l-5.211,10.208H630.398z"/>
	</g>
</g>
</svg>
