<?xml version="1.0" encoding="utf-8"?>
<!-- Generator: Adobe Illustrator 15.0.2, SVG Export Plug-In . SVG Version: 6.00 Build 0)  -->
<!DOCTYPE svg PUBLIC "-//W3C//DTD SVG 1.1//EN" "http://www.w3.org/Graphics/SVG/1.1/DTD/svg11.dtd">
<svg version="1.1" id="Layer_1" xmlns="http://www.w3.org/2000/svg" xmlns:xlink="http://www.w3.org/1999/xlink" x="0px" y="0px"
	 width="897px" height="897px" viewBox="1.5 1.5 897 897" enable-background="new 1.5 1.5 897 897" xml:space="preserve">
<g>
	<g>
		<path fill="#7A8E8E" d="M895.379,449.429c0,246.834-200.119,446.93-446.927,446.93C201.619,896.358,1.5,696.263,1.5,449.429
			C1.5,202.62,201.619,2.5,448.452,2.5C695.26,2.5,895.379,202.62,895.379,449.429z"/>
	</g>
	<g>
		<path fill="#FFFFFF" d="M312.231,417.765c-0.809-0.334-1.279-0.471-2.288-0.471c-3.02,0-7.653,1.544-13.366,1.544
			c-15.649,0-24.114-9.133-24.114-21.158c0-11.426,7.654-22.774,24.653-22.774c7.321,0,12.494,2.217,14.44,2.217
			c0.54,0,0.874-0.135,1.214-0.47h1.678l0.334,11.08h-2.012c-2.487-6.916-7.929-10.681-15.384-10.681
			c-10.077,0-16.799,7.525-16.799,18.881c0,11.755,7.73,20.488,18.007,20.488c6.581,0,12.428-3.495,16.188-9.876h2.018
			L312.231,417.765z"/>
		<path fill="#FFFFFF" d="M341.078,375.978h18.746v1.812c-4.499,0-5.778,1.008-5.778,5.777v26.138c0,5.038,0.938,6.381,5.778,6.247
			v1.813h-18.746v-1.813c5.309,0.135,5.513-1.947,5.513-5.778v-27.346c0-3.625-0.874-5.104-5.513-5.039V375.978z"/>
		<path fill="#FFFFFF" d="M384.7,374.834h1.813c0.269,0.475,0.475,0.809,1.08,0.944c0.603,0.135,1.542,0.199,3.29,0.199h28.419
			c3.425,0,3.959-0.135,4.364-1.144h1.812l1.208,11.555h-1.947c-0.938-6.986-2.281-7.386-6.311-7.386h-9.607v31.64
			c0,4.569,0.739,5.308,7.79,5.308v1.813H393.57v-1.813c6.717,0,7.796-0.874,7.796-5.308v-31.64h-9.607
			c-3.965,0-5.309,0.398-6.317,7.386h-1.947L384.7,374.834z"/>
		<path fill="#FFFFFF" d="M457.483,383.233c-3.367-4.84-4.235-5.237-8.403-5.443v-1.812h20.228v1.812
			c-3.637,0-4.704,0.74-4.704,1.953c0,0.869,0.539,2.011,2.289,4.499l8.798,12.564l7.66-12.159c1.538-2.488,2.206-3.831,2.206-4.775
			c0-1.478-1.267-2.082-4.294-2.082v-1.812h15.789v1.812c-4.902,0.539-6.111,1.414-10.416,8.335l-9.068,14.641v9.338
			c0,4.975,0.809,5.849,6.382,5.849v1.813h-20.283v-1.813c5.103,0,6.44-0.469,6.44-6.047v-8.534L457.483,383.233z"/>
		<path fill="#FFFFFF" d="M607.616,415.278c-3.908,2.551-6.521,3.561-9.408,3.561c-3.836,0-6.112-1.812-9.268-7.391
			c-5.114,4.973-9.878,7.391-14.652,7.391c-6.383,0-11.414-4.967-11.414-11.215c0-5.514,3.623-9.274,11.555-12.23
			c-3.155-2.352-5.044-5.643-5.044-8.734c0-4.967,4.035-7.995,10.616-7.995c5.771,0,9.269,2.422,9.269,6.381
			c0,3.296-2.276,5.713-7.792,8.464c4.165,2.892,8.06,6.921,11.018,11.49c5.044-6.787,7.53-10.68,7.53-12.358
			c0-1.009-0.809-1.279-3.965-1.414v-1.677h13.432v1.677c-3.896-0.064-5.304,0.334-6.253,1.278
			c-1.338,1.343-5.103,8.734-9.737,14.036c4.236,6.318,4.564,9.544,7.931,9.544c1.536,0,3.555-0.809,5.372-2.153L607.616,415.278z
			 M575.766,396.673c-3.963,2.481-6.042,5.842-6.042,9.606c0,4.634,3.356,8.395,8.4,8.395c3.086,0,6.651-1.812,9.808-4.903
			C585.374,405,579.603,399.558,575.766,396.673z M583.826,385.856c0-3.027-2.007-5.309-4.564-5.309
			c-2.486,0-4.235,1.812-4.235,4.299c0,2.487,1.079,4.03,5.044,7.455C582.618,390.425,583.826,388.343,583.826,385.856z"/>
		<path fill="#FFFFFF" d="M257.694,516.596c-0.809-0.328-1.279-0.471-2.287-0.471c-3.021,0-7.654,1.55-13.367,1.55
			c-15.649,0-24.114-9.139-24.114-21.163c0-11.426,7.654-22.769,24.653-22.769c7.32,0,12.494,2.214,14.44,2.214
			c0.539,0,0.874-0.141,1.214-0.469h1.679l0.334,11.074h-2.013c-2.486-6.91-7.928-10.675-15.385-10.675
			c-10.077,0-16.799,7.518-16.799,18.874c0,11.755,7.731,20.495,18.008,20.495c6.581,0,12.429-3.495,16.188-9.878h2.018
			L257.694,516.596z"/>
		<path fill="#FFFFFF" d="M285.069,516.596v-1.807c5.438,0,6.781-0.88,6.781-4.634v-28.966c0-4.434-2.218-4.562-6.781-4.562v-1.816
			h34.325l0.604,10.074h-1.812l-0.334-1.407c-1.343-5.515-2.422-5.643-6.722-5.643H299.31v15.649h10.411
			c3.894,0,4.634-0.47,5.037-5.104h1.813v13.503h-1.813c-0.469-4.764-1.343-5.373-5.037-5.373H299.31v12.225
			c0,4.164,0.534,4.845,3.959,4.845h7.46c6.781,0,8.124-0.95,9.943-7.53h1.812l-1.008,10.546H285.069L285.069,516.596z"/>
		<path fill="#FFFFFF" d="M354.282,482.398v25.798c0,5.242,0.675,6.921,6.721,6.593v1.807h-16.061v-1.807
			c4.84,0.129,5.643-1.419,5.643-5.784v-30.23c-1.607-1.408-3.084-1.948-5.643-2.146v-1.816h12.161l29.96,31.649v-24.062
			c0-5.032-0.804-5.842-6.646-5.771v-1.816h16.254v1.816c-4.498,0-5.912,0.81-5.912,5.912v34.467h-3.625L354.282,482.398z"/>
		<path fill="#FFFFFF" d="M421.095,473.672h1.812c0.27,0.47,0.476,0.81,1.079,0.938c0.604,0.141,1.543,0.2,3.29,0.2h28.422
			c3.425,0,3.953-0.131,4.364-1.139h1.805l1.21,11.554h-1.948c-0.938-6.992-2.275-7.389-6.31-7.389h-9.604v31.639
			c0,4.574,0.738,5.315,7.786,5.315v1.806h-23.037v-1.806c6.716,0,7.796-0.881,7.796-5.315v-31.639h-9.608
			c-3.965,0-5.308,0.396-6.316,7.389h-1.947L421.095,473.672z"/>
		<path fill="#FFFFFF" d="M499.714,508.138c0,5.772,0.74,6.851,6.863,6.651v1.807h-20.563v-1.807
			c5.642,0.199,6.251-1.35,6.251-5.784V482.07c0-4.364-0.738-5.442-6.251-5.442v-1.816c1.548,0,4.973-0.271,9.606-0.471
			c3.566-0.13,6.851-0.13,8.2-0.13c13.573,0,18.207,5.911,18.207,12.024c0,4.974-2.827,8.599-8.469,10.944
			c1.079,0.739,3.964,3.567,5.043,4.634l4.365,4.375c5.982,5.973,10.545,8.658,16.118,9.268v1.878
			c-13.232,0.341-16.519-2.018-22.571-8.059l-3.554-3.556c-3.426-3.437-4.435-4.375-7.26-6.451c-1.948,0.129-4.237,0.2-5.984,0
			v8.869H499.714z M499.714,497.379c0.481,0.071,1.748,0.212,2.159,0.212c8.927-0.41,12.023-3.835,12.023-10.688
			c0-6.781-3.624-10.817-10.957-10.817c-1.008,0-2.616,0.143-3.226,0.271V497.379z"/>
		<path fill="#FFFFFF" d="M558.803,514.789c4.506-0.07,5.373-0.81,7.251-6.054l12.165-33.317l-0.541-1.675h7.533l13.092,34.992
			c1.947,5.243,2.627,6.054,6.85,6.054v1.807h-19.941v-1.807c5.302,0,6.779-0.54,6.779-2.486c0-0.683-0.27-1.82-0.938-3.567
			l-3.226-8.33h-15.38l-3.296,8.939c-0.47,1.279-0.669,2.147-0.669,2.816c0,1.948,1.338,2.827,6.709,2.628v1.806h-16.388
			L558.803,514.789L558.803,514.789z M586.548,497.052l-6.451-16.999l-6.383,16.999H586.548z"/>
		<path fill="#FFFFFF" d="M627.43,516.596v-1.807c5.372,0,6.511-0.469,6.511-5.784v-26.606c0-4.562-0.47-5.912-6.511-5.771v-1.816
			h22.031v1.816c-7.251,0-8.058,0.269-8.058,5.303v28.354c0,2.758,0.538,3.296,3.622,3.296h6.922c5.713,0,6.111-0.27,11.155-7.12
			h2.008l-5.174,10.136H627.43z"/>
	</g>
</g>
</svg>
