<svg xmlns="http://www.w3.org/2000/svg" width="900" height="900" viewBox="154.508 -345.042 900 900"><path fill="#7A8E8E" d="M1054.5 104.96c0 248.53-201.48 450-449.98 450-248.53 0-450-201.48-450-450 0-248.5 201.47-450 450-450 248.5 0 450 201.5 450 450z"/><path fill="#fff" d="M467.36 73.08c-.8-.34-1.3-.47-2.3-.47-3.04 0-7.7 1.57-13.46 1.57-15.76 0-24.28-9.2-24.28-21.3 0-11.5 7.7-22.93 24.82-22.93 7.37 0 12.58 2.23 14.54 2.23.54 0 .88-.13 1.22-.47h1.68l.35 11.15h-2.03c-2.5-6.96-7.98-10.76-15.5-10.76-10.14 0-16.9 7.56-16.9 19 0 11.83 7.77 20.62 18.12 20.62 6.63 0 12.5-3.52 16.3-9.95h2.03l-4.6 11.3zM496.4 31h18.9v1.83c-4.54 0-5.83 1.02-5.83 5.82v26.32c0 5.07.94 6.42 5.82 6.3v1.8h-18.9v-1.8c5.35.12 5.56-1.97 5.56-5.83V37.9c0-3.65-.9-5.14-5.56-5.07V31zm43.93-1.14h1.83c.27.47.48.8 1.1.94.6.14 1.54.2 3.3.2h28.6c3.46 0 4-.13 4.4-1.14h1.83l1.2 11.63h-1.96c-.94-7.05-2.3-7.45-6.35-7.45h-9.7V65.9c0 4.6.75 5.35 7.86 5.35v1.83h-23.2v-1.83c6.75 0 7.85-.88 7.85-5.34V34.06h-9.67c-4 0-5.35.4-6.36 7.43h-1.96l1.2-11.62zm73.27 8.44c-3.38-4.86-4.25-5.26-8.45-5.47V31h20.37v1.83c-3.65 0-4.74.74-4.74 1.97 0 .87.54 2.02 2.3 4.53l8.87 12.65 7.7-12.24c1.56-2.5 2.23-3.86 2.23-4.8 0-1.5-1.28-2.1-4.33-2.1V31h15.9v1.83c-4.94.54-6.16 1.42-10.48 8.4l-9.13 14.74v9.4c0 5 .8 5.9 6.43 5.9v1.82h-20.43v-1.85c5.14 0 6.48-.47 6.48-6.1V56.6l-12.7-18.27zm151.17 32.27c-3.92 2.58-6.56 3.6-9.47 3.6-3.85 0-6.15-1.84-9.33-7.45-5.14 5-9.95 7.44-14.74 7.44-6.43 0-11.5-5-11.5-11.3 0-5.54 3.65-9.33 11.63-12.3-3.17-2.38-5.07-5.68-5.07-8.8 0-5 4.04-8.05 10.67-8.05 5.82 0 9.34 2.46 9.34 6.45 0 3.32-2.3 5.75-7.85 8.52 4.2 2.9 8.13 6.96 11.1 11.57 5.08-6.84 7.58-10.75 7.58-12.45 0-1.03-.82-1.3-4-1.43v-1.7h13.53v1.7c-3.92-.07-5.34.34-6.3 1.3-1.34 1.34-5.13 8.78-9.8 14.12 4.26 6.35 4.6 9.6 8 9.6 1.54 0 3.57-.8 5.4-2.16l.8 1.34zM732.7 51.84c-3.98 2.5-6.08 5.88-6.08 9.67 0 4.7 3.4 8.47 8.45 8.47 3.12 0 6.7-1.82 9.88-4.93-2.57-4.8-8.38-10.28-12.24-13.2zm8.13-10.9c0-3.03-2.03-5.33-4.6-5.33-2.5 0-4.26 1.84-4.26 4.35 0 2.5 1.08 4.05 5.07 7.5 2.57-1.9 3.8-3.98 3.8-6.5zM412.46 172.6c-.82-.34-1.3-.48-2.3-.48-3.05 0-7.7 1.56-13.47 1.56-15.78 0-24.3-9.2-24.3-21.3 0-11.5 7.7-22.93 24.82-22.93 7.37 0 12.57 2.23 14.54 2.23.54 0 .88-.14 1.22-.48h1.67l.34 11.15h-2c-2.5-6.95-8-10.74-15.5-10.74-10.16 0-16.93 7.6-16.93 19.03 0 11.83 7.78 20.63 18.13 20.63 6.64 0 12.53-3.52 16.3-9.95h2.04l-4.58 11.3zm27.56 0v-1.83c5.47 0 6.83-.88 6.83-4.66v-29.14c0-4.47-2.24-4.6-6.83-4.6v-1.83h34.56l.6 10.15h-1.82l-.33-1.42c-1.36-5.55-2.44-5.68-6.77-5.68h-11.9v15.76h10.48c3.92 0 4.66-.48 5.07-5.14h1.85v13.58h-1.83c-.46-4.8-1.34-5.4-5.06-5.4h-10.48v12.3c0 4.18.54 4.88 3.98 4.88h7.5c6.84 0 8.2-.96 10.02-7.6h1.83l-1.02 10.64h-36.65zm69.68-34.44v25.97c0 5.28.68 6.97 6.77 6.64v1.82H500.3v-1.84c4.88.12 5.68-1.42 5.68-5.82V134.5c-1.62-1.4-3.1-1.95-5.68-2.15v-1.83h12.24l30.16 31.87v-24.25c0-5.06-.8-5.88-6.68-5.8v-1.84h16.36v1.84c-4.53 0-5.95.82-5.95 5.95V173h-3.65l-33.08-34.84zm67.27-8.8h1.83c.27.48.48.8 1.1.95.6.16 1.54.2 3.3.2h28.6c3.46 0 4-.1 4.4-1.12h1.83l1.22 11.63h-1.96c-.96-7.03-2.3-7.42-6.37-7.42h-9.68v31.85c0 4.6.75 5.35 7.84 5.35v1.82h-23.2v-1.83c6.76 0 7.85-.88 7.85-5.35v-31.85h-9.68c-4 0-5.35.4-6.36 7.43h-1.95l1.2-11.63zm79.17 34.7c0 5.8.74 6.9 6.9 6.7v1.8h-20.7v-1.8c5.68.2 6.3-1.36 6.3-5.82v-27.12c0-4.4-.75-5.48-6.3-5.48v-1.83c1.56 0 5-.25 9.68-.45 3.6-.13 6.9-.13 8.25-.13 13.66 0 18.33 5.96 18.33 12.12 0 5-2.84 8.66-8.52 11.02 1.08.74 4 3.6 5.07 4.66l4.4 4.4c6.02 6.02 10.62 8.72 16.23 9.34v1.9c-13.32.33-16.63-2.05-22.72-8.13l-3.6-3.57c-3.44-3.46-4.45-4.4-7.3-6.5-1.95.14-4.26.2-6.02 0v8.94zm0-10.82c.47.07 1.76.2 2.16.2 9-.4 12.1-3.85 12.1-10.75 0-6.85-3.64-10.9-11.02-10.9-1.02 0-2.63.13-3.24.26v21.17zm59.5 17.53c4.52-.07 5.4-.8 7.3-6.1l12.23-33.54-.54-1.7h7.58l13.2 35.25c1.97 5.27 2.65 6.1 6.9 6.1v1.82h-20.1v-1.83c5.36 0 6.85-.54 6.85-2.5 0-.68-.27-1.83-.94-3.6l-3.24-8.4h-15.5l-3.3 9c-.48 1.3-.68 2.17-.68 2.85 0 1.96 1.36 2.85 6.76 2.65v1.82h-16.5v-1.84zm27.93-17.85l-6.5-17.12-6.42 17.12h12.92zm41.15 19.68v-1.83c5.4 0 6.56-.47 6.56-5.82v-26.8c0-4.6-.47-5.94-6.56-5.8v-1.84h22.2v1.85c-7.3 0-8.13.28-8.13 5.35v28.54c0 2.77.52 3.32 3.63 3.32h6.96c5.75 0 6.15-.28 11.22-7.18h2.03l-5.2 10.22H784.7z"/></svg>