<?xml version="1.0" encoding="utf-8"?>
<!-- Generator: Adobe Illustrator 15.0.2, SVG Export Plug-In . SVG Version: 6.00 Build 0)  -->
<!DOCTYPE svg PUBLIC "-//W3C//DTD SVG 1.1//EN" "http://www.w3.org/Graphics/SVG/1.1/DTD/svg11.dtd">
<svg version="1.1" id="Layer_1" xmlns="http://www.w3.org/2000/svg" xmlns:xlink="http://www.w3.org/1999/xlink" x="0px" y="0px"
	 width="900px" height="900px" viewBox="154.508 -345.042 900 900" enable-background="new 154.508 -345.042 900 900"
	 xml:space="preserve">
<g>
	<g>
		<path fill="#7A8E8E" d="M1054.508,104.961c0,248.524-201.49,449.997-449.984,449.997c-248.53,0-450.015-201.473-450.015-449.997
			c0-248.507,201.485-450.003,450.015-450.003C853.017-345.042,1054.508-143.546,1054.508,104.961z"/>
	</g>
	<g>
		<path fill="#FFFFFF" d="M467.363,73.078c-0.815-0.339-1.288-0.472-2.304-0.472c-3.041,0-7.701,1.556-13.459,1.556
			c-15.757,0-24.284-9.202-24.284-21.303c0-11.501,7.707-22.932,24.821-22.932c7.37,0,12.579,2.232,14.54,2.232
			c0.543,0,0.88-0.133,1.223-0.473h1.684l0.342,11.159H467.9c-2.504-6.96-7.984-10.752-15.496-10.752
			c-10.146,0-16.914,7.578-16.914,19.011c0,11.835,7.783,20.629,18.13,20.629c6.626,0,12.509-3.52,16.3-9.949h2.031L467.363,73.078z
			"/>
		<path fill="#FFFFFF" d="M496.413,31.004h18.875v1.828c-4.53,0-5.823,1.016-5.823,5.817v26.316c0,5.076,0.945,6.426,5.823,6.29
			v1.828h-18.875v-1.828c5.345,0.136,5.552-1.958,5.552-5.817V37.905c0-3.653-0.887-5.141-5.552-5.073V31.004z"/>
		<path fill="#FFFFFF" d="M540.334,29.855h1.824c0.272,0.479,0.479,0.815,1.093,0.948c0.608,0.133,1.554,0.201,3.313,0.201h28.607
			c3.449,0,3.986-0.133,4.399-1.149h1.825l1.217,11.635h-1.961c-0.945-7.034-2.298-7.433-6.354-7.433h-9.68v31.848
			c0,4.601,0.744,5.345,7.849,5.345v1.828h-23.203V71.25c6.762,0,7.854-0.883,7.854-5.345V34.046h-9.68
			c-3.992,0-5.345,0.398-6.36,7.433h-1.961L540.334,29.855z"/>
		<path fill="#FFFFFF" d="M613.611,38.31c-3.39-4.875-4.258-5.274-8.457-5.478v-1.828h20.363v1.828
			c-3.649,0-4.736,0.741-4.736,1.964c0,0.877,0.543,2.026,2.304,4.53l8.864,12.653l7.707-12.243
			c1.553-2.504,2.227-3.856,2.227-4.808c0-1.488-1.282-2.097-4.329-2.097v-1.828h15.897v1.828c-4.937,0.543-6.159,1.42-10.482,8.393
			l-9.13,14.744v9.405c0,5.008,0.81,5.888,6.426,5.888v1.828h-20.429v-1.828c5.139,0,6.485-0.47,6.485-6.089V56.58L613.611,38.31z"
			/>
		<path fill="#FFFFFF" d="M764.774,70.574c-3.928,2.572-6.562,3.588-9.473,3.588c-3.856,0-6.154-1.828-9.331-7.441
			c-5.145,5.008-9.945,7.441-14.74,7.441c-6.426,0-11.499-5.002-11.499-11.292c0-5.552,3.649-9.337,11.634-12.314
			c-3.177-2.371-5.072-5.679-5.072-8.794c0-4.999,4.057-8.05,10.689-8.05c5.816,0,9.336,2.439,9.336,6.426
			c0,3.319-2.303,5.75-7.854,8.52c4.198,2.908,8.126,6.966,11.097,11.569c5.079-6.833,7.577-10.751,7.577-12.447
			c0-1.016-0.815-1.287-3.986-1.42v-1.686h13.518v1.686c-3.915-0.068-5.339,0.34-6.289,1.288c-1.353,1.355-5.139,8.794-9.798,14.133
			c4.252,6.364,4.595,9.612,7.973,9.612c1.554,0,3.585-0.818,5.415-2.167L764.774,70.574z M732.706,51.837
			c-3.986,2.498-6.089,5.885-6.089,9.677c0,4.663,3.391,8.448,8.457,8.448c3.112,0,6.691-1.825,9.875-4.935
			C742.385,60.227,736.568,54.749,732.706,51.837z M740.826,40.953c0-3.047-2.025-5.345-4.6-5.345c-2.498,0-4.259,1.825-4.259,4.329
			c0,2.504,1.081,4.057,5.073,7.506C739.61,45.547,740.826,43.457,740.826,40.953z"/>
		<path fill="#FFFFFF" d="M412.457,172.595c-0.82-0.337-1.293-0.473-2.309-0.473c-3.041,0-7.701,1.559-13.459,1.559
			c-15.757,0-24.278-9.201-24.278-21.308c0-11.505,7.701-22.927,24.815-22.927c7.371,0,12.579,2.232,14.54,2.232
			c0.544,0,0.88-0.142,1.223-0.473h1.683l0.343,11.15h-2.025c-2.504-6.951-7.984-10.743-15.497-10.743
			c-10.146,0-16.914,7.571-16.914,19.006c0,11.835,7.784,20.635,18.131,20.635c6.627,0,12.515-3.521,16.3-9.951h2.032
			L412.457,172.595z"/>
		<path fill="#FFFFFF" d="M440.019,172.595v-1.825c5.475,0,6.827-0.88,6.827-4.66v-29.163c0-4.465-2.232-4.595-6.827-4.595v-1.83
			h34.561l0.607,10.146h-1.824l-0.337-1.417c-1.358-5.552-2.438-5.682-6.768-5.682h-11.9v15.757h10.477
			c3.922,0,4.666-0.473,5.073-5.138h1.831v13.595h-1.831c-0.467-4.795-1.353-5.415-5.073-5.415h-10.477v12.308
			c0,4.188,0.538,4.884,3.986,4.884h7.507c6.832,0,8.185-0.956,10.01-7.589h1.824l-1.016,10.625H440.019z"/>
		<path fill="#FFFFFF" d="M509.701,138.157v25.974c0,5.28,0.679,6.964,6.768,6.639v1.825h-16.17v-1.825
			c4.879,0.124,5.682-1.423,5.682-5.823v-30.438c-1.624-1.412-3.112-1.955-5.682-2.156v-1.83h12.242l30.161,31.867v-24.226
			c0-5.067-0.81-5.882-6.686-5.812v-1.83h16.365v1.83c-4.53,0-5.953,0.815-5.953,5.953v34.697h-3.649L509.701,138.157z"/>
		<path fill="#FFFFFF" d="M576.972,129.369h1.831c0.271,0.473,0.479,0.815,1.087,0.939c0.607,0.142,1.553,0.2,3.312,0.2h28.613
			c3.443,0,3.986-0.124,4.395-1.14h1.824l1.217,11.635h-1.961c-0.939-7.04-2.297-7.436-6.354-7.436h-9.674v31.856
			c0,4.606,0.744,5.351,7.843,5.351v1.819h-23.197v-1.819c6.762,0,7.849-0.886,7.849-5.351v-31.856h-9.674
			c-3.992,0-5.351,0.396-6.366,7.436h-1.955L576.972,129.369z"/>
		<path fill="#FFFFFF" d="M656.138,164.066c0,5.812,0.744,6.904,6.904,6.697v1.819h-20.7v-1.819c5.676,0.2,6.29-1.358,6.29-5.823
			v-27.12c0-4.394-0.744-5.48-6.29-5.48v-1.831c1.554,0,5.009-0.271,9.674-0.472c3.591-0.124,6.903-0.124,8.25-0.124
			c13.666,0,18.331,5.947,18.331,12.106c0,5.009-2.84,8.664-8.521,11.021c1.081,0.744,3.992,3.591,5.073,4.66l4.399,4.411
			c6.018,6.007,10.619,8.711,16.235,9.331v1.885c-13.323,0.342-16.637-2.032-22.726-8.115l-3.585-3.579
			c-3.448-3.461-4.464-4.405-7.312-6.496c-1.954,0.13-4.258,0.201-6.018,0v8.93H656.138z M656.138,153.235
			c0.473,0.076,1.76,0.212,2.162,0.212c8.994-0.407,12.106-3.862,12.106-10.754c0-6.833-3.649-10.896-11.026-10.896
			c-1.016,0-2.634,0.142-3.242,0.271V153.235z"/>
		<path fill="#FFFFFF" d="M715.633,170.77c4.529-0.071,5.41-0.815,7.3-6.095l12.236-33.546l-0.537-1.688h7.577l13.193,35.234
			c1.954,5.279,2.64,6.095,6.897,6.095v1.825h-20.085v-1.825c5.338,0,6.826-0.543,6.826-2.504c0-0.68-0.266-1.831-0.938-3.591
			l-3.248-8.393h-15.491l-3.318,9.001c-0.473,1.287-0.674,2.161-0.674,2.835c0,1.96,1.358,2.853,6.763,2.651v1.825h-16.501V170.77z
			 M743.566,152.916l-6.496-17.115l-6.425,17.115H743.566z"/>
		<path fill="#FFFFFF" d="M784.723,172.595v-1.825c5.409,0,6.562-0.473,6.562-5.823v-26.789c0-4.601-0.473-5.953-6.562-5.817v-1.831
			h22.188v1.831c-7.305,0-8.12,0.277-8.12,5.345v28.549c0,2.776,0.543,3.325,3.65,3.325h6.963c5.752,0,6.159-0.277,11.227-7.176
			h2.025l-5.203,10.212H784.723z"/>
	</g>
</g>
</svg>
