<?xml version="1.0" encoding="utf-8"?>
<!-- Generator: Adobe Illustrator 15.0.2, SVG Export Plug-In . SVG Version: 6.00 Build 0)  -->
<!DOCTYPE svg PUBLIC "-//W3C//DTD SVG 1.1//EN" "http://www.w3.org/Graphics/SVG/1.1/DTD/svg11.dtd">
<svg version="1.1" id="Layer_1" xmlns="http://www.w3.org/2000/svg" xmlns:xlink="http://www.w3.org/1999/xlink" x="0px" y="0px"
	 width="900px" height="900px" viewBox="-10.847 -345.025 900 900" enable-background="new -10.847 -345.025 900 900"
	 xml:space="preserve">
<g>
	<g>
		<path fill="#9FA88B" d="M889.152,104.979c0,248.529-201.475,449.995-449.984,449.995c-248.541,0-450.015-201.466-450.015-449.995
			c0-248.536,201.474-450.004,450.015-450.004C687.672-345.031,889.152-143.556,889.152,104.979z"/>
	</g>
	<g>
		<path fill="#FFFFFF" d="M166.117,71.254c4.193,0,5.41-0.744,5.817-6.635l1.624-24.884c0.408-6.024-0.336-6.907-4.264-6.907v-1.825
			h12.515l14.611,31.318l13.803-31.318h12.509v1.825c-3.786,0-4.601,0.818-4.33,3.924l2.434,30.778
			c0.271,3.446,1.554,3.718,5.546,3.718v1.828H207.17v-1.828c5.546,0,6.491-1.355,5.948-8.519l-1.825-24.967h-0.136l-15.622,35.314
			h-2.297l-15.893-34.431h-0.13l-1.63,25.032c-0.472,7.232,1.086,7.232,5.546,7.577v1.828h-15.013V71.254z"/>
		<path fill="#FFFFFF" d="M248.678,71.254c4.536-0.071,5.416-0.815,7.306-6.089l12.243-33.554l-0.538-1.686h7.578l13.188,35.24
			c1.961,5.274,2.646,6.089,6.898,6.089v1.828h-20.081v-1.828c5.339,0,6.827-0.543,6.827-2.504c0-0.676-0.266-1.825-0.944-3.585
			l-3.249-8.389h-15.485l-3.313,8.995c-0.479,1.288-0.679,2.165-0.679,2.841c0,1.96,1.353,2.843,6.762,2.643v1.828h-16.507v-1.828
			H248.678z M276.614,53.395l-6.497-17.112l-6.42,17.112H276.614z"/>
		<path fill="#FFFFFF" d="M327.507,38.645v25.974c0,5.28,0.679,6.969,6.769,6.635v1.828h-16.171v-1.828
			c4.873,0.133,5.676-1.42,5.676-5.817V34.998c-1.618-1.42-3.106-1.958-5.676-2.165v-1.825h12.237l30.168,31.865V38.651
			c0-5.073-0.809-5.882-6.686-5.817v-1.825h16.36v1.825c-4.53,0-5.948,0.818-5.948,5.953v34.7h-3.655L327.507,38.645z"/>
		<path fill="#FFFFFF" d="M391.888,71.254c4.53-0.071,5.41-0.815,7.301-6.089l12.237-33.554l-0.538-1.686h7.578l13.188,35.24
			c1.96,5.274,2.646,6.089,6.903,6.089v1.828h-20.086v-1.828c5.339,0,6.827-0.543,6.827-2.504c0-0.676-0.266-1.825-0.944-3.585
			l-3.243-8.389h-15.491l-3.319,8.995c-0.473,1.288-0.673,2.165-0.673,2.841c0,1.96,1.357,2.843,6.762,2.643v1.828h-16.502V71.254
			L391.888,71.254z M419.819,53.395l-6.491-17.112l-6.426,17.112H419.819z"/>
		<path fill="#FFFFFF" d="M500.626,70.041c-7.642,3.042-12.515,4.122-18.126,4.122c-13.731,0-22.862-8.448-22.862-21.172
			c0-8.992,5.21-23.06,23.813-23.06c6.633,0,10.69,1.828,12.923,1.828c0.886,0,1.358-0.201,1.754-0.744h1.967v12.452h-2.032
			c-1.553-7.305-6.36-11.372-13.395-11.372c-10.146,0-16.844,7.985-16.844,20.157c0,13.53,8.457,19.413,16.643,19.413
			c3.042,0,5.818-0.744,8.658-2.224v-8.05c0-4.668-1.352-5.28-8.049-5.28v-1.828h20.233v1.828c-4.606,0-4.671,2.776-4.671,5.345
			v8.584H500.626z"/>
		<path fill="#FFFFFF" d="M528.733,31.009h18.876v1.825c-4.53,0-5.823,1.016-5.823,5.817V64.97c0,5.076,0.944,6.422,5.823,6.29
			v1.828h-18.876V71.26c5.345,0.133,5.552-1.958,5.552-5.817V37.907c0-3.65-0.886-5.138-5.552-5.073V31.009z"/>
		<path fill="#FFFFFF" d="M581.174,38.645v25.974c0,5.28,0.673,6.969,6.768,6.635v1.828h-16.176v-1.828
			c4.878,0.133,5.682-1.42,5.682-5.817V34.998c-1.625-1.42-3.107-1.958-5.682-2.165v-1.825h12.243l30.168,31.865V38.651
			c0-5.073-0.815-5.882-6.691-5.817v-1.825h16.366v1.825c-4.53,0-5.954,0.818-5.954,5.953v34.7h-3.649L581.174,38.645z"/>
		<path fill="#FFFFFF" d="M690.247,70.041c-7.648,3.042-12.515,4.122-18.126,4.122c-13.737,0-22.862-8.448-22.862-21.172
			c0-8.992,5.21-23.06,23.808-23.06c6.639,0,10.696,1.828,12.929,1.828c0.88,0,1.353-0.201,1.754-0.744h1.967v12.452h-2.038
			c-1.553-7.305-6.36-11.372-13.395-11.372c-10.146,0-16.844,7.985-16.844,20.157c0,13.53,8.457,19.413,16.648,19.413
			c3.042,0,5.818-0.744,8.658-2.224v-8.05c0-4.668-1.357-5.28-8.05-5.28v-1.828h20.229v1.828c-4.601,0-4.666,2.776-4.666,5.345
			v8.584H690.247z"/>
		<path fill="#FFFFFF" d="M244.857,170.771c4.536-0.077,5.416-0.821,7.306-6.083l12.243-33.563l-0.538-1.683h7.572l13.188,35.246
			c1.967,5.262,2.64,6.083,6.904,6.083v1.831h-20.087v-1.831c5.345,0,6.833-0.543,6.833-2.504c0-0.674-0.271-1.819-0.944-3.579
			l-3.249-8.393h-15.492l-3.319,8.989c-0.473,1.287-0.673,2.167-0.673,2.847c0,1.96,1.353,2.834,6.762,2.64v1.831h-16.507V170.771
			L244.857,170.771z M272.799,152.899l-6.491-17.115l-6.426,17.115H272.799z"/>
		<path fill="#FFFFFF" d="M353.606,169.542c-7.648,3.054-12.515,4.128-18.125,4.128c-13.738,0-22.863-8.439-22.863-21.166
			c0-8.995,5.209-23.062,23.807-23.062c6.639,0,10.696,1.831,12.929,1.831c0.88,0,1.353-0.201,1.754-0.744h1.967v12.449h-2.037
			c-1.554-7.312-6.361-11.375-13.396-11.375c-10.146,0-16.844,7.985-16.844,20.163c0,13.524,8.457,19.406,16.649,19.406
			c3.042,0,5.818-0.744,8.659-2.221v-8.056c0-4.659-1.353-5.279-8.05-5.279v-1.819h20.228v1.819c-4.601,0-4.666,2.775-4.666,5.351
			v8.575H353.606z"/>
		<path fill="#FFFFFF" d="M380.219,172.596v-1.837c5.475,0,6.827-0.874,6.827-4.66v-29.151c0-4.459-2.227-4.606-6.827-4.606v-1.818
			h34.562l0.614,10.146h-1.825l-0.342-1.411c-1.354-5.552-2.434-5.682-6.77-5.682h-11.9v15.757h10.483
			c3.916,0,4.66-0.473,5.073-5.144h1.825v13.595h-1.825c-0.473-4.808-1.353-5.415-5.073-5.415h-10.483v12.308
			c0,4.193,0.537,4.866,3.986,4.866h7.513c6.828,0,8.181-0.939,10.011-7.571h1.825l-1.016,10.625H380.219z"/>
		<path fill="#FFFFFF" d="M449.923,138.164v25.974c0,5.28,0.679,6.97,6.769,6.633v1.831h-16.172v-1.831
			c4.873,0.136,5.676-1.418,5.676-5.812v-30.438c-1.618-1.43-3.106-1.961-5.676-2.174v-1.818h12.238l30.168,31.855V138.17
			c0-5.079-0.809-5.882-6.691-5.823v-1.818h16.365v1.818c-4.529,0-5.947,0.815-5.947,5.953v34.703h-3.656L449.923,138.164z"/>
		<path fill="#FFFFFF" d="M517.193,129.364h1.824c0.271,0.484,0.479,0.821,1.087,0.957c0.614,0.124,1.56,0.201,3.319,0.201h28.609
			c3.449,0,3.986-0.143,4.4-1.158h1.824l1.217,11.641h-1.961c-0.945-7.028-2.297-7.436-6.354-7.436h-9.681v31.862
			c0,4.595,0.744,5.339,7.844,5.339v1.831h-23.199v-1.831c6.763,0,7.85-0.88,7.85-5.339v-31.862h-9.675
			c-3.992,0-5.345,0.396-6.36,7.436h-1.961L517.193,129.364z"/>
		<path fill="#FFFFFF" d="M584.522,161.504h2.031c1.689,6.207,5.883,9.728,11.706,9.728c4.932,0,8.387-2.9,8.387-6.97
			c0-9.455-21.303-13.182-21.303-24.958c0-5.811,5.144-9.874,12.379-9.874c2.232,0,3.856,0.271,5.203,0.543
			c1.358,0.271,2.439,0.55,3.585,0.55c0.886,0,1.364-0.201,1.896-0.821h1.684l1.488,10.489h-2.025c-2.032-5.352-6.22-8.6-11.021-8.6
			c-4.335,0-6.632,2.575-6.632,5.552c0,9.06,21.374,11.765,21.374,24.828c0,6.963-5.889,11.693-14.547,11.693
			c-5.073,0-7.17-1.217-9.061-1.217c-0.814,0-1.352,0.201-1.83,0.744h-1.618L584.522,161.504z"/>
	</g>
</g>
</svg>
