<?xml version="1.0" encoding="utf-8"?>
<!-- Generator: Adobe Illustrator 16.0.0, SVG Export Plug-In . SVG Version: 6.00 Build 0)  -->
<!DOCTYPE svg PUBLIC "-//W3C//DTD SVG 1.1//EN" "http://www.w3.org/Graphics/SVG/1.1/DTD/svg11.dtd">
<svg version="1.1" id="Layer_1" xmlns="http://www.w3.org/2000/svg" xmlns:xlink="http://www.w3.org/1999/xlink" x="0px" y="0px"
	 width="900px" height="900px" viewBox="0 0 900 900" enable-background="new 0 0 900 900" xml:space="preserve">
<g>
	<g>
		<path fill="#9FA88B" d="M900.567,450.724c0,248.244-201.229,449.485-449.45,449.485c-248.241,0-449.477-201.241-449.477-449.485
			c0-248.245,201.235-449.485,449.477-449.485C699.338,1.238,900.567,202.479,900.567,450.724z"/>
	</g>
	<g>
		<path fill="#FFFFFF" d="M178.397,417.043c4.191,0,5.406-0.743,5.811-6.625l1.622-24.858c0.404-6.017-0.339-6.896-4.256-6.896
			v-1.823h12.5l14.591,31.282l13.783-31.282h12.5v1.823c-3.785,0-4.596,0.814-4.324,3.923l2.431,30.74
			c0.271,3.445,1.554,3.717,5.542,3.717v1.823h-19.19v-1.823c5.542,0,6.486-1.351,5.946-8.513l-1.823-24.936h-0.136l-15.606,35.271
			h-2.297l-15.878-34.392h-0.135l-1.623,25c-0.472,7.226,1.083,7.226,5.54,7.568v1.823h-14.999V417.043z"/>
		<path fill="#FFFFFF" d="M260.86,417.043c4.528-0.071,5.407-0.814,7.297-6.082l12.226-33.513l-0.537-1.687h7.568l13.173,35.2
			c1.958,5.268,2.637,6.082,6.89,6.082v1.823h-20.063v-1.823c5.333,0,6.819-0.543,6.819-2.501c0-0.678-0.266-1.823-0.943-3.581
			l-3.245-8.377h-15.47l-3.31,8.984c-0.475,1.286-0.676,2.165-0.676,2.838c0,1.958,1.351,2.837,6.755,2.637v1.823H260.86V417.043z
			 M288.766,399.204l-6.489-17.096l-6.418,17.096H288.766z"/>
		<path fill="#FFFFFF" d="M339.599,384.474v25.944c0,5.274,0.678,6.961,6.76,6.625v1.823h-16.151v-1.823
			c4.867,0.136,5.675-1.422,5.675-5.811v-30.404c-1.616-1.421-3.103-1.958-5.675-2.165v-1.823h12.229l30.133,31.825v-24.192
			c0-5.067-0.809-5.875-6.684-5.811v-1.823h16.346v1.823c-4.525,0-5.946,0.814-5.946,5.946v34.663h-3.646L339.599,384.474z"/>
		<path fill="#FFFFFF" d="M403.898,417.043c4.524-0.071,5.403-0.814,7.291-6.082l12.229-33.513l-0.537-1.687h7.569l13.172,35.2
			c1.958,5.268,2.637,6.082,6.893,6.082v1.823H430.45v-1.823c5.333,0,6.819-0.543,6.819-2.501c0-0.678-0.266-1.823-0.944-3.581
			l-3.244-8.377h-15.468l-3.315,8.984c-0.472,1.286-0.672,2.165-0.672,2.838c0,1.958,1.351,2.837,6.754,2.637v1.823h-16.481V417.043
			z M431.801,399.204l-6.489-17.096l-6.418,17.096H431.801z"/>
		<path fill="#FFFFFF" d="M512.515,415.828c-7.634,3.038-12.506,4.118-18.11,4.118c-13.709,0-22.829-8.441-22.829-21.148
			c0-8.984,5.203-23.036,23.773-23.036c6.63,0,10.677,1.823,12.907,1.823c0.885,0,1.356-0.201,1.758-0.743h1.959v12.435h-2.029
			c-1.546-7.297-6.348-11.356-13.38-11.356c-10.134,0-16.824,7.976-16.824,20.134c0,13.515,8.448,19.39,16.624,19.39
			c3.044,0,5.816-0.743,8.648-2.224v-8.04c0-4.666-1.346-5.274-8.035-5.274v-1.823h20.198v1.823c-4.589,0-4.66,2.773-4.66,5.338
			V415.828z"/>
		<path fill="#FFFFFF" d="M540.582,376.841h18.854v1.823c-4.53,0-5.816,1.015-5.816,5.811v26.286c0,5.067,0.944,6.418,5.816,6.283
			v1.823h-18.854v-1.823c5.333,0.136,5.546-1.959,5.546-5.811V383.73c0-3.646-0.885-5.132-5.546-5.067V376.841z"/>
		<path fill="#FFFFFF" d="M592.955,384.474v25.944c0,5.274,0.684,6.961,6.76,6.625v1.823h-16.151v-1.823
			c4.872,0.136,5.675-1.422,5.675-5.811v-30.404c-1.616-1.421-3.104-1.958-5.675-2.165v-1.823h12.234l30.132,31.825v-24.192
			c0-5.067-0.813-5.875-6.689-5.811v-1.823h16.353v1.823c-4.53,0-5.946,0.814-5.946,5.946v34.663h-3.646L592.955,384.474z"/>
		<path fill="#FFFFFF" d="M701.898,415.828c-7.633,3.038-12.494,4.118-18.099,4.118c-13.721,0-22.841-8.441-22.841-21.148
			c0-8.984,5.203-23.036,23.785-23.036c6.619,0,10.678,1.823,12.907,1.823c0.873,0,1.345-0.201,1.746-0.743h1.97v12.435h-2.029
			c-1.557-7.297-6.359-11.356-13.379-11.356c-10.135,0-16.824,7.976-16.824,20.134c0,13.515,8.447,19.39,16.624,19.39
			c3.032,0,5.805-0.743,8.647-2.224v-8.04c0-4.666-1.356-5.274-8.046-5.274v-1.823h20.21v1.823c-4.602,0-4.672,2.773-4.672,5.338
			V415.828z"/>
		<path fill="#FFFFFF" d="M257.047,516.445c4.527-0.071,5.406-0.814,7.297-6.088l12.229-33.507l-0.54-1.688h7.565l13.173,35.194
			c1.964,5.273,2.637,6.088,6.896,6.088v1.816h-20.068v-1.816c5.339,0,6.825-0.543,6.825-2.502c0-0.684-0.271-1.828-0.944-3.586
			l-3.245-8.377h-15.473l-3.309,8.99c-0.475,1.286-0.676,2.159-0.676,2.832c0,1.958,1.351,2.843,6.754,2.643v1.816h-16.485V516.445z
			 M284.949,498.606l-6.483-17.096l-6.421,17.096H284.949z"/>
		<path fill="#FFFFFF" d="M365.66,515.229c-7.633,3.032-12.5,4.118-18.104,4.118c-13.715,0-22.835-8.447-22.835-21.154
			c0-8.979,5.203-23.03,23.779-23.03c6.625,0,10.678,1.817,12.907,1.817c0.879,0,1.351-0.201,1.752-0.743h1.964v12.435h-2.029
			c-1.552-7.291-6.354-11.35-13.379-11.35c-10.135,0-16.824,7.976-16.824,20.128c0,13.521,8.448,19.396,16.624,19.396
			c3.038,0,5.811-0.743,8.648-2.229v-8.034c0-4.672-1.352-5.273-8.041-5.273v-1.829h20.205v1.829c-4.595,0-4.667,2.771-4.667,5.332
			V515.229z"/>
		<path fill="#FFFFFF" d="M392.248,518.262v-1.816c5.468,0,6.819-0.885,6.819-4.66v-29.13c0-4.46-2.23-4.59-6.819-4.59v-1.828
			h34.521l0.608,10.134h-1.823l-0.336-1.415c-1.352-5.546-2.437-5.675-6.761-5.675H406.57v15.738h10.471
			c3.917,0,4.661-0.472,5.067-5.132h1.823v13.579h-1.823c-0.472-4.79-1.351-5.403-5.067-5.403H406.57v12.294
			c0,4.188,0.537,4.872,3.982,4.872h7.503c6.819,0,8.17-0.955,9.999-7.574h1.823l-1.015,10.606H392.248z"/>
		<path fill="#FFFFFF" d="M461.865,483.87v25.944c0,5.273,0.673,6.961,6.761,6.631v1.816h-16.151v-1.816
			c4.86,0.129,5.674-1.428,5.674-5.816v-30.404c-1.615-1.416-3.103-1.958-5.674-2.159v-1.828h12.223l30.132,31.831V483.87
			c0-5.062-0.802-5.875-6.678-5.805v-1.828h16.341v1.828c-4.519,0-5.946,0.814-5.946,5.946v34.663H494.9L461.865,483.87z"/>
		<path fill="#FFFFFF" d="M529.056,475.093h1.817c0.271,0.472,0.483,0.813,1.085,0.943c0.613,0.142,1.558,0.201,3.315,0.201h28.575
			c3.444,0,3.987-0.13,4.389-1.145h1.829l1.215,11.621h-1.959c-0.943-7.032-2.3-7.433-6.347-7.433h-9.663v31.819
			c0,4.601,0.743,5.345,7.834,5.345v1.816h-23.172v-1.816c6.749,0,7.834-0.885,7.834-5.345v-31.819h-9.662
			c-3.988,0-5.333,0.4-6.348,7.433h-1.958L529.056,475.093z"/>
		<path fill="#FFFFFF" d="M596.305,507.184h2.029c1.688,6.218,5.876,9.733,11.692,9.733c4.932,0,8.377-2.914,8.377-6.961
			c0-9.462-21.284-13.179-21.284-24.93c0-5.816,5.133-9.863,12.364-9.863c2.23,0,3.847,0.271,5.203,0.543
			c1.356,0.26,2.431,0.531,3.575,0.531c0.885,0,1.356-0.201,1.899-0.803h1.687l1.487,10.465h-2.029
			c-2.029-5.333-6.218-8.577-11.008-8.577c-4.33,0-6.619,2.572-6.619,5.545c0,9.05,21.343,11.751,21.343,24.788
			c0,6.961-5.875,11.692-14.523,11.692c-5.073,0-7.161-1.216-9.049-1.216c-0.814,0-1.357,0.201-1.829,0.743h-1.616L596.305,507.184z
			"/>
	</g>
</g>
</svg>
