<?xml version="1.0" encoding="utf-8"?>
<!-- Generator: Adobe Illustrator 15.0.2, SVG Export Plug-In . SVG Version: 6.00 Build 0)  -->
<!DOCTYPE svg PUBLIC "-//W3C//DTD SVG 1.1//EN" "http://www.w3.org/Graphics/SVG/1.1/DTD/svg11.dtd">
<svg version="1.1" id="Layer_1" xmlns="http://www.w3.org/2000/svg" xmlns:xlink="http://www.w3.org/1999/xlink" x="0px" y="0px"
	 width="897px" height="897px" viewBox="1.5 1.5 897 897" enable-background="new 1.5 1.5 897 897" xml:space="preserve">
<g>
	<g>
		<path fill="#9FA88B" d="M897.5,449.224c0,246.863-200.109,446.985-446.95,446.985c-246.859,0-446.977-200.122-446.977-446.985
			C3.573,202.36,203.69,2.239,450.55,2.239C697.391,2.238,897.5,202.36,897.5,449.224z"/>
	</g>
	<g>
		<path fill="#FFFFFF" d="M179.347,415.73c4.168,0,5.376-0.739,5.779-6.588l1.613-24.72c0.401-5.983-0.337-6.857-4.232-6.857v-1.813
			h12.431l14.51,31.108l13.707-31.108h12.43v1.813c-3.764,0-4.571,0.809-4.3,3.901l2.417,30.569c0.27,3.426,1.545,3.696,5.511,3.696
			v1.813H220.13v-1.813c5.511,0,6.449-1.343,5.913-8.466l-1.813-24.797h-0.135l-15.519,35.075h-2.284l-15.791-34.201h-0.134
			l-1.614,24.86c-0.469,7.186,1.077,7.186,5.509,7.526v1.813h-14.916L179.347,415.73L179.347,415.73z"/>
		<path fill="#FFFFFF" d="M261.351,415.73c4.503-0.071,5.377-0.81,7.256-6.048l12.159-33.327l-0.534-1.678h7.526l13.1,35.004
			c1.947,5.238,2.622,6.048,6.851,6.048v1.813h-19.951v-1.813c5.303,0,6.78-0.54,6.78-2.487c0-0.674-0.264-1.813-0.937-3.561
			l-3.227-8.331h-15.384l-3.292,8.935c-0.472,1.278-0.672,2.153-0.672,2.822c0,1.947,1.343,2.821,6.717,2.622v1.813h-16.393V415.73z
			 M289.102,397.991l-6.453-17.001l-6.382,17.001H289.102z"/>
		<path fill="#FFFFFF" d="M339.653,383.343v25.799c0,5.245,0.674,6.922,6.722,6.588v1.813h-16.062v-1.813
			c4.84,0.135,5.645-1.414,5.645-5.778v-30.235c-1.607-1.413-3.086-1.947-5.645-2.153v-1.813h12.162l29.965,31.648v-24.057
			c0-5.039-0.804-5.843-6.646-5.779v-1.813h16.255v1.813c-4.5,0-5.914,0.809-5.914,5.913v34.471h-3.625L339.653,383.343z"/>
		<path fill="#FFFFFF" d="M403.594,415.73c4.499-0.071,5.373-0.81,7.25-6.048l12.161-33.327l-0.534-1.678h7.526l13.099,35.004
			c1.947,5.238,2.623,6.048,6.855,6.048v1.813h-19.954v-1.813c5.303,0,6.782-0.54,6.782-2.487c0-0.674-0.264-1.813-0.939-3.561
			l-3.226-8.331h-15.381l-3.296,8.935c-0.47,1.278-0.668,2.153-0.668,2.822c0,1.947,1.343,2.821,6.716,2.622v1.813h-16.39
			L403.594,415.73L403.594,415.73z M431.342,397.991l-6.453-17.001l-6.382,17.001H431.342z"/>
		<path fill="#FFFFFF" d="M511.607,414.522c-7.591,3.021-12.437,4.095-18.01,4.095c-13.633,0-22.702-8.394-22.702-21.031
			c0-8.934,5.175-22.907,23.642-22.907c6.593,0,10.617,1.812,12.835,1.812c0.88,0,1.349-0.2,1.748-0.739h1.948v12.366h-2.018
			c-1.537-7.256-6.312-11.293-13.306-11.293c-10.077,0-16.73,7.932-16.73,20.022c0,13.44,8.401,19.283,16.531,19.283
			c3.027,0,5.784-0.739,8.601-2.212v-7.995c0-4.64-1.338-5.244-7.99-5.244v-1.813h20.086v1.813c-4.563,0-4.635,2.757-4.635,5.308
			V414.522L511.607,414.522z"/>
		<path fill="#FFFFFF" d="M539.517,375.751h18.75v1.813c-4.505,0-5.784,1.009-5.784,5.779v26.139c0,5.039,0.939,6.382,5.784,6.249
			v1.813h-18.75v-1.813c5.304,0.135,5.517-1.948,5.517-5.778v-27.351c0-3.626-0.881-5.104-5.517-5.039V375.751z"/>
		<path fill="#FFFFFF" d="M591.599,383.343v25.799c0,5.245,0.681,6.922,6.724,6.588v1.813h-16.062v-1.813
			c4.845,0.135,5.643-1.414,5.643-5.778v-30.235c-1.607-1.413-3.086-1.947-5.643-2.153v-1.813h12.166l29.964,31.648v-24.057
			c0-5.039-0.809-5.843-6.652-5.779v-1.813h16.263v1.813c-4.505,0-5.913,0.809-5.913,5.913v34.471h-3.625L591.599,383.343z"/>
		<path fill="#FFFFFF" d="M699.937,414.522c-7.591,3.021-12.425,4.095-17.998,4.095c-13.646,0-22.715-8.394-22.715-21.031
			c0-8.934,5.174-22.907,23.652-22.907c6.583,0,10.619,1.812,12.836,1.812c0.868,0,1.337-0.2,1.736-0.739h1.959v12.366h-2.019
			c-1.548-7.256-6.323-11.293-13.305-11.293c-10.078,0-16.729,7.932-16.729,20.022c0,13.44,8.399,19.283,16.532,19.283
			c3.014,0,5.771-0.739,8.598-2.212v-7.995c0-4.64-1.348-5.244-8.001-5.244v-1.813h20.098v1.813c-4.576,0-4.646,2.757-4.646,5.308
			L699.937,414.522L699.937,414.522z"/>
		<path fill="#FFFFFF" d="M257.56,514.58c4.502-0.071,5.376-0.811,7.256-6.055l12.161-33.321l-0.536-1.678h7.522l13.1,34.998
			c1.953,5.243,2.623,6.055,6.858,6.055v1.805h-19.957v-1.805c5.309,0,6.787-0.54,6.787-2.488c0-0.681-0.27-1.818-0.939-3.566
			l-3.227-8.331h-15.387l-3.29,8.94c-0.473,1.278-0.673,2.146-0.673,2.816c0,1.946,1.344,2.826,6.717,2.629v1.805h-16.394
			L257.56,514.58L257.56,514.58z M285.307,496.84l-6.447-17.001l-6.385,17.001H285.307z"/>
		<path fill="#FFFFFF" d="M365.568,513.369c-7.59,3.016-12.43,4.096-18.002,4.096c-13.639,0-22.708-8.399-22.708-21.035
			c0-8.93,5.174-22.902,23.647-22.902c6.588,0,10.618,1.807,12.834,1.807c0.874,0,1.344-0.199,1.742-0.738h1.953v12.365h-2.017
			c-1.543-7.251-6.319-11.287-13.305-11.287c-10.08,0-16.73,7.932-16.73,20.017c0,13.445,8.401,19.287,16.531,19.287
			c3.021,0,5.778-0.738,8.6-2.216v-7.989c0-4.646-1.344-5.244-7.997-5.244v-1.819h20.093v1.819c-4.569,0-4.641,2.756-4.641,5.302
			V513.369z"/>
		<path fill="#FFFFFF" d="M392.008,516.386v-1.805c5.438,0,6.782-0.881,6.782-4.635v-28.968c0-4.436-2.217-4.564-6.782-4.564v-1.817
			h34.33l0.605,10.077h-1.813l-0.334-1.407c-1.345-5.515-2.424-5.644-6.724-5.644h-11.821v15.651h10.414
			c3.894,0,4.634-0.471,5.038-5.104h1.813v13.504h-1.813c-0.469-4.764-1.343-5.373-5.038-5.373h-10.414v12.226
			c0,4.164,0.534,4.845,3.96,4.845h7.461c6.781,0,8.125-0.949,9.944-7.531h1.813l-1.01,10.546H392.008L392.008,516.386z"/>
		<path fill="#FFFFFF" d="M461.239,482.186v25.8c0,5.243,0.669,6.923,6.723,6.595v1.805h-16.061v-1.805
			c4.832,0.128,5.643-1.421,5.643-5.784v-30.235c-1.606-1.408-3.085-1.947-5.643-2.146v-1.817h12.155l29.964,31.653v-24.064
			c0-5.034-0.797-5.842-6.641-5.772v-1.817h16.25v1.817c-4.493,0-5.912,0.81-5.912,5.912v34.471h-3.627L461.239,482.186z"/>
		<path fill="#FFFFFF" d="M528.056,473.457h1.808c0.269,0.47,0.479,0.809,1.078,0.938c0.609,0.141,1.55,0.2,3.297,0.2h28.416
			c3.425,0,3.965-0.13,4.364-1.14h1.818l1.208,11.557h-1.947c-0.938-6.993-2.287-7.392-6.312-7.392h-9.609v31.642
			c0,4.576,0.739,5.316,7.79,5.316v1.805h-23.043v-1.805c6.712,0,7.791-0.881,7.791-5.316v-31.642h-9.608
			c-3.967,0-5.304,0.397-6.312,7.392h-1.947L528.056,473.457z"/>
		<path fill="#FFFFFF" d="M594.931,505.369h2.018c1.679,6.185,5.843,9.68,11.627,9.68c4.904,0,8.33-2.898,8.33-6.922
			c0-9.41-21.166-13.105-21.166-24.791c0-5.784,5.105-9.809,12.296-9.809c2.218,0,3.825,0.269,5.174,0.54
			c1.35,0.258,2.417,0.528,3.556,0.528c0.88,0,1.348-0.2,1.888-0.8h1.678l1.479,10.408h-2.018c-2.019-5.304-6.184-8.53-10.947-8.53
			c-4.306,0-6.582,2.558-6.582,5.515c0,8.999,21.224,11.686,21.224,24.65c0,6.922-5.842,11.626-14.441,11.626
			c-5.045,0-7.121-1.209-8.999-1.209c-0.81,0-1.35,0.2-1.819,0.739h-1.606L594.931,505.369z"/>
	</g>
</g>
</svg>
