<svg xmlns="http://www.w3.org/2000/svg" width="900" height="900" viewBox="-341.7 -345.006 900 900"><path fill="#646568" d="M558.3 105c0 248.53-201.47 450-449.97 450-248.54 0-450.03-201.47-450.03-450 0-248.52 201.48-450 450.03-450 248.5 0 449.97 201.48 449.97 450z"/><path d="M-151.83 71.27c4.67-.2 5.68-1.15 5.68-7.17V40.02c0-6.56-1.15-7.18-6.5-7.18v-1.82c1.97 0 5.35-.13 6.98-.2 3.24-.13 7.7-.34 8.98-.34 12.8 0 19.7 2.9 19.7 12.18 0 7.9-6.56 13.4-16.1 13.4-1.83 0-3.65-.14-5.55-.5v9.28c0 5.2 1.36 6.36 7.65 6.43v1.82h-20.83v-1.83zm13.2-17.72c.88.13 1.9.33 2.9.33 6.22 0 10.55-4.73 10.55-11.36 0-4.53-2.02-10.15-10.14-10.15-1.28 0-2.3.07-3.32.2v20.98zm57.99 11.03c0 5.8.74 6.9 6.9 6.7v1.82h-20.7v-1.83c5.68.2 6.3-1.35 6.3-5.82V38.33c0-4.4-.75-5.48-6.3-5.48v-1.82c1.55 0 5-.27 9.67-.48 3.6-.13 6.9-.13 8.25-.13 13.67 0 18.34 5.95 18.34 12.1 0 5-2.85 8.67-8.53 11.03 1.08.74 4 3.6 5.07 4.67l4.4 4.4c6.02 6 10.62 8.72 16.23 9.33v1.9c-13.32.33-16.63-2.03-22.72-8.12l-3.6-3.6c-3.44-3.44-4.45-4.4-7.3-6.5-1.96.15-4.26.22-6.02 0v8.95zm0-10.83c.46.07 1.76.2 2.16.2 9-.4 12.1-3.85 12.1-10.75 0-6.83-3.65-10.9-11.02-10.9-1 0-2.64.15-3.24.28v21.17zM1.44 29.94c14.6 0 24.68 8.73 24.68 21.38 0 12.17-9.73 22.86-24.95 22.86-14.14 0-24.42-8.86-24.42-20.97 0-13.52 10.35-23.26 24.7-23.26zm.8 42.08c9.4 0 15.7-7.65 15.7-19 0-12.25-7.1-20.9-17.04-20.9-9.73 0-15.97 7.43-15.97 19.27C-15.07 64.97-6.33 72 2.25 72zm49.91-.75c4.66-.2 5.67-1.15 5.67-7.17V40.02c0-6.56-1.15-7.18-6.5-7.18v-1.82c1.96 0 5.35-.13 6.97-.2 3.24-.13 7.7-.34 9-.34 12.77 0 19.67 2.9 19.67 12.18 0 7.9-6.56 13.4-16.1 13.4-1.82 0-3.65-.14-5.54-.5v9.28c0 5.2 1.35 6.36 7.64 6.43v1.82H52.15v-1.83zm13.18-17.72c.88.13 1.9.33 2.9.33 6.22 0 10.55-4.73 10.55-11.36 0-4.53-2.02-10.15-10.14-10.15-1.3 0-2.3.07-3.32.2v20.98zm43.53 19.55v-1.83c5.46 0 6.82-.88 6.82-4.67V37.45c0-4.47-2.23-4.6-6.83-4.6v-1.82h34.57l.6 10.14h-1.82l-.34-1.42c-1.36-5.54-2.44-5.68-6.77-5.68h-11.9v15.76h10.47c3.92 0 4.67-.47 5.08-5.14h1.83v13.6h-1.84c-.47-4.8-1.35-5.42-5.07-5.42H123.2v12.3c0 4.2.53 4.88 3.97 4.88h7.52c6.8 0 8.17-.94 10-7.57h1.82l-1 10.6h-36.67zm73.74-8.52c0 5.8.74 6.9 6.9 6.7v1.82h-20.7v-1.83c5.68.2 6.3-1.35 6.3-5.82V38.33c0-4.4-.75-5.48-6.3-5.48v-1.82c1.56 0 5-.27 9.68-.48 3.6-.13 6.9-.13 8.25-.13 13.67 0 18.33 5.95 18.33 12.1 0 5-2.84 8.67-8.52 11.03 1.08.74 4 3.6 5.07 4.67l4.4 4.4c6.03 6 10.63 8.72 16.25 9.33v1.9c-13.32.33-16.64-2.03-22.73-8.12l-3.6-3.6c-3.43-3.44-4.45-4.4-7.3-6.5-1.95.15-4.26.22-6 0v8.95h-.02zm0-10.83c.48.07 1.76.2 2.17.2 9-.4 12.1-3.85 12.1-10.75 0-6.83-3.65-10.9-11.02-10.9-1.02 0-2.64.15-3.25.28v21.17zm56.3-23.87h1.83c.28.47.48.8 1.1.94.6.14 1.54.2 3.3.2h28.62c3.45 0 4-.13 4.4-1.14h1.82l1.22 11.63h-1.97c-.94-7.02-2.3-7.43-6.35-7.43h-9.68v31.86c0 4.6.74 5.35 7.84 5.35v1.83h-23.2V71.3c6.76 0 7.85-.9 7.85-5.35V34.07H246c-4 0-5.35.4-6.37 7.44h-1.96l1.2-11.62zm73.3 8.45c-3.4-4.87-4.26-5.27-8.46-5.48v-1.82h20.37v1.82c-3.65 0-4.73.74-4.73 1.96 0 .9.54 2.04 2.3 4.55L330.53 52l7.72-12.25c1.55-2.5 2.22-3.85 2.22-4.8 0-1.5-1.28-2.1-4.33-2.1v-1.82h15.9v1.82c-4.93.54-6.16 1.42-10.48 8.4l-9.13 14.73v9.4c0 5 .8 5.9 6.42 5.9v1.82h-20.43v-1.83c5.14 0 6.5-.48 6.5-6.1V56.6L312.2 38.33zm-526.07 134.29c-.8-.35-1.28-.47-2.3-.47-3.04 0-7.7 1.55-13.46 1.55-15.76 0-24.3-9.2-24.3-21.3 0-11.5 7.72-22.94 24.84-22.94 7.38 0 12.58 2.23 14.55 2.23.54 0 .9-.14 1.22-.48h1.7l.33 11.16h-2.03c-2.5-6.97-7.98-10.75-15.48-10.75-10.16 0-16.92 7.58-16.92 19 0 11.85 7.77 20.64 18.12 20.64 6.64 0 12.52-3.52 16.3-9.94h2.03l-4.6 11.3zm55.22-43.16c14.62 0 24.7 8.72 24.7 21.38 0 12.17-9.75 22.86-24.97 22.86-14.13 0-24.42-8.87-24.42-20.98 0-13.53 10.35-23.26 24.7-23.26zm.8 42.07c9.42 0 15.7-7.65 15.7-19 0-12.25-7.1-20.9-17.04-20.9-9.73 0-15.95 7.43-15.95 19.27 0 13.6 8.73 20.63 17.3 20.63zm58.97-33.35v25.97c0 5.28.68 6.97 6.76 6.64v1.82h-16.16v-1.83c4.86.12 5.67-1.43 5.67-5.83v-30.43c-1.63-1.43-3.12-1.97-5.7-2.17v-1.83h12.26l30.16 31.87v-24.2c0-5.1-.8-5.9-6.7-5.83v-1.83h16.4v1.83c-4.55 0-5.97.8-5.97 5.95v34.7h-3.65l-33.08-34.84zm68.01 23.34h2.03c1.7 6.22 5.9 9.74 11.7 9.74 4.94 0 8.4-2.9 8.4-6.96 0-9.47-21.3-13.2-21.3-24.97 0-5.8 5.14-9.87 12.38-9.87 2.23 0 3.85.27 5.2.54 1.36.27 2.43.54 3.58.54.9 0 1.36-.2 1.9-.8h1.7l1.47 10.47h-2.03c-2.04-5.34-6.23-8.58-11.03-8.58-4.33 0-6.63 2.57-6.63 5.54 0 9.08 21.38 11.77 21.38 24.83 0 6.95-5.9 11.7-14.54 11.7-5.08 0-7.17-1.23-9.06-1.23-.82 0-1.36.2-1.83.74h-1.62l-1.7-11.68zm53.67-30.98H42v1.83c-5 0-5.94 1.08-5.94 5.82v18.2c0 8.98 6.02 13.1 14.47 13.1 7.52 0 14.55-3.24 14.55-13.25V138.2c0-5.3-1-5.82-6.5-5.82v-1.83h16.38v1.83c-5.14 0-6.16 1.08-6.16 5.8V157c0 10.63-8.2 16.73-20.5 16.73-12.86 0-19.75-6.16-19.75-17.18v-19c0-4.14-1.1-5.15-5.75-5.15v-1.83zm74.64 42.08v-1.83c5.4 0 6.56-.5 6.56-5.83v-26.8c0-4.58-.47-5.94-6.56-5.8v-1.83h22.2v1.83c-7.32 0-8.13.26-8.13 5.34v28.56c0 2.77.55 3.3 3.66 3.3h6.96c5.75 0 6.17-.26 11.23-7.17h2.03l-5.2 10.2H97.43v.02zm53.8-43.22h1.83c.27.46.47.8 1.08.94.62.13 1.56.2 3.32.2h28.6c3.46 0 4-.13 4.4-1.15h1.83l1.22 11.63h-1.96c-.94-7.04-2.3-7.45-6.35-7.45h-9.67v31.87c0 4.6.74 5.34 7.84 5.34v1.82h-23.2v-1.83c6.76 0 7.85-.88 7.85-5.35v-31.87h-9.68c-4 0-5.34.4-6.36 7.45h-1.96l1.22-11.64zm59.63 41.4c4.53-.08 5.4-.82 7.3-6.1l12.24-33.56-.52-1.68h7.57l13.2 35.24c1.95 5.28 2.64 6.1 6.9 6.1v1.82h-20.1v-1.83c5.35 0 6.84-.56 6.84-2.52 0-.67-.28-1.82-.96-3.58l-3.25-8.4h-15.5l-3.3 9c-.48 1.3-.68 2.17-.68 2.84 0 1.97 1.35 2.85 6.76 2.65v1.82h-16.5v-1.83zm27.93-17.87l-6.5-17.1-6.4 17.1h12.9zm50.9-14.75v25.97c0 5.28.68 6.97 6.77 6.64v1.82H280.3v-1.83c4.87.12 5.68-1.43 5.68-5.83v-30.43c-1.62-1.43-3.1-1.97-5.68-2.17v-1.83h12.24l30.16 31.87v-24.2c0-5.1-.8-5.9-6.68-5.83v-1.83h16.36v1.83c-4.53 0-5.95.8-5.95 5.95v34.7h-3.65l-33.08-34.84zm67.27-8.78h1.83c.27.46.47.8 1.1.94.6.13 1.54.2 3.3.2h28.62c3.44 0 3.98-.13 4.4-1.15h1.8l1.23 11.63h-1.96c-.95-7.04-2.3-7.45-6.36-7.45h-9.68v31.87c0 4.6.75 5.34 7.85 5.34v1.82h-23.2v-1.83c6.77 0 7.86-.88 7.86-5.35v-31.87h-9.68c-4 0-5.35.4-6.36 7.45h-1.96l1.2-11.64zm67.33 32.12h2.04c1.7 6.22 5.88 9.74 11.7 9.74 4.94 0 8.4-2.9 8.4-6.96 0-9.47-21.3-13.2-21.3-24.97 0-5.8 5.13-9.87 12.37-9.87 2.24 0 3.86.27 5.2.54 1.37.27 2.45.54 3.6.54.88 0 1.36-.2 1.9-.8h1.68l1.48 10.47h-2.02c-2.03-5.34-6.23-8.58-11.03-8.58-4.32 0-6.6 2.57-6.6 5.54 0 9.08 21.36 11.77 21.36 24.83 0 6.95-5.9 11.7-14.55 11.7-5.06 0-7.16-1.23-9.05-1.23-.8 0-1.35.2-1.83.74H426l-1.7-11.68z" fill="#fff"/></svg>