<?xml version="1.0" encoding="utf-8"?>
<!-- Generator: Adobe Illustrator 15.0.2, SVG Export Plug-In . SVG Version: 6.00 Build 0)  -->
<!DOCTYPE svg PUBLIC "-//W3C//DTD SVG 1.1//EN" "http://www.w3.org/Graphics/SVG/1.1/DTD/svg11.dtd">
<svg version="1.1" id="Layer_1" xmlns="http://www.w3.org/2000/svg" xmlns:xlink="http://www.w3.org/1999/xlink" x="0px" y="0px"
	 width="897px" height="897px" viewBox="1.5 1.5 897 897" enable-background="new 1.5 1.5 897 897" xml:space="preserve">
<g>
	<g>
		<path fill="#646568" d="M896.5,447.907c0,246.547-199.864,446.413-446.377,446.413c-246.553,0-446.431-199.865-446.431-446.413
			C3.693,201.374,203.571,1.5,450.123,1.5C696.636,1.5,896.5,201.374,896.5,447.907z"/>
	</g>
	<g>
		<path fill="#FFFFFF" d="M192.046,414.454c4.631-0.202,5.637-1.143,5.637-7.115v-23.886c0-6.509-1.14-7.113-6.442-7.113v-1.813
			c1.948,0,5.302-0.135,6.913-0.199c3.219-0.135,7.649-0.336,8.923-0.336c12.681,0,19.527,2.885,19.527,12.078
			c0,7.851-6.509,13.287-15.971,13.287c-1.811,0-3.624-0.134-5.501-0.471v9.192c0,5.167,1.342,6.31,7.581,6.377v1.81h-20.666
			V414.454L192.046,414.454z M205.131,396.871c0.874,0.135,1.878,0.337,2.885,0.337c6.173,0,10.467-4.699,10.467-11.275
			c0-4.494-2.011-10.065-10.064-10.065c-1.275,0-2.28,0.067-3.288,0.202V396.871L205.131,396.871z"/>
		<path fill="#FFFFFF" d="M262.661,407.81c0,5.771,0.739,6.843,6.843,6.644v1.81h-20.532v-1.81c5.637,0.199,6.241-1.345,6.241-5.771
			v-26.909c0-4.361-0.738-5.434-6.241-5.434v-1.813c1.545,0,4.966-0.267,9.598-0.469c3.556-0.136,6.844-0.136,8.185-0.136
			c13.558,0,18.185,5.907,18.185,12.011c0,4.964-2.816,8.588-8.453,10.937c1.071,0.738,3.96,3.557,5.032,4.632l4.358,4.361
			c5.975,5.97,10.535,8.653,16.105,9.261v1.877c-13.217,0.333-16.504-2.013-22.544-8.053l-3.556-3.556
			c-3.424-3.422-4.43-4.361-7.248-6.442c-1.947,0.135-4.227,0.201-5.973,0V407.81z M262.661,397.073
			c0.47,0.067,1.746,0.202,2.147,0.202c8.926-0.404,12.011-3.825,12.011-10.672c0-6.775-3.625-10.8-10.938-10.8
			c-1.004,0-2.616,0.131-3.22,0.267V397.073z"/>
		<path fill="#FFFFFF" d="M344.089,373.454c14.496,0,24.491,8.656,24.491,21.203c0,12.078-9.662,22.679-24.759,22.679
			c-14.026,0-24.226-8.789-24.226-20.799C319.594,383.114,329.864,373.454,344.089,373.454z M344.892,415.191
			c9.327,0,15.566-7.584,15.566-18.856c0-12.146-7.042-20.735-16.908-20.735c-9.662,0-15.836,7.379-15.836,19.123
			C327.714,408.211,336.373,415.191,344.892,415.191z"/>
		<path fill="#FFFFFF" d="M394.386,414.454c4.628-0.202,5.637-1.143,5.637-7.115v-23.886c0-6.509-1.142-7.113-6.444-7.113v-1.813
			c1.945,0,5.302-0.135,6.913-0.199c3.222-0.135,7.646-0.336,8.922-0.336c12.685,0,19.528,2.885,19.528,12.078
			c0,7.851-6.509,13.287-15.97,13.287c-1.811,0-3.622-0.134-5.502-0.471v9.192c0,5.167,1.342,6.31,7.582,6.377v1.81h-20.665V414.454
			z M407.469,396.871c0.873,0.135,1.88,0.337,2.884,0.337c6.174,0,10.47-4.699,10.47-11.275c0-4.494-2.011-10.065-10.066-10.065
			c-1.271,0-2.279,0.067-3.286,0.202L407.469,396.871L407.469,396.871z"/>
		<path fill="#FFFFFF" d="M450.639,416.264v-1.81c5.438,0,6.772-0.873,6.772-4.631v-28.921c0-4.426-2.214-4.562-6.772-4.562v-1.813
			h34.285l0.608,10.065h-1.815l-0.328-1.409c-1.348-5.501-2.426-5.637-6.714-5.637h-11.811v15.634h10.404
			c3.891,0,4.628-0.469,5.027-5.1h1.815v13.49h-1.815c-0.469-4.767-1.336-5.371-5.027-5.371h-10.404v12.213
			c0,4.159,0.539,4.83,3.961,4.83h7.452c6.772,0,8.108-0.937,9.924-7.513h1.817l-1.008,10.535H450.639L450.639,416.264z"/>
		<path fill="#FFFFFF" d="M523.804,407.81c0,5.771,0.736,6.843,6.842,6.644v1.81h-20.528v-1.81c5.637,0.199,6.233-1.345,6.233-5.771
			v-26.909c0-4.361-0.738-5.434-6.233-5.434v-1.813c1.535,0,4.968-0.267,9.598-0.469c3.549-0.136,6.842-0.136,8.178-0.136
			c13.558,0,18.188,5.907,18.188,12.011c0,4.964-2.812,8.588-8.449,10.937c1.066,0.738,3.96,3.557,5.026,4.632l4.359,4.361
			c5.976,5.97,10.534,8.653,16.112,9.261v1.877c-13.218,0.333-16.51-2.013-22.545-8.053l-3.562-3.556
			c-3.421-3.422-4.428-4.361-7.241-6.442c-1.944,0.135-4.229,0.201-5.975,0v8.859H523.804z M523.804,397.073
			c0.469,0.067,1.746,0.202,2.143,0.202c8.93-0.404,12.011-3.825,12.011-10.672c0-6.775-3.62-10.8-10.933-10.8
			c-1.007,0-2.613,0.131-3.221,0.267V397.073z"/>
		<path fill="#FFFFFF" d="M579.66,373.387h1.815c0.27,0.468,0.469,0.805,1.078,0.939c0.599,0.131,1.535,0.199,3.281,0.199h28.392
			c3.422,0,3.949-0.135,4.359-1.14h1.805l1.207,11.541h-1.945c-0.938-6.978-2.272-7.382-6.305-7.382h-9.596v31.606
			c0,4.563,0.738,5.301,7.779,5.301v1.81H588.52v-1.81c6.714,0,7.791-0.873,7.791-5.301v-31.606h-9.598
			c-3.96,0-5.307,0.404-6.315,7.382h-1.945L579.66,373.387z"/>
		<path fill="#FFFFFF" d="M652.367,381.773c-3.363-4.831-4.23-5.231-8.39-5.434v-1.813h20.201v1.813c-3.633,0-4.7,0.738-4.7,1.945
			c0,0.872,0.541,2.012,2.286,4.497l8.788,12.546l7.651-12.144c1.535-2.482,2.203-3.823,2.203-4.764
			c0-1.475-1.265-2.079-4.288-2.079v-1.813h15.771v1.813c-4.898,0.537-6.104,1.409-10.405,8.318l-9.058,14.63v9.327
			c0,4.965,0.809,5.838,6.374,5.838v1.81h-20.26v-1.81c5.097,0,6.433-0.472,6.433-6.041v-8.522L652.367,381.773z"/>
		<path fill="#FFFFFF" d="M130.502,514.989c-0.806-0.34-1.273-0.469-2.282-0.469c-3.02,0-7.648,1.54-13.352,1.54
			c-15.633,0-24.09-9.127-24.09-21.138c0-11.406,7.651-22.749,24.627-22.749c7.315,0,12.479,2.214,14.428,2.214
			c0.536,0,0.873-0.128,1.207-0.468h1.68l0.333,11.073h-2.013c-2.481-6.914-7.918-10.669-15.364-10.669
			c-10.065,0-16.778,7.516-16.778,18.853c0,11.747,7.716,20.465,17.984,20.465c6.577,0,12.415-3.486,16.171-9.858h2.012
			L130.502,514.989z"/>
		<path fill="#FFFFFF" d="M185.288,472.174c14.492,0,24.49,8.659,24.49,21.208c0,12.075-9.661,22.679-24.758,22.679
			c-14.023,0-24.224-8.793-24.224-20.803C160.796,481.84,171.063,472.174,185.288,472.174z M186.094,513.911
			c9.327,0,15.566-7.581,15.566-18.854c0-12.145-7.046-20.732-16.912-20.732c-9.662,0-15.833,7.382-15.833,19.122
			C168.915,506.934,177.573,513.911,186.094,513.911z"/>
		<path fill="#FFFFFF" d="M244.573,480.833V506.6c0,5.232,0.671,6.912,6.708,6.574v1.815h-16.036v-1.815
			c4.831,0.134,5.636-1.407,5.636-5.766v-30.196c-1.611-1.412-3.088-1.951-5.636-2.15v-1.809h12.145l29.927,31.602v-24.021
			c0-5.034-0.806-5.835-6.643-5.772v-1.809h16.24v1.809c-4.499,0-5.905,0.804-5.905,5.907v34.42h-3.624L244.573,480.833z"/>
		<path fill="#FFFFFF" d="M312.043,503.98h2.014c1.676,6.174,5.835,9.661,11.606,9.661c4.897,0,8.318-2.883,8.318-6.907
			c0-9.392-21.133-13.083-21.133-24.765c0-5.766,5.098-9.796,12.28-9.796c2.214,0,3.82,0.269,5.161,0.538
			c1.349,0.27,2.42,0.54,3.557,0.54c0.873,0,1.348-0.199,1.882-0.811h1.675l1.477,10.406h-2.01
			c-2.015-5.309-6.175-8.524-10.938-8.524c-4.293,0-6.573,2.548-6.573,5.5c0,8.992,21.202,11.677,21.202,24.63
			c0,6.908-5.841,11.605-14.43,11.605c-5.033,0-7.112-1.213-8.987-1.213c-0.809,0-1.343,0.205-1.816,0.737h-1.606L312.043,503.98z"
			/>
		<path fill="#FFFFFF" d="M365.28,473.252h19.052v1.809c-4.961,0-5.905,1.072-5.905,5.772v18.051
			c0,8.923,5.976,13.011,14.359,13.011c7.453,0,14.43-3.215,14.43-13.146v-17.915c0-5.239-1.008-5.772-6.444-5.772v-1.809h16.24
			v1.809c-5.098,0-6.104,1.072-6.104,5.772v18.652c0,10.535-8.12,16.574-20.336,16.574c-12.75,0-19.592-6.111-19.592-17.043v-18.854
			c0-4.1-1.071-5.104-5.7-5.104V473.252z"/>
		<path fill="#FFFFFF" d="M439.323,514.989v-1.815c5.367,0,6.51-0.469,6.51-5.766v-26.574c0-4.564-0.469-5.907-6.51-5.771v-1.81
			h22.014v1.81c-7.252,0-8.062,0.264-8.062,5.302v28.315c0,2.748,0.539,3.286,3.633,3.286h6.901c5.707,0,6.117-0.27,11.144-7.112
			h2.016l-5.168,10.136H439.323z"/>
		<path fill="#FFFFFF" d="M492.694,472.109h1.814c0.271,0.47,0.471,0.803,1.079,0.943c0.599,0.128,1.534,0.199,3.281,0.199h28.392
			c3.421,0,3.949-0.136,4.359-1.143h1.806l1.206,11.543h-1.944c-0.938-6.979-2.273-7.383-6.305-7.383h-9.598v31.608
			c0,4.557,0.739,5.296,7.78,5.296v1.815h-23.013v-1.815c6.714,0,7.792-0.867,7.792-5.296V476.27h-9.597
			c-3.962,0-5.308,0.403-6.316,7.383h-1.944L492.694,472.109z"/>
		<path fill="#FFFFFF" d="M551.843,513.174c4.5-0.064,5.367-0.804,7.241-6.036l12.15-33.289l-0.538-1.676h7.521l13.078,34.964
			c1.944,5.232,2.625,6.036,6.843,6.036v1.815h-19.921v-1.815c5.297,0,6.774-0.54,6.774-2.485c0-0.667-0.271-1.805-0.938-3.55
			l-3.222-8.319h-15.362l-3.292,8.917c-0.47,1.278-0.669,2.151-0.669,2.825c0,1.944,1.336,2.812,6.701,2.613v1.815h-16.368V513.174z
			 M579.555,495.456l-6.445-16.973l-6.373,16.973H579.555z"/>
		<path fill="#FFFFFF" d="M630.045,480.833V506.6c0,5.232,0.68,6.912,6.716,6.574v1.815h-16.042v-1.815
			c4.839,0.134,5.636-1.407,5.636-5.766v-30.196c-1.604-1.412-3.082-1.951-5.636-2.15v-1.809h12.15l29.927,31.602v-24.021
			c0-5.034-0.809-5.835-6.644-5.772v-1.809h16.24v1.809c-4.5,0-5.907,0.804-5.907,5.907v34.42h-3.62L630.045,480.833z"/>
		<path fill="#FFFFFF" d="M696.777,472.109h1.815c0.271,0.47,0.47,0.803,1.078,0.943c0.599,0.128,1.535,0.199,3.281,0.199h28.393
			c3.421,0,3.948-0.136,4.358-1.143h1.804l1.209,11.543h-1.945c-0.938-6.979-2.273-7.383-6.304-7.383h-9.598v31.608
			c0,4.557,0.737,5.296,7.78,5.296v1.815h-23.013v-1.815c6.714,0,7.791-0.867,7.791-5.296V476.27h-9.596
			c-3.962,0-5.309,0.403-6.317,7.383h-1.944L696.777,472.109z"/>
		<path fill="#FFFFFF" d="M763.578,503.98h2.016c1.676,6.174,5.834,9.661,11.599,9.661c4.898,0,8.319-2.883,8.319-6.907
			c0-9.392-21.127-13.083-21.127-24.765c0-5.766,5.098-9.796,12.28-9.796c2.216,0,3.82,0.269,5.156,0.538
			c1.348,0.27,2.426,0.54,3.562,0.54c0.867,0,1.348-0.199,1.874-0.811h1.677l1.476,10.406h-2.004
			c-2.016-5.309-6.175-8.524-10.944-8.524c-4.289,0-6.574,2.548-6.574,5.5c0,8.992,21.21,11.677,21.21,24.63
			c0,6.908-5.847,11.605-14.437,11.605c-5.027,0-7.113-1.213-8.987-1.213c-0.81,0-1.335,0.205-1.815,0.737h-1.605L763.578,503.98z"
			/>
	</g>
</g>
</svg>
