<?xml version="1.0" encoding="utf-8"?>
<!-- Generator: Adobe Illustrator 16.0.0, SVG Export Plug-In . SVG Version: 6.00 Build 0)  -->
<!DOCTYPE svg PUBLIC "-//W3C//DTD SVG 1.1//EN" "http://www.w3.org/Graphics/SVG/1.1/DTD/svg11.dtd">
<svg version="1.1" id="Layer_1" xmlns="http://www.w3.org/2000/svg" xmlns:xlink="http://www.w3.org/1999/xlink" x="0px" y="0px"
	 width="900px" height="900px" viewBox="0 0 900 900" enable-background="new 0 0 900 900" xml:space="preserve">
<g>
	<g>
		<path fill="#646568" d="M899.705,449.992c0,247.652-200.76,448.413-448.377,448.413c-247.658,0-448.431-200.761-448.431-448.413
			C2.897,202.354,203.67,1.585,451.328,1.585C698.945,1.585,899.705,202.354,899.705,449.992z"/>
	</g>
	<g>
		<path fill="#FFFFFF" d="M192.094,416.389c4.652-0.203,5.662-1.148,5.662-7.147v-23.993c0-6.538-1.145-7.145-6.471-7.145v-1.821
			c1.957,0,5.326-0.136,6.944-0.2c3.233-0.135,7.683-0.338,8.963-0.338c12.738,0,19.614,2.898,19.614,12.132
			c0,7.886-6.538,13.347-16.042,13.347c-1.819,0-3.64-0.135-5.526-0.474v9.233c0,5.19,1.348,6.338,7.615,6.406v1.818h-20.759
			V416.389z M205.238,398.728c0.877,0.135,1.886,0.338,2.898,0.338c6.2,0,10.514-4.72,10.514-11.326
			c0-4.514-2.021-10.11-10.11-10.11c-1.28,0-2.29,0.067-3.302,0.203V398.728z"/>
		<path fill="#FFFFFF" d="M263.026,409.715c0,5.797,0.742,6.874,6.874,6.674v1.818h-20.624v-1.818
			c5.662,0.2,6.268-1.351,6.268-5.797v-27.03c0-4.381-0.741-5.458-6.268-5.458v-1.821c1.551,0,4.988-0.268,9.64-0.471
			c3.572-0.136,6.874-0.136,8.222-0.136c13.618,0,18.267,5.933,18.267,12.064c0,4.987-2.83,8.627-8.492,10.987
			c1.077,0.741,3.978,3.572,5.055,4.652l4.378,4.381c6.002,5.997,10.582,8.692,16.178,9.302v1.886
			c-13.277,0.335-16.578-2.021-22.646-8.089l-3.572-3.572c-3.44-3.437-4.449-4.381-7.28-6.471c-1.956,0.136-4.246,0.203-6,0V409.715
			z M263.026,398.931c0.471,0.067,1.754,0.203,2.157,0.203c8.966-0.406,12.064-3.843,12.064-10.72
			c0-6.806-3.64-10.849-10.987-10.849c-1.009,0-2.628,0.132-3.234,0.268V398.931z"/>
		<path fill="#FFFFFF" d="M344.818,375.205c14.56,0,24.6,8.695,24.6,21.298c0,12.132-9.705,22.781-24.87,22.781
			c-14.089,0-24.334-8.828-24.334-20.892C320.213,384.909,330.53,375.205,344.818,375.205z M345.625,417.13
			c9.369,0,15.636-7.618,15.636-18.941c0-12.2-7.074-20.827-16.984-20.827c-9.705,0-15.907,7.412-15.907,19.208
			C328.37,410.118,337.068,417.13,345.625,417.13z"/>
		<path fill="#FFFFFF" d="M395.341,416.389c4.649-0.203,5.662-1.148,5.662-7.147v-23.993c0-6.538-1.147-7.145-6.473-7.145v-1.821
			c1.954,0,5.326-0.136,6.944-0.2c3.236-0.135,7.68-0.338,8.962-0.338c12.741,0,19.615,2.898,19.615,12.132
			c0,7.886-6.538,13.347-16.042,13.347c-1.818,0-3.637-0.135-5.526-0.474v9.233c0,5.19,1.348,6.338,7.615,6.406v1.818h-20.757
			V416.389z M408.482,398.728c0.877,0.135,1.889,0.338,2.896,0.338c6.203,0,10.517-4.72,10.517-11.326
			c0-4.514-2.019-10.11-10.111-10.11c-1.277,0-2.289,0.067-3.301,0.203V398.728z"/>
		<path fill="#FFFFFF" d="M451.846,418.207v-1.818c5.461,0,6.803-0.877,6.803-4.652v-29.051c0-4.446-2.225-4.582-6.803-4.582v-1.821
			h34.439l0.611,10.11h-1.824l-0.329-1.415c-1.354-5.526-2.437-5.662-6.744-5.662h-11.864v15.704h10.451
			c3.908,0,4.649-0.471,5.05-5.123h1.824v13.55h-1.824c-0.471-4.788-1.342-5.394-5.05-5.394h-10.451v12.267
			c0,4.178,0.541,4.852,3.979,4.852h7.485c6.803,0,8.145-0.941,9.969-7.547h1.825l-1.013,10.582H451.846z"/>
		<path fill="#FFFFFF" d="M525.338,409.715c0,5.797,0.741,6.874,6.873,6.674v1.818H511.59v-1.818c5.662,0.2,6.262-1.351,6.262-5.797
			v-27.03c0-4.381-0.741-5.458-6.262-5.458v-1.821c1.542,0,4.991-0.268,9.641-0.471c3.565-0.136,6.873-0.136,8.215-0.136
			c13.618,0,18.268,5.933,18.268,12.064c0,4.987-2.825,8.627-8.486,10.987c1.07,0.741,3.978,3.572,5.049,4.652l4.379,4.381
			c6.002,5.997,10.581,8.692,16.184,9.302v1.886c-13.277,0.335-16.584-2.021-22.646-8.089l-3.578-3.572
			c-3.437-3.437-4.449-4.381-7.274-6.471c-1.953,0.136-4.248,0.203-6.002,0V409.715z M525.338,398.931
			c0.471,0.067,1.754,0.203,2.153,0.203c8.969-0.406,12.064-3.843,12.064-10.72c0-6.806-3.637-10.849-10.981-10.849
			c-1.012,0-2.625,0.132-3.236,0.268V398.931z"/>
		<path fill="#FFFFFF" d="M581.445,375.138h1.824c0.271,0.471,0.471,0.809,1.083,0.944c0.601,0.132,1.542,0.2,3.296,0.2h28.518
			c3.438,0,3.967-0.136,4.379-1.145h1.813l1.213,11.593h-1.954c-0.942-7.009-2.284-7.415-6.333-7.415h-9.639v31.747
			c0,4.584,0.741,5.326,7.814,5.326v1.818h-23.115v-1.818c6.744,0,7.826-0.877,7.826-5.326v-31.747h-9.64
			c-3.978,0-5.331,0.406-6.344,7.415h-1.954L581.445,375.138z"/>
		<path fill="#FFFFFF" d="M654.478,383.562c-3.378-4.852-4.249-5.255-8.427-5.458v-1.821h20.291v1.821
			c-3.648,0-4.72,0.741-4.72,1.954c0,0.876,0.542,2.021,2.295,4.517l8.828,12.603l7.686-12.199c1.542-2.493,2.213-3.84,2.213-4.785
			c0-1.482-1.271-2.089-4.308-2.089v-1.821h15.842v1.821c-4.92,0.539-6.132,1.415-10.451,8.356l-9.099,14.695v9.369
			c0,4.988,0.813,5.865,6.403,5.865v1.818h-20.351v-1.818c5.12,0,6.462-0.474,6.462-6.068v-8.56L654.478,383.562z"/>
		<path fill="#FFFFFF" d="M130.275,517.375c-0.81-0.342-1.28-0.471-2.292-0.471c-3.034,0-7.683,1.547-13.412,1.547
			c-15.704,0-24.199-9.168-24.199-21.232c0-11.458,7.686-22.852,24.738-22.852c7.347,0,12.535,2.225,14.492,2.225
			c0.538,0,0.877-0.129,1.212-0.471h1.687l0.335,11.123h-2.022c-2.492-6.945-7.953-10.717-15.433-10.717
			c-10.11,0-16.852,7.55-16.852,18.938c0,11.8,7.75,20.557,18.064,20.557c6.606,0,12.47-3.502,16.243-9.904h2.021L130.275,517.375z"
			/>
		<path fill="#FFFFFF" d="M185.306,474.367c14.557,0,24.6,8.698,24.6,21.304c0,12.129-9.705,22.78-24.87,22.78
			c-14.086,0-24.332-8.833-24.332-20.896C160.704,484.077,171.017,474.367,185.306,474.367z M186.115,516.292
			c9.369,0,15.636-7.615,15.636-18.938c0-12.199-7.077-20.826-16.987-20.826c-9.705,0-15.904,7.415-15.904,19.208
			C168.86,509.283,177.556,516.292,186.115,516.292z"/>
		<path fill="#FFFFFF" d="M244.856,483.065v25.882c0,5.256,0.674,6.944,6.738,6.604v1.824h-16.107v-1.824
			c4.852,0.135,5.661-1.413,5.661-5.791v-30.332c-1.618-1.418-3.102-1.959-5.661-2.159v-1.818h12.199l30.061,31.743v-24.128
			c0-5.056-0.809-5.861-6.673-5.797v-1.818h16.313v1.818c-4.52,0-5.932,0.806-5.932,5.933v34.574h-3.64L244.856,483.065z"/>
		<path fill="#FFFFFF" d="M312.628,506.316h2.024c1.683,6.203,5.861,9.705,11.658,9.705c4.919,0,8.356-2.896,8.356-6.938
			c0-9.434-21.228-13.142-21.228-24.876c0-5.791,5.12-9.84,12.335-9.84c2.225,0,3.837,0.271,5.185,0.541
			c1.354,0.271,2.43,0.542,3.572,0.542c0.877,0,1.354-0.2,1.89-0.813h1.683l1.483,10.452h-2.019
			c-2.024-5.332-6.203-8.563-10.987-8.563c-4.313,0-6.603,2.56-6.603,5.525c0,9.033,21.297,11.729,21.297,24.74
			c0,6.939-5.867,11.658-14.494,11.658c-5.056,0-7.145-1.218-9.028-1.218c-0.812,0-1.348,0.206-1.824,0.741h-1.613L312.628,506.316z
			"/>
		<path fill="#FFFFFF" d="M366.104,475.45h19.138v1.818c-4.984,0-5.932,1.077-5.932,5.797v18.132c0,8.963,6.003,13.07,14.424,13.07
			c7.486,0,14.495-3.23,14.495-13.206v-17.996c0-5.262-1.013-5.797-6.474-5.797v-1.818h16.313v1.818
			c-5.12,0-6.132,1.077-6.132,5.797v18.737c0,10.582-8.156,16.648-20.427,16.648c-12.806,0-19.679-6.138-19.679-17.119v-18.938
			c0-4.119-1.077-5.126-5.726-5.126V475.45z"/>
		<path fill="#FFFFFF" d="M440.479,517.375v-1.824c5.391,0,6.539-0.471,6.539-5.791v-26.694c0-4.585-0.471-5.933-6.539-5.797v-1.818
			h22.113v1.818c-7.285,0-8.098,0.265-8.098,5.326v28.442c0,2.76,0.541,3.301,3.648,3.301h6.933c5.732,0,6.144-0.271,11.193-7.145
			h2.024l-5.19,10.182H440.479z"/>
		<path fill="#FFFFFF" d="M494.088,474.303h1.824c0.271,0.471,0.472,0.806,1.084,0.947c0.6,0.129,1.541,0.2,3.295,0.2h28.519
			c3.437,0,3.967-0.136,4.379-1.147h1.813l1.212,11.594h-1.953c-0.942-7.01-2.284-7.416-6.333-7.416h-9.64v31.75
			c0,4.578,0.742,5.32,7.815,5.32v1.824h-23.116v-1.824c6.744,0,7.827-0.871,7.827-5.32v-31.75h-9.64
			c-3.979,0-5.332,0.406-6.344,7.416h-1.954L494.088,474.303z"/>
		<path fill="#FFFFFF" d="M553.503,515.551c4.52-0.065,5.391-0.807,7.274-6.063l12.205-33.438l-0.541-1.684h7.556l13.136,35.121
			c1.953,5.256,2.637,6.063,6.873,6.063v1.824h-20.009v-1.824c5.32,0,6.804-0.542,6.804-2.496c0-0.67-0.271-1.813-0.941-3.566
			l-3.237-8.356h-15.431l-3.307,8.957c-0.471,1.283-0.672,2.16-0.672,2.837c0,1.953,1.342,2.824,6.732,2.625v1.824h-16.442V515.551z
			 M581.339,497.754l-6.474-17.049l-6.402,17.049H581.339z"/>
		<path fill="#FFFFFF" d="M632.056,483.065v25.882c0,5.256,0.683,6.944,6.745,6.604v1.824h-16.113v-1.824
			c4.86,0.135,5.661-1.413,5.661-5.791v-30.332c-1.612-1.418-3.096-1.959-5.661-2.159v-1.818h12.205l30.061,31.743v-24.128
			c0-5.056-0.813-5.861-6.674-5.797v-1.818h16.313v1.818c-4.52,0-5.933,0.806-5.933,5.933v34.574h-3.637L632.056,483.065z"/>
		<path fill="#FFFFFF" d="M699.086,474.303h1.824c0.271,0.471,0.471,0.806,1.083,0.947c0.601,0.129,1.542,0.2,3.296,0.2h28.519
			c3.437,0,3.966-0.136,4.378-1.147h1.813l1.213,11.594h-1.954c-0.941-7.01-2.283-7.416-6.332-7.416h-9.64v31.75
			c0,4.578,0.741,5.32,7.815,5.32v1.824h-23.116v-1.824c6.744,0,7.826-0.871,7.826-5.32v-31.75h-9.639
			c-3.979,0-5.332,0.406-6.345,7.416h-1.953L699.086,474.303z"/>
		<path fill="#FFFFFF" d="M766.187,506.316h2.024c1.684,6.203,5.861,9.705,11.652,9.705c4.92,0,8.356-2.896,8.356-6.938
			c0-9.434-21.221-13.142-21.221-24.876c0-5.791,5.12-9.84,12.335-9.84c2.225,0,3.837,0.271,5.179,0.541
			c1.354,0.271,2.437,0.542,3.578,0.542c0.871,0,1.354-0.2,1.883-0.813h1.684l1.482,10.452h-2.013
			c-2.024-5.332-6.202-8.563-10.993-8.563c-4.308,0-6.603,2.56-6.603,5.525c0,9.033,21.304,11.729,21.304,24.74
			c0,6.939-5.873,11.658-14.501,11.658c-5.049,0-7.145-1.218-9.027-1.218c-0.813,0-1.342,0.206-1.824,0.741h-1.612L766.187,506.316z
			"/>
	</g>
</g>
</svg>
