<?xml version="1.0" encoding="utf-8"?>
<!-- Generator: Adobe Illustrator 15.0.2, SVG Export Plug-In . SVG Version: 6.00 Build 0)  -->
<!DOCTYPE svg PUBLIC "-//W3C//DTD SVG 1.1//EN" "http://www.w3.org/Graphics/SVG/1.1/DTD/svg11.dtd">
<svg version="1.1" id="Layer_1" xmlns="http://www.w3.org/2000/svg" xmlns:xlink="http://www.w3.org/1999/xlink" x="0px" y="0px"
	 width="900px" height="900px" viewBox="-341.7 -345.006 900 900" enable-background="new -341.7 -345.006 900 900"
	 xml:space="preserve">
<g>
	<g>
		<path fill="#646568" d="M558.3,104.994c0,248.532-201.471,450-449.971,450c-248.541,0-450.029-201.468-450.029-450
			c0-248.517,201.482-450,450.029-450C356.829-345.006,558.3-143.523,558.3,104.994z"/>
	</g>
	<g>
		<path fill="#FFFFFF" d="M-151.829,71.271c4.672-0.207,5.682-1.149,5.682-7.173V40.018c0-6.562-1.151-7.173-6.497-7.173V31.02
			c1.967,0,5.345-0.133,6.969-0.201c3.242-0.133,7.707-0.339,8.989-0.339c12.787,0,19.685,2.909,19.685,12.175
			c0,7.917-6.562,13.395-16.1,13.395c-1.825,0-3.65-0.133-5.546-0.475v9.263c0,5.206,1.358,6.364,7.648,6.429v1.825h-20.836v-1.819
			H-151.829z M-138.641,53.545c0.886,0.133,1.896,0.339,2.911,0.339c6.225,0,10.554-4.736,10.554-11.363
			c0-4.53-2.026-10.149-10.146-10.149c-1.282,0-2.297,0.068-3.319,0.207V53.545z"/>
		<path fill="#FFFFFF" d="M-80.644,64.577c0,5.817,0.744,6.901,6.898,6.694v1.825h-20.694v-1.825c5.676,0.201,6.29-1.355,6.29-5.817
			V38.331c0-4.396-0.744-5.48-6.29-5.48v-1.825c1.553,0,5.008-0.269,9.674-0.473c3.591-0.133,6.904-0.133,8.25-0.133
			c13.667,0,18.333,5.95,18.333,12.107c0,5.008-2.847,8.661-8.522,11.023c1.081,0.744,3.992,3.588,5.073,4.668l4.4,4.397
			c6.018,6.018,10.619,8.723,16.235,9.332v1.893c-13.324,0.34-16.637-2.025-22.726-8.115l-3.585-3.584
			c-3.455-3.449-4.465-4.397-7.306-6.497c-1.967,0.133-4.264,0.207-6.024,0v8.933H-80.644z M-80.644,53.751
			c0.466,0.068,1.76,0.207,2.162,0.207c9-0.408,12.107-3.86,12.107-10.761c0-6.827-3.65-10.885-11.021-10.885
			c-1.01,0-2.64,0.133-3.248,0.266V53.751z"/>
		<path fill="#FFFFFF" d="M1.437,29.942c14.611,0,24.687,8.726,24.687,21.374c0,12.172-9.733,22.859-24.958,22.859
			c-14.139,0-24.421-8.859-24.421-20.966C-23.256,39.678-12.903,29.942,1.437,29.942z M2.252,72.016
			c9.402,0,15.692-7.645,15.692-19.008c0-12.24-7.099-20.901-17.045-20.901c-9.733,0-15.964,7.438-15.964,19.28
			C-15.071,64.976-6.335,72.016,2.252,72.016z"/>
		<path fill="#FFFFFF" d="M52.146,71.271c4.66-0.207,5.675-1.149,5.675-7.173V40.018c0-6.562-1.146-7.173-6.497-7.173V31.02
			c1.961,0,5.351-0.133,6.969-0.201c3.248-0.133,7.707-0.339,8.995-0.339c12.781,0,19.685,2.909,19.685,12.175
			c0,7.917-6.562,13.395-16.1,13.395c-1.825,0-3.656-0.133-5.545-0.475v9.263c0,5.206,1.353,6.364,7.642,6.429v1.825H52.146V71.271z
			 M65.328,53.545c0.88,0.133,1.89,0.339,2.899,0.339c6.225,0,10.554-4.736,10.554-11.363c0-4.53-2.026-10.149-10.146-10.149
			c-1.282,0-2.297,0.068-3.313,0.207v20.966H65.328z"/>
		<path fill="#FFFFFF" d="M108.855,73.096v-1.825c5.469,0,6.827-0.883,6.827-4.668V37.448c0-4.465-2.232-4.598-6.827-4.598v-1.825
			h34.562l0.608,10.146H142.2l-0.337-1.42c-1.358-5.545-2.439-5.678-6.768-5.678h-11.9v15.76h10.477
			c3.921,0,4.666-0.473,5.073-5.141h1.831v13.601h-1.831c-0.473-4.801-1.353-5.413-5.073-5.413h-10.477v12.314
			c0,4.19,0.537,4.866,3.98,4.866h7.512c6.828,0,8.186-0.942,10.011-7.571h1.825l-1.016,10.622h-36.652V73.096z"/>
		<path fill="#FFFFFF" d="M182.603,64.577c0,5.817,0.738,6.901,6.904,6.694v1.825h-20.7v-1.825c5.676,0.201,6.29-1.355,6.29-5.817
			V38.331c0-4.396-0.744-5.48-6.29-5.48v-1.825c1.553,0,5.002-0.269,9.674-0.473c3.585-0.133,6.898-0.133,8.251-0.133
			c13.666,0,18.326,5.95,18.326,12.107c0,5.008-2.841,8.661-8.517,11.023c1.081,0.744,3.986,3.588,5.073,4.668l4.394,4.397
			c6.024,6.018,10.619,8.723,16.242,9.332v1.893c-13.324,0.34-16.637-2.025-22.732-8.115l-3.585-3.584
			c-3.443-3.449-4.465-4.397-7.306-6.497c-1.961,0.133-4.264,0.207-6.018,0v8.933H182.603z M182.603,53.751
			c0.472,0.068,1.754,0.207,2.162,0.207c8.995-0.408,12.107-3.86,12.107-10.761c0-6.827-3.656-10.885-11.026-10.885
			c-1.016,0-2.634,0.133-3.242,0.266V53.751z"/>
		<path fill="#FFFFFF" d="M238.91,29.877h1.825c0.272,0.47,0.479,0.809,1.087,0.948c0.614,0.133,1.553,0.201,3.313,0.201h28.615
			c3.449,0,3.986-0.133,4.394-1.149h1.831l1.217,11.635h-1.961c-0.945-7.034-2.297-7.438-6.354-7.438h-9.68v31.859
			c0,4.601,0.744,5.345,7.843,5.345v1.828H247.84v-1.828c6.762,0,7.849-0.883,7.849-5.345V34.073h-9.674
			c-3.993,0-5.345,0.404-6.361,7.438h-1.961L238.91,29.877z"/>
		<path fill="#FFFFFF" d="M312.203,38.331c-3.39-4.869-4.258-5.274-8.458-5.48v-1.825h20.364v1.825
			c-3.656,0-4.737,0.744-4.737,1.961c0,0.883,0.543,2.025,2.303,4.536l8.859,12.645l7.713-12.24
			c1.553-2.504,2.227-3.854,2.227-4.801c0-1.488-1.282-2.1-4.329-2.1v-1.825h15.899v1.825c-4.938,0.538-6.16,1.42-10.483,8.389
			l-9.131,14.744v9.402c0,5.008,0.809,5.885,6.42,5.885v1.828h-20.429v-1.828c5.144,0,6.49-0.479,6.49-6.089v-8.587L312.203,38.331z
			"/>
		<path fill="#FFFFFF" d="M-213.871,172.616c-0.809-0.342-1.282-0.466-2.297-0.466c-3.042,0-7.713,1.547-13.466,1.547
			c-15.757,0-24.285-9.195-24.285-21.303c0-11.498,7.713-22.933,24.829-22.933c7.371,0,12.574,2.232,14.541,2.232
			c0.537,0,0.886-0.13,1.216-0.472h1.695l0.336,11.162h-2.026c-2.504-6.97-7.984-10.749-15.485-10.749
			c-10.152,0-16.909,7.571-16.909,19.005c0,11.842,7.772,20.63,18.125,20.63c6.632,0,12.515-3.515,16.3-9.94h2.026L-213.871,172.616
			z"/>
		<path fill="#FFFFFF" d="M-158.645,129.456c14.611,0,24.687,8.724,24.687,21.38c0,12.172-9.739,22.861-24.958,22.861
			c-14.133,0-24.421-8.87-24.421-20.978C-183.332,139.195-172.985,129.456-158.645,129.456z M-157.836,171.53
			c9.408,0,15.698-7.648,15.698-19.012c0-12.236-7.105-20.895-17.051-20.895c-9.739,0-15.958,7.436-15.958,19.276
			C-175.146,164.496-166.423,171.53-157.836,171.53z"/>
		<path fill="#FFFFFF" d="M-98.882,138.18v25.974c0,5.28,0.679,6.969,6.762,6.633v1.83h-16.165v-1.83
			c4.867,0.136,5.676-1.412,5.676-5.812v-30.439c-1.624-1.423-3.113-1.967-5.676-2.167v-1.825h12.243l30.162,31.862v-24.214
			c0-5.079-0.809-5.889-6.691-5.823v-1.825h16.377v1.825c-4.536,0-5.953,0.814-5.953,5.953v34.697h-3.65L-98.882,138.18z"/>
		<path fill="#FFFFFF" d="M-30.869,161.52h2.032c1.689,6.225,5.888,9.739,11.706,9.739c4.932,0,8.387-2.9,8.387-6.964
			c0-9.461-21.303-13.188-21.303-24.964c0-5.812,5.145-9.875,12.385-9.875c2.227,0,3.851,0.271,5.197,0.544
			c1.364,0.271,2.439,0.543,3.585,0.543c0.886,0,1.364-0.194,1.896-0.815h1.689l1.488,10.483h-2.025
			c-2.038-5.351-6.225-8.587-11.026-8.587c-4.329,0-6.633,2.568-6.633,5.539c0,9.072,21.374,11.771,21.374,24.829
			c0,6.957-5.889,11.705-14.541,11.705c-5.079,0-7.176-1.229-9.06-1.229c-0.821,0-1.358,0.213-1.836,0.744h-1.619L-30.869,161.52z"
			/>
		<path fill="#FFFFFF" d="M22.799,130.543h19.207v1.825c-4.997,0-5.947,1.087-5.947,5.823v18.196
			c0,8.994,6.024,13.116,14.475,13.116c7.513,0,14.547-3.242,14.547-13.253v-18.06c0-5.28-1.016-5.812-6.497-5.812v-1.831h16.371
			v1.831c-5.138,0-6.154,1.081-6.154,5.812v18.804c0,10.619-8.192,16.714-20.506,16.714c-12.851,0-19.75-6.165-19.75-17.186v-19.006
			c0-4.134-1.081-5.149-5.747-5.149V130.543z"/>
		<path fill="#FFFFFF" d="M97.438,172.616v-1.83c5.416,0,6.562-0.473,6.562-5.812V138.18c0-4.595-0.467-5.947-6.562-5.812v-1.831
			h22.189v1.831c-7.306,0-8.121,0.26-8.121,5.339v28.549c0,2.771,0.543,3.313,3.656,3.313h6.957c5.752,0,6.166-0.271,11.233-7.176
			h2.026l-5.209,10.217H97.438V172.616z"/>
		<path fill="#FFFFFF" d="M151.242,129.392h1.825c0.271,0.473,0.478,0.809,1.086,0.944c0.614,0.13,1.559,0.201,3.319,0.201h28.608
			c3.449,0,3.986-0.13,4.4-1.146h1.825l1.216,11.635h-1.96c-0.945-7.034-2.298-7.441-6.355-7.441h-9.68v31.868
			c0,4.595,0.744,5.339,7.843,5.339v1.83h-23.199v-1.83c6.763,0,7.849-0.874,7.849-5.339v-31.868h-9.674
			c-3.993,0-5.345,0.407-6.361,7.441h-1.961L151.242,129.392z"/>
		<path fill="#FFFFFF" d="M210.869,170.786c4.53-0.065,5.416-0.81,7.3-6.083l12.243-33.563l-0.537-1.684h7.577l13.188,35.247
			c1.961,5.273,2.646,6.083,6.904,6.083v1.83h-20.086v-1.83c5.339,0,6.828-0.544,6.828-2.504c0-0.668-0.266-1.819-0.945-3.579
			l-3.248-8.393h-15.485l-3.319,8.988c-0.473,1.288-0.673,2.168-0.673,2.847c0,1.961,1.358,2.841,6.762,2.641v1.83h-16.507V170.786z
			 M238.804,152.927l-6.491-17.109l-6.426,17.109H238.804z"/>
		<path fill="#FFFFFF" d="M289.702,138.18v25.974c0,5.28,0.679,6.969,6.768,6.633v1.83H280.3v-1.83
			c4.872,0.136,5.681-1.412,5.681-5.812v-30.439c-1.624-1.423-3.112-1.967-5.681-2.167v-1.825h12.243l30.162,31.862v-24.214
			c0-5.079-0.809-5.889-6.686-5.823v-1.825h16.365v1.825c-4.53,0-5.953,0.814-5.953,5.953v34.697h-3.65L289.702,138.18z"/>
		<path fill="#FFFFFF" d="M356.97,129.392h1.831c0.271,0.473,0.473,0.809,1.087,0.944c0.608,0.13,1.553,0.201,3.313,0.201h28.614
			c3.443,0,3.98-0.13,4.394-1.146h1.825l1.217,11.635h-1.961c-0.939-7.034-2.297-7.441-6.354-7.441h-9.674v31.868
			c0,4.595,0.744,5.339,7.843,5.339v1.83h-23.199v-1.83c6.763,0,7.85-0.874,7.85-5.339v-31.868h-9.68
			c-3.986,0-5.346,0.407-6.361,7.441h-1.96L356.97,129.392z"/>
		<path fill="#FFFFFF" d="M424.31,161.52h2.032c1.683,6.225,5.882,9.739,11.699,9.739c4.938,0,8.387-2.9,8.387-6.964
			c0-9.461-21.297-13.188-21.297-24.964c0-5.812,5.139-9.875,12.379-9.875c2.232,0,3.851,0.271,5.203,0.544
			c1.358,0.271,2.434,0.543,3.585,0.543c0.88,0,1.358-0.194,1.89-0.815h1.689l1.488,10.483h-2.025
			c-2.032-5.351-6.226-8.587-11.026-8.587c-4.329,0-6.627,2.568-6.627,5.539c0,9.072,21.374,11.771,21.374,24.829
			c0,6.957-5.895,11.705-14.547,11.705c-5.073,0-7.176-1.229-9.06-1.229c-0.815,0-1.353,0.213-1.831,0.744H426L424.31,161.52z"/>
	</g>
</g>
</svg>
