<?xml version="1.0" encoding="utf-8"?>
<!-- Generator: Adobe Illustrator 16.0.0, SVG Export Plug-In . SVG Version: 6.00 Build 0)  -->
<!DOCTYPE svg PUBLIC "-//W3C//DTD SVG 1.1//EN" "http://www.w3.org/Graphics/SVG/1.1/DTD/svg11.dtd">
<svg version="1.1" id="Layer_1" xmlns="http://www.w3.org/2000/svg" xmlns:xlink="http://www.w3.org/1999/xlink" x="0px" y="0px"
	 width="842.38px" height="270.533px" viewBox="0 0 842.38 270.533" enable-background="new 0 0 842.38 270.533"
	 xml:space="preserve">
<g>
	<defs>
		<rect id="SVGID_1_" width="842.38" height="270.533"/>
	</defs>
	<clipPath id="SVGID_2_">
		<use xlink:href="#SVGID_1_"  overflow="visible"/>
	</clipPath>
	<g clip-path="url(#SVGID_2_)">
		<defs>
			<rect id="SVGID_3_" width="626.203" height="225.218"/>
		</defs>
		<clipPath id="SVGID_4_">
			<use xlink:href="#SVGID_3_"  overflow="visible"/>
		</clipPath>
		<path clip-path="url(#SVGID_4_)" fill="#FFFFFF" d="M337.978,115.697c13.516-4.417,23.508-13.436,23.508-24.246
			c0-9.197-3.537-16.351-14.063-20.714c-8.028-3.297-19.954-3.159-28.72-3.159h-50.429v90.069l32.714-0.021V80.859h7.424
			c12.25,0,19.336,4.492,19.336,14.12c0,14.604-21.997,22.335-21.997,22.335c8.584,12.569,17.186,24.001,22.269,29.409
			c9.384,9.938,16.324,12.733,29.479,12.733c7.282,0,14.542-0.436,23.966-1.83C368.404,149.691,344.852,123.908,337.978,115.697"/>
		<path clip-path="url(#SVGID_4_)" fill="#FFFFFF" d="M170.218,120.207c0,0,7.098,0.947,16.354,7.767
			c9.877,7.251,16.866,5.714,21.603,1.991c5.42-4.248,4.522-9.255,4.522-9.255s-6.784,3.159-12.871,3.234
			c-7.354,0.084-10.215-1.604-15.053-3.155C177.642,118.519,170.218,120.207,170.218,120.207 M225.227,112.525
			c0,42.422-23.402,79.348-57.998,98.604c0.804-3.981,2.762-20.944-17.543-43.488c-16.083-17.813-42.227-22.122-49.1-46.901
			c-6.271-22.575,4.512-40.294,4.512-40.294s-10.833-2.39-10.833-15.244c0-8.246,6.134-12.769,6.218-12.72
			c-0.717,1.768-1.104,3.701-1.104,5.723c0,8.535,6.897,15.466,15.451,15.466c1.22,0,2.397-0.146,3.53-0.4
			c-1.259,2.021-27.567,45.261,29.608,72.319c8.382-2.527,18.532,0.44,24.806,10.917c0,0,12.069-8.966,9.675-25.93
			c-3.023,3.146-7.082,6.069-11.803,6.069c-9.26,0-16.995-7.211-16.995-16.479c0-9.241,7.494-16.754,16.744-16.754
			c7.771,0,13.991,5.447,15.888,12.618c10.201-6.927,10.863-15.946,10.863-15.946s6.354-2.2,8.766-7.273
			c0.622-1.289-0.685-2.182-0.685-2.182s-20.136-9.526-37.195-17.51c-1.533-0.702,1.193-2.915,2.453-5.252
			c2.617-4.94-15.055-12.725-24.477-14.96l16.565-41.387C199.724,29.938,225.227,68.25,225.227,112.525 M112.604,225.218
			c-2.419,0-4.832-0.063-7.22-0.223c0.782-2.257,2.957-10.152,0.782-23.184c-4.581-27.631-20.691-35.064-27.833-49.815
			c0,0-2.912,7.047-3.981,16.159c0,0-9.282-6.442-10.743-24.339c-0.986-12.521,4.823-43.235,30.453-56.302
			c0,0-25.561,27.404-10.839,52.623c0,0,2.075-4.55,5.292-8.22c0,0,1.546,9.682,17.704,24.095
			c12.552,11.201,35.269,30.106,32.008,66.291C129.99,224.218,121.446,225.218,112.604,225.218 M118.894,0
			c11.346,0.635,22.284,2.928,32.517,6.696c-1.602,7.5-8.253,13.409-16.193,13.409c-9.155,0-16.51-7.26-16.51-16.391
			C118.707,2.831,118.77,1.128,118.894,0 M73.05,6.998c10.241-3.861,21.229-6.26,32.667-6.958c0.14,1.182,0.218,2.692,0.218,3.652
			c0,9.139-7.416,16.555-16.575,16.555C81.395,20.247,74.621,14.52,73.05,6.998 M0,112.525C0,68.574,25.166,30.501,61.836,11.921
			l16.546,41.213c-7.471,2.333-30.515,8.575-47.547,31.986c0,0,9.525-2.564,16.323,1.528c0,0-18.989,14.227-26.994,34.687
			c0,0-3.812,61.394,50.829,95.926C29.411,200.707,0,160.052,0,112.525"/>
		<path clip-path="url(#SVGID_4_)" fill="#FFFFFF" d="M150.915,75.838c4.128,0,7.645-2.786,8.873-6.638c0,0-3.895-1.995-8.504-3.932
			c-4.367-1.839-9.03-2.893-9.03-2.893C139.409,70.564,145.729,75.838,150.915,75.838"/>
		<path clip-path="url(#SVGID_4_)" fill="#FFFFFF" d="M528.509,138.783c-8.428,3.217-17.656,5.097-27.693,5.097
			c-15.426,0-38.223-7.683-38.223-31.853c0-18.967,13.84-32.092,36.14-32.092c8.797,0,18.972,1.479,29.776,7.082V71.125
			c-7.504-3.301-19.624-5.554-32.549-5.554c-40.508,0-67.49,18.274-67.49,47.852c0,28.351,26.374,46.198,68.383,46.198
			c10.108,0,21.824-1.785,31.656-5.256"/>
		<path clip-path="url(#SVGID_4_)" fill="#FFFFFF" d="M540.306,138.427c11.09,5.59,21.104,7.225,33.972,7.225
			c8.033,0,18.909-2.043,18.909-9.717c0-9.13-14.604-10.752-30.154-15.875c-12.578-4.159-23.509-12.049-23.509-26.44
			c0-17.875,16.03-28.04,44.28-28.04c10.289,0,21.642,1.497,31.008,4.412v15.91c-7.718-3.781-17.155-6.633-26.179-6.633
			c-6.972,0-15.537,2.324-15.537,8.762c0,8.184,15.306,10.228,28.755,14.667c16.635,5.5,24.353,12.698,24.353,27.338
			c0,11.281-8.117,29.591-48.896,29.591c-11.792,0-25.912-1.941-36.979-5.229"/>
		<rect x="385.741" y="67.583" clip-path="url(#SVGID_4_)" fill="#FFFFFF" width="32.696" height="90.038"/>
	</g>
</g>
</svg>
