<svg xmlns="http://www.w3.org/2000/svg" xmlns:xlink="http://www.w3.org/1999/xlink" width="842.38" height="270.533" viewBox="0 0 842.38 270.533"><defs><path id="a" d="M0 0h842.38v270.533H0z"/></defs><clipPath id="b"><use xlink:href="#a" overflow="visible"/></clipPath><g clip-path="url(#b)"><defs><path id="c" d="M0 0h626.203v225.218H0z"/></defs><clipPath id="d"><use xlink:href="#c" overflow="visible"/></clipPath><path clip-path="url(#d)" fill="#FFF" d="M337.978 115.697c13.516-4.417 23.508-13.436 23.508-24.246 0-9.196-3.537-16.35-14.063-20.713-8.028-3.297-19.954-3.16-28.72-3.16h-50.43v90.07l32.715-.02V80.858h7.424c12.25 0 19.336 4.49 19.336 14.12 0 14.603-21.997 22.334-21.997 22.334 8.585 12.57 17.187 24 22.27 29.41 9.384 9.937 16.324 12.732 29.48 12.732 7.28 0 14.54-.436 23.965-1.83-13.06-7.935-36.613-33.718-43.487-41.93M170.218 120.207s7.098.947 16.354 7.767c9.877 7.25 16.866 5.714 21.603 1.99 5.42-4.247 4.522-9.254 4.522-9.254s-6.784 3.16-12.87 3.234c-7.355.084-10.216-1.604-15.054-3.155-7.13-2.27-14.555-.583-14.555-.583m55.01-7.682c0 42.422-23.403 79.348-58 98.604.805-3.982 2.763-20.945-17.542-43.49-16.083-17.812-42.227-22.12-49.1-46.9-6.27-22.575 4.512-40.294 4.512-40.294s-10.833-2.39-10.833-15.244c0-8.246 6.134-12.77 6.218-12.72-.717 1.768-1.104 3.7-1.104 5.723 0 8.535 6.896 15.466 15.45 15.466 1.22 0 2.397-.145 3.53-.4-1.26 2.022-27.567 45.262 29.608 72.32 8.382-2.527 18.532.44 24.806 10.917 0 0 12.07-8.966 9.675-25.93-3.024 3.146-7.083 6.07-11.804 6.07-9.26 0-16.995-7.212-16.995-16.48 0-9.24 7.495-16.754 16.745-16.754 7.77 0 13.99 5.447 15.888 12.618 10.2-6.926 10.863-15.945 10.863-15.945s6.354-2.2 8.766-7.273c.622-1.29-.685-2.182-.685-2.182s-20.136-9.526-37.195-17.51c-1.533-.702 1.193-2.915 2.453-5.252 2.617-4.94-15.055-12.725-24.477-14.96l16.565-41.387c37.15 18.418 62.654 56.73 62.654 101.005M112.604 225.218c-2.42 0-4.832-.063-7.22-.223.782-2.257 2.957-10.152.782-23.184-4.58-27.63-20.69-35.063-27.833-49.814 0 0-2.912 7.047-3.98 16.16 0 0-9.283-6.443-10.744-24.34-.987-12.52 4.822-43.235 30.452-56.302 0 0-25.56 27.404-10.84 52.623 0 0 2.076-4.55 5.293-8.22 0 0 1.546 9.682 17.704 24.095 12.55 11.2 35.268 30.106 32.007 66.29-8.237 1.916-16.78 2.916-25.623 2.916M118.894 0c11.346.635 22.284 2.928 32.517 6.696-1.6 7.5-8.252 13.41-16.192 13.41-9.155 0-16.51-7.26-16.51-16.392 0-.883.062-2.586.186-3.714M73.05 6.998C83.29 3.138 94.28.738 105.717.04c.14 1.182.218 2.692.218 3.652 0 9.14-7.416 16.555-16.575 16.555-7.965 0-14.74-5.727-16.31-13.25M0 112.526C0 68.575 25.166 30.5 61.836 11.92l16.546 41.214c-7.47 2.333-30.515 8.575-47.547 31.986 0 0 9.525-2.564 16.323 1.528 0 0-18.99 14.227-26.994 34.687 0 0-3.812 61.394 50.83 95.926C29.41 200.708 0 160.053 0 112.526"/><path clip-path="url(#d)" fill="#FFF" d="M150.915 75.838c4.128 0 7.645-2.786 8.873-6.638 0 0-3.895-1.995-8.504-3.932-4.367-1.84-9.03-2.893-9.03-2.893-2.845 8.19 3.475 13.463 8.66 13.463M528.51 138.783c-8.43 3.217-17.657 5.097-27.694 5.097-15.426 0-38.223-7.683-38.223-31.853 0-18.967 13.84-32.092 36.14-32.092 8.797 0 18.972 1.48 29.776 7.082V71.125c-7.505-3.3-19.625-5.554-32.55-5.554-40.508 0-67.49 18.275-67.49 47.853 0 28.35 26.374 46.198 68.383 46.198 10.108 0 21.824-1.784 31.656-5.255M540.306 138.427c11.09 5.59 21.104 7.225 33.972 7.225 8.033 0 18.91-2.043 18.91-9.717 0-9.13-14.605-10.752-30.155-15.875-12.578-4.16-23.51-12.05-23.51-26.44 0-17.875 16.03-28.04 44.28-28.04 10.29 0 21.643 1.497 31.01 4.412v15.91c-7.72-3.78-17.156-6.633-26.18-6.633-6.972 0-15.537 2.323-15.537 8.76 0 8.185 15.306 10.23 28.755 14.668 16.636 5.5 24.354 12.698 24.354 27.338 0 11.28-8.117 29.59-48.896 29.59-11.792 0-25.912-1.94-36.98-5.228M385.74 67.583h32.697v90.038H385.74z"/></g></svg>