<?xml version="1.0" encoding="utf-8"?>
<!-- Generator: Adobe Illustrator 15.1.0, SVG Export Plug-In . SVG Version: 6.00 Build 0)  -->
<!DOCTYPE svg PUBLIC "-//W3C//DTD SVG 1.1//EN" "http://www.w3.org/Graphics/SVG/1.1/DTD/svg11.dtd">
<svg version="1.1" id="Layer_1" xmlns="http://www.w3.org/2000/svg" xmlns:xlink="http://www.w3.org/1999/xlink" x="0px" y="0px"
	 width="425.5px" height="134.5px" viewBox="0 0 425.5 134.5" enable-background="new 0 0 425.5 134.5" xml:space="preserve">
<g>
	<line fill="none" stroke="#646568" stroke-width="0.6374" stroke-miterlimit="10" x1="154" y1="67.5" x2="413.667" y2="67.45"/>
	
		<line fill="none" stroke="#646568" stroke-width="0.637" stroke-miterlimit="10" x1="261.898" y1="79.146" x2="261.898" y2="93.637"/>
</g>
<g>
	<circle fill="#646568" cx="66.465" cy="67.465" r="57.965"/>
</g>
<g>
	<path fill="#FFFFFF" d="M28.102,74.71l-7.363-20.497c-0.094-0.281-0.235-0.656-0.235-0.984c0-0.891,0.751-1.735,1.83-1.735
		c0.937,0,1.547,0.61,1.829,1.501l6.097,18.197l6.144-18.244c0.281-0.844,0.844-1.454,1.782-1.454h0.188
		c0.985,0,1.595,0.61,1.876,1.454l6.097,18.244L52.538,52.9c0.234-0.75,0.75-1.407,1.735-1.407c1.031,0,1.782,0.798,1.782,1.688
		c0,0.328-0.141,0.704-0.235,0.985l-7.41,20.543c-0.375,1.077-1.126,1.641-1.97,1.641H46.3c-0.938,0-1.642-0.563-1.97-1.641
		l-6.05-17.682L32.183,74.71c-0.329,1.077-1.032,1.641-1.97,1.641h-0.094C29.228,76.351,28.478,75.788,28.102,74.71z"/>
	<path fill="#FFFFFF" d="M82.36,74.381c0,1.032-0.798,1.828-1.782,1.828c-1.032,0-1.829-0.796-1.829-1.828v-3.282
		c-1.97,2.907-4.831,5.393-9.287,5.393c-5.815,0-11.585-4.595-11.585-12.569v-0.094c0-7.927,5.77-12.616,11.585-12.616
		c4.502,0,7.41,2.439,9.287,5.159V43.333c0-1.031,0.75-1.829,1.782-1.829c1.032,0,1.83,0.798,1.83,1.829V74.381z M61.583,63.782
		v0.094c0,5.723,3.987,9.381,8.537,9.381c4.502,0,8.77-3.799,8.77-9.381v-0.094c0-5.582-4.268-9.333-8.77-9.333
		C65.429,54.449,61.583,57.919,61.583,63.782z"/>
	<path fill="#FFFFFF" d="M88.077,43.333c0-1.031,0.797-1.829,1.783-1.829c1.031,0,1.829,0.798,1.829,1.829v13.274
		c1.97-2.908,4.831-5.394,9.286-5.394c5.816,0,11.584,4.596,11.584,12.569v0.094c0,7.926-5.722,12.616-11.584,12.616
		c-4.502,0-7.41-2.439-9.286-5.159v3.049c0,0.984-0.75,1.828-1.782,1.828c-1.032,0-1.829-0.844-1.829-1.828V43.333z M108.854,63.923
		v-0.094c0-5.722-3.939-9.38-8.536-9.38c-4.502,0-8.771,3.799-8.771,9.333v0.094c0,5.628,4.268,9.381,8.771,9.381
		C105.008,73.256,108.854,69.786,108.854,63.923z"/>
</g>
<g>
	<path fill="#FFFFFF" d="M30.499,89.982c0-0.322,0.246-0.568,0.566-0.568h1.957c1.499,0,2.431,0.85,2.431,2.141v0.018
		c0,1.434-1.151,2.186-2.56,2.186h-1.271v1.545c0,0.311-0.247,0.557-0.558,0.557c-0.32,0-0.566-0.246-0.566-0.557V89.982z
		 M32.931,92.742c0.851,0,1.38-0.475,1.38-1.143v-0.018c0-0.75-0.54-1.145-1.38-1.145h-1.308v2.305H32.931z"/>
	<path fill="#FFFFFF" d="M39.529,89.982c0-0.322,0.247-0.568,0.567-0.568h2.286c0.805,0,1.435,0.238,1.847,0.639
		c0.339,0.35,0.53,0.824,0.53,1.381v0.02c0,1.023-0.594,1.645-1.454,1.91l1.226,1.545c0.109,0.137,0.183,0.258,0.183,0.43
		c0,0.312-0.265,0.521-0.539,0.521c-0.256,0-0.421-0.119-0.549-0.291l-1.554-1.986h-1.417v1.721c0,0.311-0.247,0.557-0.558,0.557
		c-0.32,0-0.567-0.246-0.567-0.557V89.982z M42.299,92.586c0.805,0,1.317-0.42,1.317-1.07v-0.018c0-0.686-0.494-1.061-1.326-1.061
		h-1.636v2.148H42.299z"/>
	<path fill="#FFFFFF" d="M48.779,92.631v-0.018c0-1.801,1.389-3.309,3.355-3.309c1.966,0,3.337,1.488,3.337,3.291v0.018
		c0,1.801-1.39,3.311-3.355,3.311C50.15,95.924,48.779,94.434,48.779,92.631z M54.292,92.631v-0.018
		c0-1.242-0.905-2.275-2.176-2.275s-2.158,1.014-2.158,2.258v0.018c0,1.242,0.905,2.268,2.176,2.268S54.292,93.875,54.292,92.631z"
		/>
	<path fill="#FFFFFF" d="M59.756,89.982c0-0.322,0.247-0.568,0.567-0.568h1.957c1.499,0,2.432,0.85,2.432,2.141v0.018
		c0,1.434-1.152,2.186-2.561,2.186H60.88v1.545c0,0.311-0.247,0.557-0.557,0.557c-0.32,0-0.567-0.246-0.567-0.557V89.982z
		 M62.188,92.742c0.851,0,1.381-0.475,1.381-1.143v-0.018c0-0.75-0.54-1.145-1.381-1.145H60.88v2.305H62.188z"/>
	<path fill="#FFFFFF" d="M68.787,95.246v-5.264c0-0.322,0.246-0.568,0.566-0.568h3.721c0.274,0,0.502,0.229,0.502,0.502
		c0,0.283-0.228,0.504-0.502,0.504h-3.164v1.664h2.752c0.275,0,0.503,0.229,0.503,0.512c0,0.273-0.228,0.494-0.503,0.494h-2.752
		v1.717h3.209c0.274,0,0.503,0.23,0.503,0.504c0,0.283-0.229,0.504-0.503,0.504h-3.767C69.033,95.814,68.787,95.568,68.787,95.246z"
		/>
	<path fill="#FFFFFF" d="M77.836,89.982c0-0.322,0.246-0.568,0.567-0.568h2.285c0.805,0,1.436,0.238,1.847,0.639
		c0.339,0.35,0.53,0.824,0.53,1.381v0.02c0,1.023-0.594,1.645-1.453,1.91l1.225,1.545c0.11,0.137,0.183,0.258,0.183,0.43
		c0,0.312-0.265,0.521-0.54,0.521c-0.256,0-0.421-0.119-0.548-0.291l-1.555-1.986H78.96v1.721c0,0.311-0.247,0.557-0.557,0.557
		c-0.321,0-0.567-0.246-0.567-0.557V89.982z M80.606,92.586c0.805,0,1.316-0.42,1.316-1.07v-0.018c0-0.686-0.494-1.061-1.326-1.061
		H78.96v2.148H80.606z"/>
	<path fill="#FFFFFF" d="M88.914,90.457h-1.554c-0.292,0-0.521-0.238-0.521-0.521s0.229-0.521,0.521-0.521h4.252
		c0.283,0,0.511,0.238,0.511,0.521s-0.228,0.521-0.511,0.521h-1.563v4.846c0,0.311-0.256,0.557-0.567,0.557
		s-0.567-0.246-0.567-0.557V90.457z"/>
	<path fill="#FFFFFF" d="M97.991,93.328l-2.203-3.027c-0.074-0.109-0.128-0.238-0.128-0.393c0-0.301,0.248-0.539,0.567-0.539
		c0.247,0,0.412,0.137,0.549,0.336l1.783,2.57l1.811-2.578c0.137-0.201,0.302-0.34,0.539-0.34c0.329,0,0.549,0.25,0.549,0.551
		c0,0.154-0.074,0.291-0.156,0.4l-2.185,2.99v2.004c0,0.311-0.247,0.557-0.567,0.557c-0.311,0-0.558-0.246-0.558-0.557V93.328z"/>
</g>
<g>
	<path fill="#646568" d="M156.312,43.999c-0.815-1.771-1.165-1.958-2.936-1.958v-0.629h6.757v0.629
		c-1.188,0.047-1.515,0.187-1.515,0.769c0,0.443,0.443,1.491,0.769,2.167l4.054,8.598l2.446-5.056l-2.144-4.52
		c-0.885-1.888-1.095-1.98-2.633-1.958v-0.629h10.928v0.629c-1.607,0.023-1.841,0.21-2.703,1.958l-1.515,3.029l3.146,6.478
		l4.031-9.623c0.28-0.652,0.35-0.955,0.35-1.142c0-0.513-0.442-0.699-1.701-0.699v-0.629h5.033v0.629
		c-1.305,0.023-1.701,0.093-2.703,2.493l-4.917,11.744h-1.491l-3.052-6.431l-3.076,6.431h-1.445L156.312,43.999z M168.381,43.253
		c0.187-0.373,0.256-0.629,0.256-0.792c0-0.303-0.233-0.419-1.002-0.419h-0.862c-0.815,0-1.025,0.093-1.025,0.396
		c0,0.233,0.093,0.512,0.35,1.048l1.095,2.237L168.381,43.253z"/>
	<path fill="#646568" d="M191.226,41.413h6.501v0.629c-1.562,0-2.004,0.35-2.004,2.004v9.064c0,1.748,0.326,2.213,2.004,2.167v0.629
		h-6.501v-0.629c1.841,0.046,1.911-0.676,1.911-2.004v-9.483c0-1.258-0.303-1.771-1.911-1.748V41.413z"/>
	<path fill="#646568" d="M210.359,55.905v-0.629c1.864,0,2.26-0.163,2.26-2.004v-9.227c0-1.584-0.163-2.05-2.26-2.004v-0.629h7.643
		v0.629c-2.516,0-2.796,0.093-2.796,1.841v9.833c0,0.956,0.187,1.142,1.258,1.142h2.4c1.98,0,2.12-0.093,3.868-2.47h0.699
		l-1.795,3.519H210.359z"/>
	<path fill="#646568" d="M235.227,55.905v-0.629c1.865,0,2.261-0.163,2.261-2.004v-9.227c0-1.584-0.163-2.05-2.261-2.004v-0.629
		h7.643v0.629c-2.516,0-2.795,0.093-2.795,1.841v9.833c0,0.956,0.186,1.142,1.258,1.142h2.4c1.98,0,2.119-0.093,3.867-2.47h0.699
		l-1.795,3.519H235.227z"/>
	<path fill="#646568" d="M260.375,41.413h6.5v0.629c-1.561,0-2.004,0.35-2.004,2.004v9.064c0,1.748,0.326,2.213,2.004,2.167v0.629
		h-6.5v-0.629c1.84,0.046,1.91-0.676,1.91-2.004v-9.483c0-1.258-0.303-1.771-1.91-1.748V41.413z"/>
	<path fill="#646568" d="M279.275,55.276c1.561-0.023,1.863-0.28,2.516-2.097l4.219-11.557l-0.188-0.583h2.609l4.545,12.14
		c0.676,1.817,0.908,2.097,2.377,2.097v0.629h-6.922v-0.629c1.842,0,2.354-0.187,2.354-0.862c0-0.233-0.092-0.629-0.326-1.235
		l-1.117-2.889h-5.336l-1.143,3.099c-0.162,0.443-0.232,0.746-0.232,0.979c0,0.675,0.467,0.979,2.33,0.909v0.629h-5.686V55.276z
		 M288.898,49.125l-2.236-5.895l-2.215,5.895H288.898z"/>
	<path fill="#646568" d="M307.453,55.276c1.445,0,1.863-0.256,2.004-2.284l0.559-8.574c0.141-2.074-0.115-2.377-1.467-2.377v-0.629
		h4.311l5.031,10.788l4.754-10.788h4.311v0.629c-1.305,0-1.584,0.28-1.49,1.352l0.838,10.602c0.094,1.188,0.535,1.282,1.91,1.282
		v0.629h-6.617v-0.629c1.912,0,2.238-0.466,2.051-2.936l-0.629-8.598h-0.047l-5.383,12.163h-0.791l-5.477-11.86h-0.047l-0.559,8.621
		c-0.162,2.493,0.373,2.493,1.91,2.61v0.629h-5.172V55.276z"/>
	<path fill="#646568" d="M341.223,52.084h0.699c0.582,2.144,2.027,3.355,4.031,3.355c1.701,0,2.889-1.002,2.889-2.4
		c0-3.262-7.34-4.544-7.34-8.598c0-2.003,1.771-3.402,4.266-3.402c0.768,0,1.328,0.093,1.793,0.187
		c0.467,0.093,0.84,0.187,1.234,0.187c0.305,0,0.467-0.07,0.652-0.28h0.584l0.512,3.612h-0.699
		c-0.699-1.841-2.143-2.959-3.797-2.959c-1.492,0-2.283,0.886-2.283,1.911c0,3.123,7.361,4.054,7.361,8.551
		c0,2.4-2.025,4.031-5.008,4.031c-1.748,0-2.471-0.419-3.123-0.419c-0.279,0-0.467,0.07-0.629,0.256h-0.559L341.223,52.084z"/>
	<path fill="#646568" d="M373.453,41.04c5.033,0,8.506,3.006,8.506,7.363c0,4.194-3.355,7.875-8.598,7.875
		c-4.871,0-8.412-3.053-8.412-7.223C364.949,44.395,368.514,41.04,373.453,41.04z M373.732,55.532c3.24,0,5.406-2.633,5.406-6.547
		c0-4.218-2.445-7.2-5.871-7.2c-3.355,0-5.5,2.563-5.5,6.641C367.768,53.109,370.773,55.532,373.732,55.532z"/>
	<path fill="#646568" d="M398.463,44.045v8.947c0,1.817,0.232,2.4,2.33,2.284v0.629h-5.57v-0.629
		c1.678,0.046,1.959-0.489,1.959-2.004V42.787c-0.561-0.489-1.072-0.676-1.959-0.746v-0.629h4.219l10.391,10.974v-8.341
		c0-1.748-0.279-2.027-2.307-2.004v-0.629h5.639v0.629c-1.561,0-2.049,0.28-2.049,2.051v11.953h-1.26L398.463,44.045z"/>
</g>
<g>
	<path fill="#646568" d="M155.753,81.824c0-1.701-0.443-2.074-2.213-2.051v-0.629c0.675,0,2.679-0.093,3.658-0.14
		c1.258-0.047,2.447-0.047,3.332-0.047c3.519,0,6.058,0.629,7.479,2.05c1.444,1.445,2.004,3.216,2.004,4.963
		c0,3.425-2.4,7.665-9.227,7.665h-7.246v-0.629c1.98,0,2.213-0.326,2.213-1.887V81.824z M158.339,91.307
		c0,1.469,0.209,1.678,1.724,1.678c2.796,0,4.241-0.605,5.312-1.678c1.421-1.421,1.817-3.378,1.817-5.009
		c0-1.678-0.373-3.565-1.794-4.986c-1.165-1.165-2.633-1.701-5.359-1.701c-0.396,0-1.118,0-1.701,0.047V91.307z"/>
	<path fill="#646568" d="M181.415,93.008c1.561-0.023,1.864-0.279,2.517-2.097l4.217-11.557l-0.187-0.583h2.61l4.543,12.14
		c0.676,1.817,0.909,2.097,2.376,2.097v0.629h-6.92v-0.629c1.84,0,2.353-0.186,2.353-0.861c0-0.233-0.093-0.629-0.326-1.235
		l-1.118-2.89h-5.336l-1.142,3.1c-0.163,0.442-0.233,0.745-0.233,0.979c0,0.676,0.466,0.979,2.33,0.908v0.629h-5.686V93.008z
		 M191.038,86.857l-2.237-5.896l-2.213,5.896H191.038z"/>
	<path fill="#646568" d="M222.971,93.637c-0.279-0.116-0.443-0.162-0.792-0.162c-1.048,0-2.656,0.535-4.637,0.535
		c-5.429,0-8.365-3.168-8.365-7.34c0-3.961,2.656-7.898,8.551-7.898c2.54,0,4.333,0.769,5.009,0.769
		c0.187,0,0.304-0.046,0.419-0.163h0.583l0.116,3.845h-0.699c-0.861-2.4-2.749-3.706-5.335-3.706c-3.495,0-5.825,2.61-5.825,6.547
		c0,4.078,2.68,7.107,6.245,7.107c2.283,0,4.31-1.213,5.615-3.426h0.699L222.971,93.637z"/>
	<path fill="#646568" d="M236.889,93.637v-0.629c1.887,0,2.354-0.303,2.354-1.607V81.358c0-1.538-0.77-1.584-2.354-1.584v-0.629
		h11.906l0.209,3.495h-0.629l-0.117-0.489c-0.465-1.911-0.838-1.958-2.328-1.958h-4.102v5.429h3.611
		c1.352,0,1.607-0.163,1.748-1.771h0.629v4.684h-0.629c-0.164-1.654-0.467-1.865-1.748-1.865h-3.611v4.241
		c0,1.444,0.186,1.678,1.375,1.678h2.586c2.354,0,2.818-0.326,3.449-2.61h0.629l-0.35,3.658H236.889z"/>
</g>
<g>
	<path fill="#646568" d="M276.289,82.126c0-1.561-0.162-2.354-1.771-2.354h-0.792v-0.629c0.746,0,2.144-0.046,3.215-0.093
		c0.886-0.046,2.283-0.093,3.1-0.093c3.984,0,6.617,0.769,6.617,3.402c0,1.514-1.049,2.633-2.773,2.982v0.047
		c2.307,0.629,3.611,2.026,3.611,3.914c0,2.354-1.863,4.334-5.871,4.334h-7.898v-0.629c2.051,0,2.562-0.326,2.562-1.608V82.126z
		 M278.875,85.154h1.701c2.214,0,3.355-0.814,3.355-2.539c0-1.748-1.002-3.006-3.682-3.006c-0.488,0-0.861,0.023-1.375,0.093V85.154
		z M278.875,90.234c0,1.794,0.49,2.562,2.424,2.562c2.027,0,3.379-1.374,3.379-3.447c0-2.33-1.584-3.543-4.521-3.543h-1.282V90.234z
		"/>
	<path fill="#646568" d="M305.375,90.7c0,2.004,0.256,2.377,2.376,2.308v0.629h-7.13v-0.629c1.957,0.069,2.167-0.467,2.167-2.004
		V81.66c0-1.515-0.257-1.888-2.167-1.888v-0.629c0.536,0,1.725-0.093,3.332-0.163c1.234-0.047,2.377-0.047,2.843-0.047
		c4.706,0,6.314,2.051,6.314,4.171c0,1.724-0.979,2.982-2.937,3.798c0.373,0.256,1.375,1.234,1.748,1.607l1.515,1.516
		c2.073,2.073,3.658,3.005,5.592,3.215v0.652c-4.59,0.117-5.731-0.699-7.829-2.796l-1.234-1.235
		c-1.188-1.188-1.538-1.514-2.517-2.236c-0.676,0.047-1.468,0.07-2.073,0V90.7z M305.375,86.973c0.162,0.023,0.605,0.07,0.745,0.07
		c3.099-0.141,4.171-1.328,4.171-3.705c0-2.354-1.258-3.751-3.799-3.751c-0.349,0-0.908,0.046-1.117,0.093V86.973z"/>
	<path fill="#646568" d="M338.073,78.771c5.032,0,8.505,3.006,8.505,7.363c0,4.194-3.355,7.876-8.598,7.876
		c-4.87,0-8.412-3.053-8.412-7.224C329.568,82.126,333.134,78.771,338.073,78.771z M338.354,93.264c3.238,0,5.405-2.633,5.405-6.547
		c0-4.219-2.446-7.201-5.872-7.201c-3.355,0-5.498,2.564-5.498,6.64C332.389,90.84,335.395,93.264,338.354,93.264z"/>
	<path fill="#646568" d="M360.355,81.73c-0.814-1.771-1.164-1.958-2.936-1.958v-0.629h6.758v0.629
		c-1.189,0.047-1.516,0.187-1.516,0.769c0,0.443,0.443,1.492,0.77,2.167l4.055,8.598l2.445-5.057l-2.143-4.52
		c-0.885-1.888-1.096-1.981-2.633-1.958v-0.629h10.928v0.629c-1.607,0.023-1.842,0.21-2.703,1.958l-1.514,3.028l3.145,6.478
		l4.031-9.623c0.279-0.652,0.35-0.955,0.35-1.142c0-0.513-0.443-0.699-1.701-0.699v-0.629h5.033v0.629
		c-1.305,0.023-1.701,0.093-2.703,2.493l-4.916,11.744h-1.492l-3.053-6.432l-3.074,6.432h-1.445L360.355,81.73z M372.426,80.984
		c0.186-0.373,0.256-0.629,0.256-0.792c0-0.303-0.232-0.419-1.002-0.419h-0.861c-0.816,0-1.025,0.093-1.025,0.396
		c0,0.233,0.094,0.512,0.35,1.048l1.094,2.237L372.426,80.984z"/>
	<path fill="#646568" d="M398.346,81.776v8.947c0,1.817,0.232,2.399,2.33,2.284v0.629h-5.57v-0.629
		c1.678,0.046,1.959-0.49,1.959-2.004V80.518c-0.561-0.489-1.072-0.676-1.959-0.746v-0.629h4.219l10.391,10.974v-8.341
		c0-1.748-0.279-2.027-2.307-2.004v-0.629h5.639v0.629c-1.561,0-2.049,0.28-2.049,2.051v11.952h-1.26L398.346,81.776z"/>
</g>
</svg>
