<svg xmlns="http://www.w3.org/2000/svg" width="425.5" height="134.5"><g fill="none" stroke="#646568" stroke-width=".637" stroke-miterlimit="10"><path d="M154 67.5l259.67-.05M261.9 79.15v14.5"/></g><g fill="#646568"><path d="M156.3 44c-.8-1.77-1.15-1.96-2.92-1.96v-.63h6.75v.64c-1.18.05-1.5.2-1.5.77 0 .45.43 1.5.76 2.18l4.04 8.6 2.45-5.06-2.16-4.52c-.88-1.9-1.1-1.98-2.63-1.96v-.63h10.94v.64c-1.6.02-1.84.2-2.7 1.96l-1.52 3.03 3.15 6.48L175 43.9c.28-.65.35-.95.35-1.14 0-.5-.44-.7-1.7-.7v-.63h5.03v.64c-1.3.03-1.7.1-2.7 2.5l-4.92 11.74h-1.5l-3.04-6.43-3.08 6.43H162L156.3 44zm12.08-.75c.2-.37.26-.63.26-.8 0-.3-.24-.4-1-.4h-.87c-.8 0-1.02.1-1.02.4 0 .22.1.5.35 1.04l1.1 2.22 1.18-2.47zM191.22 41.4h6.5v.64c-1.56 0-2 .35-2 2v9.07c0 1.76.33 2.22 2 2.18v.63h-6.5v-.62c1.85.04 1.92-.68 1.92-2v-9.5c0-1.25-.3-1.76-1.9-1.74v-.63zM210.36 55.9v-.62c1.86 0 2.26-.17 2.26-2v-9.23c0-1.6-.16-2.05-2.26-2v-.64H218v.64c-2.5 0-2.8.1-2.8 1.84v9.84c0 .95.2 1.14 1.26 1.14h2.4c1.98 0 2.12-.1 3.87-2.47h.7l-1.8 3.5h-11.27zM235.23 55.9v-.62c1.86 0 2.26-.17 2.26-2v-9.23c0-1.6-.18-2.05-2.27-2v-.64h7.64v.64c-2.52 0-2.8.1-2.8 1.84v9.84c0 .95.2 1.14 1.26 1.14h2.4c1.98 0 2.12-.1 3.87-2.47h.7l-1.8 3.5h-11.27zM260.38 41.4h6.5v.64c-1.57 0-2 .35-2 2v9.07c0 1.76.32 2.22 2 2.18v.63h-6.5v-.62c1.84.04 1.9-.68 1.9-2v-9.5c0-1.25-.3-1.76-1.9-1.74v-.63zM279.27 55.28c1.57-.03 1.87-.28 2.52-2.1l4.2-11.56-.18-.58h2.6L293 53.18c.67 1.82.9 2.1 2.37 2.1v.63h-6.92v-.62c1.84 0 2.35-.2 2.35-.87 0-.22-.1-.6-.32-1.22l-1.12-2.9H284l-1.14 3.1c-.16.45-.23.75-.23 1 0 .66.47.97 2.33.9v.63h-5.7v-.62zm9.63-6.16l-2.24-5.9-2.2 5.9h4.44zM307.45 55.28c1.45 0 1.87-.26 2-2.3l.57-8.56c.14-2.08-.12-2.38-1.47-2.38v-.63h4.3l5.04 10.8 4.75-10.8h4.3v.64c-1.3 0-1.58.28-1.48 1.35l.83 10.6c.1 1.18.54 1.28 1.9 1.28v.63h-6.6v-.62c1.9 0 2.24-.47 2.05-2.94l-.63-8.6h-.05L317.6 55.9h-.8l-5.48-11.85h-.05l-.55 8.62c-.17 2.5.37 2.5 1.9 2.6v.64h-5.17v-.62zM341.22 52.08h.7c.58 2.15 2.03 3.36 4.03 3.36 1.7 0 2.9-1 2.9-2.4 0-3.26-7.35-4.54-7.35-8.6 0-2 1.77-3.4 4.27-3.4.77 0 1.33.1 1.8.2.46.08.83.17 1.23.17.3 0 .46-.06.65-.27h.58l.5 3.6h-.7c-.68-1.83-2.13-2.94-3.78-2.94-1.5 0-2.3.87-2.3 1.9 0 3.12 7.38 4.05 7.38 8.55 0 2.4-2.03 4.03-5 4.03-1.76 0-2.48-.42-3.14-.42-.28 0-.47.07-.63.26h-.56l-.58-4.04zM373.45 41.04c5.04 0 8.5 3 8.5 7.36 0 4.2-3.35 7.88-8.6 7.88-4.86 0-8.4-3.06-8.4-7.23 0-4.65 3.56-8 8.5-8zm.28 14.5c3.24 0 5.4-2.64 5.4-6.56 0-4.2-2.44-7.2-5.86-7.2-3.36 0-5.5 2.57-5.5 6.65 0 4.68 3 7.1 5.96 7.1zM398.46 44.05v8.94c0 1.8.24 2.4 2.33 2.28v.63h-5.58v-.62c1.68.04 1.96-.5 1.96-2v-10.5c-.56-.48-1.07-.67-1.96-.74v-.63h4.22l10.4 11v-8.36c0-1.74-.3-2.02-2.3-2v-.63h5.62v.64c-1.56 0-2.04.28-2.04 2.05v11.94h-1.26l-11.4-12z"/></g><g fill="#646568"><path d="M155.75 81.82c0-1.7-.44-2.07-2.2-2.05v-.63c.66 0 2.67-.1 3.65-.14 1.26-.04 2.44-.04 3.33-.04 3.52 0 6.06.63 7.48 2.05 1.45 1.45 2 3.22 2 4.97 0 3.42-2.4 7.66-9.2 7.66h-7.26V93c1.98 0 2.2-.32 2.2-1.88v-9.3zm2.6 9.5c0 1.46.2 1.67 1.7 1.67 2.8-.02 4.25-.62 5.32-1.7 1.43-1.4 1.82-3.37 1.82-5 0-1.68-.38-3.57-1.8-5-1.17-1.15-2.64-1.7-5.36-1.7-.4 0-1.12 0-1.7.06V91.3zM181.4 93c1.58-.02 1.88-.27 2.53-2.1l4.22-11.55-.2-.58h2.62l4.55 12.14c.67 1.83.9 2.1 2.37 2.1v.64h-6.93V93c1.84 0 2.35-.18 2.35-.85 0-.24-.1-.63-.32-1.24l-1.12-2.88h-5.34l-1.14 3.1c-.16.44-.23.75-.23.98 0 .68.47.98 2.33.9v.64h-5.7V93zm9.64-6.14l-2.24-5.9-2.2 5.9h4.44zM222.97 93.64c-.28-.12-.44-.17-.8-.17-1.04 0-2.65.54-4.63.54-5.43 0-8.36-3.16-8.36-7.33 0-3.96 2.65-7.9 8.55-7.9 2.54 0 4.33.77 5 .77.2 0 .3-.05.43-.16h.58l.12 3.84h-.7c-.87-2.4-2.75-3.7-5.34-3.7-3.5 0-5.82 2.6-5.82 6.54 0 4.08 2.68 7.1 6.24 7.1 2.28 0 4.3-1.2 5.62-3.42h.7l-1.6 3.9zM236.9 93.64V93c1.88 0 2.34-.3 2.34-1.6V81.36c0-1.54-.77-1.6-2.35-1.6v-.62h11.9l.2 3.5h-.62l-.12-.5c-.47-1.9-.84-1.95-2.33-1.95h-4.1v5.42h3.6c1.36 0 1.62-.16 1.76-1.77h.62v4.7h-.63c-.18-1.67-.48-1.88-1.76-1.88h-3.6v4.24c0 1.45.17 1.7 1.36 1.7h2.6c2.34 0 2.8-.34 3.44-2.62h.63l-.35 3.66H236.9z"/></g><g fill="#646568"><path d="M276.3 82.13c0-1.56-.17-2.36-1.78-2.36h-.8v-.63c.75 0 2.15-.04 3.22-.1.9-.04 2.28-.08 3.1-.08 3.98 0 6.62.77 6.62 3.4 0 1.5-1.05 2.63-2.78 2.98v.05c2.3.62 3.62 2 3.62 3.9 0 2.36-1.87 4.34-5.88 4.34h-7.9V93c2.06 0 2.57-.32 2.57-1.6v-9.27zm2.57 3.02h1.7c2.22 0 3.36-.8 3.36-2.54 0-1.73-1-3-3.68-3-.5 0-.86.03-1.38.1v5.45zm0 5.08c0 1.8.5 2.57 2.43 2.57 2.03 0 3.38-1.38 3.38-3.45 0-2.33-1.6-3.54-4.52-3.54h-1.3v4.43zM305.38 90.7c0 2 .25 2.38 2.37 2.3v.64h-7.13V93c1.96.08 2.17-.46 2.17-2v-9.34c0-1.5-.27-1.9-2.18-1.9v-.62c.54 0 1.73-.1 3.33-.16 1.24-.05 2.38-.05 2.85-.05 4.7 0 6.3 2.05 6.3 4.17 0 1.73-.97 3-2.93 3.8.38.26 1.38 1.24 1.75 1.6l1.52 1.53c2.07 2.07 3.65 3 5.6 3.2v.66c-4.6.1-5.74-.7-7.84-2.8l-1.24-1.24c-1.18-1.2-1.53-1.5-2.5-2.23-.7.04-1.48.07-2.1 0v3.07zm0-3.73c.16.03.6.07.74.07 3.1-.14 4.17-1.33 4.17-3.7 0-2.36-1.27-3.75-3.8-3.75-.36 0-.92.03-1.12.08v7.3zM338.07 78.77c5.03 0 8.5 3 8.5 7.36 0 4.2-3.35 7.88-8.6 7.88-4.86 0-8.4-3.04-8.4-7.2 0-4.67 3.56-8.03 8.5-8.03zm.28 14.5c3.24 0 5.4-2.64 5.4-6.55 0-4.22-2.44-7.2-5.86-7.2-3.37 0-5.5 2.56-5.5 6.64 0 4.68 3 7.1 5.95 7.1zM360.36 81.73c-.82-1.77-1.17-1.96-2.94-1.96v-.63h6.76v.63c-1.2.05-1.52.2-1.52.77 0 .44.44 1.5.77 2.17l4.06 8.6 2.43-5.05-2.14-4.52c-.9-1.9-1.1-1.98-2.65-1.96v-.63h10.93v.63c-1.6.02-1.84.2-2.7 1.96l-1.5 3.03 3.13 6.48 4.04-9.63c.28-.64.35-.94.35-1.13 0-.5-.45-.7-1.7-.7v-.63h5.02v.63c-1.3.02-1.7.1-2.7 2.5L375.12 94h-1.5l-3.06-6.42L367.5 94h-1.46l-5.68-12.27zm12.07-.75c.18-.37.25-.63.25-.8 0-.3-.23-.4-1-.4h-.86c-.82 0-1.03.1-1.03.4 0 .22.1.5.34 1.04l1.1 2.23 1.2-2.47zM398.35 81.78v8.94c0 1.82.23 2.4 2.33 2.3v.62h-5.57V93c1.68.05 1.96-.48 1.96-2V80.52c-.56-.5-1.07-.68-1.95-.75v-.63h4.22l10.4 10.98v-8.34c0-1.75-.28-2.03-2.3-2v-.64h5.63v.63c-1.56 0-2.05.28-2.05 2.05v11.96h-1.26l-11.4-12z"/></g><circle cx="67.12" cy="68.119" r="58.619" fill="#646568"/><g fill="#fff"><path d="M21.86 50.7c-.08-.23-.15-.45-.15-.68 0-.8.72-1.5 1.55-1.5.75 0 1.3.56 1.54 1.24l7.23 20.88 6.88-20.96c.23-.67.68-1.16 1.47-1.16h.2c.74 0 1.23.5 1.45 1.16l6.88 20.96 7.28-20.96c.23-.67.7-1.16 1.43-1.16.8 0 1.5.7 1.5 1.46 0 .23-.1.5-.18.72l-8.4 23.35c-.27.75-.8 1.28-1.55 1.28h-.22c-.76 0-1.28-.53-1.54-1.28l-6.83-20.2-6.8 20.2c-.26.76-.8 1.28-1.54 1.28h-.22c-.74 0-1.27-.5-1.53-1.27l-8.4-23.36zM62.9 50.2c0-.82.68-1.5 1.46-1.5h7.66C80.3 48.7 86 54.4 86 61.78v.08C86 69.25 80.27 75 72 75h-7.66c-.78 0-1.46-.68-1.46-1.5V50.2zm9.13 22.05c6.64 0 10.9-4.5 10.9-10.33v-.07c-.02-5.82-4.26-10.4-10.9-10.4h-6.16v20.8h6.16zM90.4 50.2c0-.82.66-1.5 1.45-1.5h9.73c3 0 5.37.87 6.87 2.34 1.1 1.12 1.7 2.5 1.7 4.2v.08c0 3.4-2.1 5.18-4.18 6.08 3.12.94 5.64 2.74 5.64 6.35v.07c0 4.5-3.8 7.18-9.53 7.18H91.85c-.8 0-1.46-.68-1.46-1.5V50.2zm10.7 10.22c3.56 0 6.04-1.6 6.04-4.7v-.07c0-2.6-2.07-4.28-5.83-4.28h-7.98v9.05h7.77zm1.04 11.9c3.98 0 6.46-1.76 6.46-4.7v-.06c0-2.86-2.4-4.5-6.98-4.5h-8.3v9.27h8.82z"/></g><g fill="#fff"><path d="M30.17 84.2c0-.33.25-.58.57-.58h1.98c1.52 0 2.46.86 2.46 2.17 0 1.46-1.16 2.22-2.6 2.22h-1.27v1.56c0 .3-.24.56-.56.56-.32 0-.57-.25-.57-.56V84.2zm2.46 2.8c.86 0 1.4-.5 1.4-1.17 0-.77-.55-1.17-1.4-1.17H31.3V87h1.33zM39.3 84.2c0-.33.25-.58.57-.58h2.32c.8 0 1.44.24 1.85.65.35.35.54.83.54 1.4v.02c0 1.02-.6 1.65-1.48 1.92l1.24 1.56c.1.14.18.26.18.44 0 .3-.26.52-.54.52-.26 0-.43-.12-.56-.3l-1.57-2h-1.43v1.74c0 .3-.25.56-.57.56-.32 0-.57-.25-.57-.56V84.2zm2.8 2.63c.82 0 1.33-.42 1.33-1.08v-.02c0-.7-.5-1.07-1.33-1.07h-1.66v2.17h1.66zM48.66 86.88v-.02c0-1.82 1.4-3.35 3.4-3.35s3.36 1.52 3.36 3.34v.02c0 1.82-1.4 3.35-3.4 3.35s-3.36-1.5-3.36-3.32zm5.57 0v-.02c0-1.26-.9-2.3-2.2-2.3-1.3 0-2.18 1.02-2.18 2.28v.02c0 1.26.9 2.3 2.2 2.3 1.28 0 2.18-1.02 2.18-2.28zM59.76 84.2c0-.33.25-.58.57-.58h1.98c1.53 0 2.47.86 2.47 2.17 0 1.46-1.17 2.22-2.6 2.22H60.9v1.56c0 .3-.26.56-.57.56-.32 0-.57-.25-.57-.56V84.2zm2.46 2.8c.86 0 1.4-.5 1.4-1.17 0-.77-.55-1.17-1.4-1.17H60.9V87h1.32zM68.9 89.52V84.2c0-.33.24-.58.56-.58h3.77c.27 0 .5.24.5.5 0 .3-.23.52-.5.52h-3.2v1.7h2.78c.3 0 .52.2.52.5 0 .28-.23.5-.5.5H70v1.74h3.25c.28 0 .5.23.5.5 0 .3-.22.52-.5.52h-3.8c-.33 0-.58-.25-.58-.58zM78.04 84.2c0-.33.25-.58.57-.58h2.33c.8 0 1.45.24 1.86.65.33.35.53.83.53 1.4v.02c0 1.02-.6 1.65-1.47 1.92l1.24 1.56c.1.14.18.26.18.44 0 .3-.27.52-.54.52-.26 0-.43-.12-.56-.3l-1.57-2H79.2v1.74c0 .3-.25.56-.57.56-.3 0-.56-.25-.56-.56V84.2zm2.8 2.63c.8 0 1.33-.42 1.33-1.08v-.02c0-.7-.5-1.07-1.34-1.07h-1.65v2.17h1.66zM89.25 84.68h-1.58c-.3 0-.52-.24-.52-.53 0-.28.23-.52.52-.52h4.3c.3 0 .52.24.52.52 0 .3-.24.53-.53.53H90.4v4.9c0 .3-.27.56-.58.56s-.57-.25-.57-.56v-4.9zM98.42 87.58l-2.23-3.06c-.08-.1-.14-.24-.14-.4 0-.3.25-.54.58-.54.25 0 .4.14.55.34l1.8 2.6 1.83-2.6c.14-.2.3-.35.54-.35.33 0 .56.25.56.55 0 .16-.08.3-.16.4l-2.2 3.03v2.03c0 .3-.26.56-.58.56-.33 0-.58-.25-.58-.56v-2z"/></g></svg>