<?xml version="1.0" encoding="utf-8"?>
<!-- Generator: Adobe Illustrator 16.0.0, SVG Export Plug-In . SVG Version: 6.00 Build 0)  -->
<!DOCTYPE svg PUBLIC "-//W3C//DTD SVG 1.1//EN" "http://www.w3.org/Graphics/SVG/1.1/DTD/svg11.dtd">
<svg version="1.1" id="Layer_1" xmlns="http://www.w3.org/2000/svg" xmlns:xlink="http://www.w3.org/1999/xlink" x="0px" y="0px"
	 width="265.967px" height="76.352px" viewBox="0 0 265.967 76.352" enable-background="new 0 0 265.967 76.352"
	 xml:space="preserve">
<g>
	<defs>
		<rect id="SVGID_1_" width="265.967" height="76.352"/>
	</defs>
	<clipPath id="SVGID_2_">
		<use xlink:href="#SVGID_1_"  overflow="visible"/>
	</clipPath>
	<path clip-path="url(#SVGID_2_)" fill="#59636A" d="M105.271,30.678l-1.946-4.592l-1.871,4.592h-0.729l-3.089-7.906
		c-0.445-1.13-0.802-1.293-1.752-1.293h-0.09v-0.283h3.847v0.283H99.39c-0.698,0-0.966,0.312-0.713,0.936l2.703,6.808l1.604-3.969
		l-1.203-2.928c-0.297-0.728-0.743-0.847-1.53-0.847v-0.283h6.09v0.283c-0.921,0-1.233,0.223-1.47,0.787l-0.951,2.319l1.946,4.637
		l2.628-6.896c0.239-0.609,0.045-0.817-1.039-0.847v-0.283h3.075v0.283c-0.907,0-1.114,0.178-1.56,1.352l-2.985,7.847
		 M104.246,22.118c0.164-0.401,0.06-0.639-0.372-0.639h-0.623c-0.387,0-0.595,0.148-0.416,0.549l0.742,1.725L104.246,22.118z"/>
	<path clip-path="url(#SVGID_2_)" fill="#59636A" d="M121.459,30.44h-3.609v-0.282c0.921-0.045,1.114-0.282,1.114-1.278v-6.331
		c0-0.803-0.282-1.026-1.114-1.07v-0.283h3.609v0.283c-0.937,0-1.262,0.208-1.262,1.203v6.302c0,0.877,0.237,1.174,1.262,1.174"/>
	<path clip-path="url(#SVGID_2_)" fill="#59636A" d="M138.13,30.44h-6.64v-0.282h0.49c0.683,0,0.936-0.223,0.936-0.981v-6.583
		c0-0.788-0.238-1.114-1.174-1.114h-0.208v-0.283h4.382v0.283h-0.549c-0.966,0-1.218,0.104-1.218,1.024v6.852
		c0,0.401,0.164,0.551,0.594,0.551h2.183c0.876,0,1.144-0.342,2.079-1.635h0.268"/>
	<path clip-path="url(#SVGID_2_)" fill="#59636A" d="M155.396,30.44h-6.64v-0.282h0.49c0.683,0,0.936-0.223,0.936-0.981v-6.583
		c0-0.788-0.238-1.114-1.173-1.114h-0.209v-0.283h4.383v0.283h-0.551c-0.965,0-1.217,0.104-1.217,1.024v6.852
		c0,0.401,0.162,0.551,0.594,0.551h2.183c0.876,0,1.143-0.342,2.08-1.635h0.267"/>
	<path clip-path="url(#SVGID_2_)" fill="#59636A" d="M169.162,30.44h-3.61v-0.282c0.921-0.045,1.115-0.282,1.115-1.278v-6.331
		c0-0.803-0.282-1.026-1.115-1.07v-0.283h3.61v0.283c-0.936,0-1.264,0.208-1.264,1.203v6.302c0,0.877,0.237,1.174,1.264,1.174"/>
	<path clip-path="url(#SVGID_2_)" fill="#59636A" d="M181.265,26.339l-0.862,2.333c-0.104,0.283-0.297,0.729-0.297,0.937
		c0,0.401,0.386,0.55,1.204,0.55h0.237v0.282h-3.433v-0.282c0.967-0.014,1.129-0.178,1.605-1.472l2.703-7.386l-0.134-0.327h1.292
		l3.104,8.249c0.297,0.787,0.608,0.936,1.352,0.936v0.282h-4.084v-0.282h0.386c0.847,0,1.157-0.089,1.157-0.506
		c0-0.238-0.103-0.46-0.162-0.609l-0.996-2.704 M182.779,22.222l-1.261,3.462h2.569L182.779,22.222z"/>
	<path clip-path="url(#SVGID_2_)" fill="#59636A" d="M202.651,30.44l-3.787-7.921h-0.03l-0.402,6.688
		c-0.044,0.757,0.52,0.92,1.189,0.951v0.282h-3.089v-0.282c1.083,0,1.217-0.237,1.292-1.59l0.356-5.781
		c0.059-0.981,0.03-1.249-0.893-1.308v-0.268h2.245l3.579,7.49l3.565-7.49h2.183v0.268c-0.728,0.059-1.009,0.074-0.979,0.58
		l0.476,6.731c0.087,1.367,0.207,1.367,1.291,1.367v0.282h-3.817v-0.282c0.698,0,1.381-0.193,1.323-0.981l-0.433-6.658h-0.03
		l-3.698,7.921"/>
	<path clip-path="url(#SVGID_2_)" fill="#59636A" d="M219.12,28.181c0.312,1.322,1.352,2.096,2.511,2.096
		c0.995,0,2.049-0.58,2.049-1.754c0-2.14-4.768-2.794-4.768-5.395c0-1.233,1.129-2.155,2.644-2.155c1.248,0,1.5,0.372,2.02,0.372
		c0.118,0,0.178-0.03,0.267-0.149h0.238l0.252,1.888h-0.252c-0.416-1.07-1.367-1.754-2.391-1.754c-0.981,0-1.664,0.565-1.664,1.397
		c0,2.11,4.767,2.675,4.767,5.41c0,1.457-1.292,2.541-3.029,2.541c-0.816,0-1.856-0.401-2.063-0.401
		c-0.134,0-0.238,0.074-0.298,0.163h-0.252l-0.312-2.259"/>
	<path clip-path="url(#SVGID_2_)" fill="#59636A" d="M239.838,30.678c-2.911,0-5.361-1.873-5.361-4.651
		c0-2.958,2.272-5.054,5.436-5.054c2.808,0,5.213,1.917,5.213,4.592C245.125,28.567,242.721,30.678,239.838,30.678 M239.526,21.345
		c-2.614,0-3.652,2.437-3.652,4.22c0,2.779,1.885,4.741,4.277,4.741c2.421,0,3.579-2.14,3.579-4.25
		C243.729,23.292,241.978,21.345,239.526,21.345z"/>
	<path clip-path="url(#SVGID_2_)" fill="#59636A" d="M264.225,30.544l-7.694-8.055v6.376c0,1.07,0.238,1.292,1.5,1.292v0.282h-3.445
		v-0.282h0.059c0.92,0,1.217-0.312,1.217-0.996v-7.311c-0.342-0.238-0.728-0.357-1.247-0.372v-0.283h2.331l6.997,7.298v-5.915
		c0-0.907-0.268-1.07-1.457-1.1v-0.283h3.475v0.283c-1.113,0-1.352,0.193-1.352,0.772v8.293"/>
	<path clip-path="url(#SVGID_2_)" fill="#59636A" d="M97.196,47.449c0-0.966-0.252-1.203-1.128-1.203H95.77v-0.283
		c0.55-0.029,1.278-0.058,2.095-0.088c0.817-0.031,1.723-0.046,2.495-0.046c3.921,0,5.659,1.992,5.659,4.444
		c0,2.243-1.738,4.934-5.495,4.934H95.77v-0.283h0.253c0.802,0,1.173-0.223,1.173-1.085 M98.429,54.107
		c0,0.609,0.044,0.818,1.218,0.818c1.99,0,2.822-0.283,3.743-1.203c0.549-0.536,1.233-1.681,1.233-3.212
		c0-1.1-0.312-2.318-1.189-3.193c-0.683-0.685-1.737-1.204-3.817-1.204c-0.608,0-1.01,0.044-1.188,0.06V54.107z"/>
	<path clip-path="url(#SVGID_2_)" fill="#59636A" d="M116.278,51.106l-0.861,2.332c-0.104,0.284-0.298,0.728-0.298,0.937
		c0,0.401,0.386,0.551,1.203,0.551h0.238v0.283h-3.431v-0.283c0.965-0.015,1.129-0.179,1.604-1.472l2.703-7.386l-0.133-0.327h1.292
		l3.104,8.249c0.297,0.786,0.609,0.936,1.352,0.936v0.283h-4.085v-0.283h0.387c0.846,0,1.158-0.09,1.158-0.507
		c0-0.237-0.104-0.458-0.164-0.607l-0.994-2.705 M117.793,46.989l-1.263,3.464h2.57L117.793,46.989z"/>
	<path clip-path="url(#SVGID_2_)" fill="#59636A" d="M139.904,48.401c-0.49-1.383-1.767-2.288-3.386-2.288
		c-2.48,0-4.025,1.798-4.025,4.294c0,2.69,1.931,4.666,4.189,4.666c1.173,0,2.614-0.4,3.624-2.198h0.282
		c-0.194,0.669-0.594,1.59-0.95,2.169c-0.95-0.133-1.604,0.402-3.357,0.402c-3.015,0-5.183-1.992-5.183-4.741
		c0-2.883,2.229-4.964,5.332-4.964c1.872,0,2.673,0.594,3.134,0.594c0.163,0,0.237-0.044,0.267-0.088h0.223l0.134,2.155"/>
	<path clip-path="url(#SVGID_2_)" fill="#59636A" d="M156.15,51.864h-0.281c-0.12-1.057-0.401-1.175-1.01-1.175h-2.512v3.166
		c0,0.683,0.252,0.818,0.804,0.818h2.287c1.04,0,1.351-0.401,1.723-1.68h0.268l-0.238,2.215h-7.886v-0.283h0.415
		c1.189,0,1.397-0.328,1.397-1.22v-6.271c0-0.832-0.194-1.188-1.189-1.188h-0.326v-0.283h7.129l0.119,2.067h-0.268
		c-0.192-1.264-0.563-1.532-1.099-1.532h-3.134v3.657h2.66c0.534,0,0.786-0.254,0.861-1.115h0.281"/>
	<path clip-path="url(#SVGID_2_)" fill="#59636A" d="M179.453,47.539c0-0.847-0.105-1.292-1.145-1.292h-0.52v-0.283
		c0.417-0.015,1.44-0.074,1.872-0.088c0.816-0.031,1.945-0.046,2.228-0.046c1.307,0,2.45,0.193,2.986,0.58
		c0.608,0.431,0.905,0.937,0.905,1.65c0,0.846-0.697,1.635-1.693,1.811v0.03c1.396,0.417,2.212,1.323,2.212,2.483
		c0,1.173-0.816,2.824-3.207,2.824h-5.437v-0.283h0.342c1.217,0,1.456-0.283,1.456-1.22 M180.685,49.827h1.619
		c1.426,0,2.139-0.563,2.139-1.724c0-1.039-0.624-1.991-2.45-1.991c-0.327,0-0.936,0.03-1.308,0.044V49.827z M180.685,53.276
		c0,1.128,0.446,1.529,1.693,1.529c1.96,0,2.526-1.218,2.526-2.377c0-1.145-0.878-2.319-2.615-2.319h-1.604V53.276z"/>
	<path clip-path="url(#SVGID_2_)" fill="#59636A" d="M197.764,53.811c0,0.892,0.357,1.114,1.188,1.114h0.341v0.283h-4.202v-0.283
		h0.252c0.878,0,1.189-0.238,1.189-1.234v-6.257c0-0.922-0.253-1.188-1.115-1.188h-0.326v-0.283c0.356,0,1.262-0.058,1.872-0.088
		c0.61-0.031,0.905-0.046,1.872-0.046c2.746,0,3.98,1.129,3.98,2.645c0,1.115-0.759,2.052-1.976,2.409
		c0.55,0.43,0.994,0.847,1.693,1.545l1.173,1.174c0.877,0.877,1.783,1.426,2.926,1.5v0.268c-2.6,0.12-3.267-0.445-4.591-1.768
		l-0.979-0.98c-0.653-0.655-1.173-1.087-1.53-1.325c-0.371,0.016-0.607,0.03-1.009,0.03c-0.328,0-0.521-0.014-0.758-0.03
		 M197.764,51.016c0.357,0.044,0.58,0.03,0.921,0.03c1.648,0,2.733-0.698,2.733-2.481c0-1.382-0.625-2.451-2.912-2.451
		c-0.283,0-0.476,0-0.743,0.03V51.016z"/>
	<path clip-path="url(#SVGID_2_)" fill="#59636A" d="M219.107,55.446c-2.91,0-5.361-1.873-5.361-4.652
		c0-2.958,2.271-5.053,5.437-5.053c2.806,0,5.211,1.917,5.211,4.591C224.395,53.335,221.99,55.446,219.107,55.446 M218.796,46.113
		c-2.615,0-3.654,2.437-3.654,4.219c0,2.781,1.886,4.741,4.278,4.741c2.419,0,3.58-2.139,3.58-4.25
		C223,48.06,221.247,46.113,218.796,46.113z"/>
	<path clip-path="url(#SVGID_2_)" fill="#59636A" d="M241.061,55.446l-1.945-4.594l-1.874,4.594h-0.727l-3.089-7.907
		c-0.446-1.129-0.801-1.292-1.751-1.292h-0.09v-0.283h3.846v0.283h-0.251c-0.698,0-0.966,0.312-0.713,0.936l2.703,6.808l1.603-3.97
		l-1.202-2.926c-0.298-0.729-0.741-0.848-1.53-0.848v-0.283h6.09v0.283c-0.92,0-1.233,0.223-1.471,0.786l-0.95,2.319l1.946,4.639
		l2.628-6.896c0.238-0.611,0.045-0.818-1.04-0.848v-0.283h3.075v0.283c-0.906,0-1.114,0.179-1.559,1.352l-2.986,7.848
		 M240.037,46.886c0.163-0.403,0.059-0.64-0.372-0.64h-0.624c-0.385,0-0.594,0.149-0.415,0.548l0.742,1.726L240.037,46.886z"/>
	<path clip-path="url(#SVGID_2_)" fill="#59636A" d="M264.229,55.311l-7.694-8.055v6.376c0,1.07,0.238,1.293,1.5,1.293v0.283h-3.445
		v-0.283h0.06c0.92,0,1.217-0.313,1.217-0.997v-7.31c-0.342-0.238-0.728-0.357-1.247-0.372v-0.283h2.332l6.995,7.298v-5.916
		c0-0.907-0.268-1.07-1.455-1.1v-0.283h3.476v0.283c-1.114,0-1.353,0.193-1.353,0.772v8.293"/>
	
		<line clip-path="url(#SVGID_2_)" fill="none" stroke="#59636A" stroke-width="0.4197" stroke-miterlimit="10" x1="95.769" y1="38.208" x2="265.944" y2="38.208"/>
	<line clip-path="url(#SVGID_2_)" fill="#59636A" x1="167.529" y1="46.004" x2="167.529" y2="55.143"/>
	
		<line clip-path="url(#SVGID_2_)" fill="none" stroke="#80858A" stroke-width="0.3972" stroke-miterlimit="10" x1="167.529" y1="46.004" x2="167.529" y2="55.143"/>
	
		<line clip-path="url(#SVGID_2_)" fill="none" stroke="#59636A" stroke-width="0.4197" stroke-miterlimit="10" x1="167.529" y1="46.004" x2="167.529" y2="55.266"/>
	<path clip-path="url(#SVGID_2_)" fill="#59636A" d="M76.306,38.186c0,21.083-17.082,38.175-38.152,38.175
		C17.082,76.361,0,59.269,0,38.186C0,17.101,17.082,0.01,38.153,0.01C59.224,0.01,76.306,17.101,76.306,38.186"/>
	<path clip-path="url(#SVGID_2_)" fill="#FFFFFF" d="M12.902,42.957L8.056,29.458c-0.062-0.185-0.155-0.432-0.155-0.648
		c0-0.586,0.494-1.143,1.205-1.143c0.617,0,1.019,0.401,1.204,0.989l4.013,11.985l4.044-12.016c0.185-0.557,0.556-0.958,1.173-0.958
		h0.124c0.648,0,1.05,0.401,1.235,0.958l4.013,12.016l4.075-12.047c0.154-0.494,0.494-0.927,1.142-0.927
		c0.679,0,1.173,0.525,1.173,1.112c0,0.216-0.093,0.463-0.155,0.648L26.27,42.957c-0.247,0.71-0.741,1.081-1.297,1.081H24.88
		c-0.618,0-1.081-0.371-1.296-1.081l-3.982-11.645l-4.013,11.645c-0.216,0.71-0.679,1.081-1.296,1.081H14.23
		C13.643,44.038,13.15,43.667,12.902,42.957"/>
	<path clip-path="url(#SVGID_2_)" fill="#FFFFFF" d="M48.615,42.74c0,0.68-0.525,1.204-1.173,1.204c-0.68,0-1.204-0.524-1.204-1.204
		v-2.162c-1.296,1.915-3.18,3.552-6.112,3.552c-3.828,0-7.625-3.026-7.625-8.278v-0.062c0-5.221,3.798-8.31,7.625-8.31
		c2.963,0,4.877,1.606,6.112,3.398v-8.587c0-0.679,0.494-1.204,1.173-1.204c0.679,0,1.204,0.525,1.204,1.204 M34.939,35.759v0.062
		c0,3.769,2.624,6.178,5.619,6.178c2.963,0,5.772-2.502,5.772-6.178v-0.062c0-3.676-2.809-6.146-5.772-6.146
		C37.471,29.613,34.939,31.898,34.939,35.759z"/>
	<path clip-path="url(#SVGID_2_)" fill="#FFFFFF" d="M52.378,22.292c0-0.679,0.524-1.204,1.173-1.204
		c0.678,0,1.204,0.525,1.204,1.204v8.742c1.296-1.915,3.18-3.553,6.112-3.553c3.828,0,7.625,3.027,7.625,8.278v0.062
		c0,5.22-3.766,8.309-7.625,8.309c-2.964,0-4.877-1.606-6.112-3.398v2.008c0,0.648-0.494,1.204-1.173,1.204
		s-1.204-0.556-1.204-1.204 M66.054,35.853v-0.062c0-3.769-2.593-6.178-5.619-6.178c-2.963,0-5.772,2.502-5.772,6.146v0.062
		c0,3.707,2.809,6.178,5.772,6.178C63.522,42,66.054,39.713,66.054,35.853z"/>
	<path clip-path="url(#SVGID_2_)" fill="#FFFFFF" d="M14.48,53.015c0-0.212,0.162-0.375,0.373-0.375h1.288
		c0.987,0,1.6,0.56,1.6,1.41v0.011c0,0.944-0.757,1.439-1.685,1.439H15.22v1.018c0,0.204-0.163,0.366-0.367,0.366
		c-0.211,0-0.373-0.162-0.373-0.366 M16.081,54.833c0.56,0,0.909-0.313,0.909-0.752v-0.011c0-0.494-0.355-0.754-0.909-0.754H15.22
		v1.518H16.081z"/>
	<path clip-path="url(#SVGID_2_)" fill="#FFFFFF" d="M20.423,53.015c0-0.212,0.163-0.375,0.374-0.375h1.504
		c0.529,0,0.944,0.157,1.215,0.421c0.223,0.23,0.349,0.542,0.349,0.91v0.013c0,0.674-0.391,1.083-0.957,1.258l0.807,1.018
		c0.072,0.09,0.121,0.17,0.121,0.283c0,0.206-0.175,0.343-0.355,0.343c-0.169,0-0.277-0.078-0.361-0.191l-1.023-1.308h-0.933v1.133
		c0,0.204-0.163,0.366-0.367,0.366c-0.211,0-0.374-0.162-0.374-0.366 M22.247,54.73c0.53,0,0.867-0.276,0.867-0.705v-0.012
		c0-0.451-0.325-0.698-0.873-0.698h-1.077v1.415H22.247z"/>
	<path clip-path="url(#SVGID_2_)" fill="#FFFFFF" d="M26.512,54.759v-0.011c0-1.186,0.915-2.179,2.208-2.179s2.196,0.98,2.196,2.167
		v0.012c0,1.186-0.915,2.18-2.208,2.18C27.415,56.928,26.512,55.947,26.512,54.759 M30.141,54.759v-0.011
		c0-0.818-0.596-1.499-1.432-1.499c-0.836,0-1.42,0.667-1.42,1.487v0.012c0,0.818,0.596,1.494,1.433,1.494
		C29.557,56.242,30.141,55.579,30.141,54.759z"/>
	<path clip-path="url(#SVGID_2_)" fill="#FFFFFF" d="M33.737,53.015c0-0.212,0.163-0.375,0.373-0.375h1.288
		c0.986,0,1.601,0.56,1.601,1.41v0.011c0,0.944-0.758,1.439-1.685,1.439h-0.837v1.018c0,0.204-0.162,0.366-0.367,0.366
		c-0.21,0-0.373-0.162-0.373-0.366 M35.338,54.833c0.56,0,0.909-0.313,0.909-0.752v-0.011c0-0.494-0.355-0.754-0.909-0.754h-0.861
		v1.518H35.338z"/>
	<path clip-path="url(#SVGID_2_)" fill="#FFFFFF" d="M39.682,56.482v-3.467c0-0.212,0.162-0.375,0.373-0.375h2.449
		c0.181,0,0.331,0.151,0.331,0.331c0,0.187-0.15,0.332-0.331,0.332h-2.082v1.096h1.811c0.181,0,0.331,0.151,0.331,0.337
		c0,0.18-0.15,0.325-0.331,0.325h-1.811v1.131h2.112c0.18,0,0.331,0.152,0.331,0.332c0,0.187-0.151,0.332-0.331,0.332h-2.479
		C39.843,56.856,39.682,56.694,39.682,56.482"/>
	<path clip-path="url(#SVGID_2_)" fill="#FFFFFF" d="M45.638,53.015c0-0.212,0.162-0.375,0.373-0.375h1.504
		c0.53,0,0.945,0.157,1.216,0.421c0.223,0.23,0.349,0.542,0.349,0.91v0.013c0,0.674-0.391,1.083-0.957,1.258l0.806,1.018
		c0.072,0.09,0.12,0.17,0.12,0.283c0,0.206-0.174,0.343-0.355,0.343c-0.168,0-0.277-0.078-0.361-0.191l-1.023-1.308h-0.933v1.133
		c0,0.204-0.162,0.366-0.367,0.366c-0.211,0-0.373-0.162-0.373-0.366 M47.461,54.73c0.53,0,0.867-0.276,0.867-0.705v-0.012
		c0-0.451-0.325-0.698-0.873-0.698h-1.077v1.415H47.461z"/>
	<path clip-path="url(#SVGID_2_)" fill="#FFFFFF" d="M52.929,53.328h-1.023c-0.192,0-0.343-0.157-0.343-0.343
		c0-0.187,0.15-0.344,0.343-0.344h2.798c0.187,0,0.337,0.157,0.337,0.344c0,0.187-0.15,0.343-0.337,0.343h-1.029v3.191
		c0,0.204-0.168,0.366-0.373,0.366s-0.374-0.162-0.374-0.366"/>
	<path clip-path="url(#SVGID_2_)" fill="#FFFFFF" d="M58.903,55.218l-1.45-1.993c-0.048-0.072-0.084-0.157-0.084-0.259
		c0-0.198,0.163-0.355,0.373-0.355c0.163,0,0.271,0.09,0.361,0.222l1.173,1.693l1.192-1.698c0.09-0.133,0.198-0.225,0.354-0.225
		c0.217,0,0.361,0.165,0.361,0.363c0,0.102-0.048,0.191-0.103,0.264l-1.438,1.969v1.32c0,0.204-0.163,0.366-0.373,0.366
		c-0.205,0-0.367-0.162-0.367-0.366"/>
</g>
</svg>
