<?xml version="1.0" encoding="utf-8"?>
<!-- Generator: Adobe Illustrator 15.1.0, SVG Export Plug-In . SVG Version: 6.00 Build 0)  -->
<!DOCTYPE svg PUBLIC "-//W3C//DTD SVG 1.1//EN" "http://www.w3.org/Graphics/SVG/1.1/DTD/svg11.dtd">
<svg version="1.1" id="Layer_1" xmlns="http://www.w3.org/2000/svg" xmlns:xlink="http://www.w3.org/1999/xlink" x="0px" y="0px"
	 width="425.5px" height="134.5px" viewBox="0 0 425.5 134.5" enable-background="new 0 0 425.5 134.5" xml:space="preserve">
<g>
	<line fill="none" stroke="#646568" stroke-width="0.6374" stroke-miterlimit="10" x1="154" y1="67.5" x2="413.667" y2="67.45"/>
	
		<line fill="none" stroke="#646568" stroke-width="0.637" stroke-miterlimit="10" x1="261.898" y1="79.146" x2="261.898" y2="93.637"/>
</g>
<text transform="matrix(1 0 0 1 153.0034 55.9053)" fill="#646568" font-family="'Bembo-Semibold'" font-size="23.3062" letter-spacing="11">WILLIAMSON</text>
<text transform="matrix(1 0 0 1 153.0034 93.6367)" fill="#646568" font-family="'Bembo-Semibold'" font-size="23.3062" letter-spacing="11">DACE</text>
<text transform="matrix(1 0 0 1 273.6094 93.6367)" fill="#646568" font-family="'Bembo-Semibold'" font-size="23.3062" letter-spacing="11">BROWN</text>
<g>
	<circle fill="#646568" cx="67.12" cy="68.119" r="58.619"/>
	<g>
		<path fill="#FFFFFF" d="M21.856,50.697c-0.075-0.226-0.15-0.451-0.15-0.676c0-0.789,0.714-1.502,1.54-1.502
			c0.751,0,1.315,0.563,1.54,1.239l7.248,20.879l6.872-20.954c0.226-0.676,0.676-1.164,1.465-1.164h0.188
			c0.75,0,1.239,0.488,1.464,1.164l6.872,20.954l7.286-20.954c0.225-0.676,0.713-1.164,1.427-1.164c0.789,0,1.502,0.713,1.502,1.464
			c0,0.225-0.112,0.488-0.188,0.714l-8.412,23.357c-0.263,0.75-0.789,1.276-1.54,1.276h-0.225c-0.751,0-1.278-0.526-1.54-1.276
			L40.37,53.851l-6.798,20.204c-0.263,0.75-0.788,1.276-1.539,1.276h-0.226c-0.75,0-1.276-0.488-1.54-1.276L21.856,50.697z"/>
		<path fill="#FFFFFF" d="M62.899,50.208c0-0.826,0.676-1.501,1.464-1.501h7.661c8.262,0,13.969,5.67,13.969,13.068v0.075
			c0,7.398-5.708,13.144-13.969,13.144h-7.661c-0.788,0-1.464-0.676-1.464-1.502V50.208z M72.025,72.252
			c6.647,0,10.89-4.506,10.89-10.327V61.85c0-5.82-4.243-10.402-10.89-10.402h-6.159v20.804H72.025z"/>
		<path fill="#FFFFFF" d="M90.386,50.208c0-0.826,0.677-1.501,1.465-1.501h9.727c3.005,0,5.37,0.863,6.873,2.329
			c1.089,1.126,1.689,2.516,1.689,4.206v0.075c0,3.417-2.103,5.182-4.167,6.084c3.117,0.939,5.632,2.741,5.632,6.346v0.075
			c0,4.507-3.793,7.173-9.538,7.173H91.851c-0.788,0-1.465-0.676-1.465-1.502V50.208z M101.089,60.423
			c3.567,0,6.046-1.614,6.046-4.694v-0.075c0-2.591-2.066-4.281-5.821-4.281h-7.999v9.05H101.089z M102.141,72.328
			c3.98,0,6.459-1.765,6.459-4.694v-0.075c0-2.854-2.403-4.507-6.985-4.507h-8.299v9.276H102.141z"/>
	</g>
	<g>
		<path fill="#FFFFFF" d="M30.169,84.197c0-0.323,0.249-0.572,0.573-0.572h1.979c1.517,0,2.46,0.859,2.46,2.163v0.019
			c0,1.452-1.166,2.21-2.59,2.21h-1.285v1.562c0,0.314-0.25,0.564-0.564,0.564c-0.324,0-0.573-0.25-0.573-0.564V84.197z
			 M32.628,86.991c0.86,0,1.396-0.482,1.396-1.157v-0.019c0-0.757-0.546-1.156-1.396-1.156h-1.322v2.332H32.628z"/>
		<path fill="#FFFFFF" d="M39.301,84.197c0-0.323,0.25-0.572,0.573-0.572h2.312c0.814,0,1.452,0.24,1.868,0.646
			c0.342,0.352,0.536,0.833,0.536,1.396v0.019c0,1.035-0.601,1.665-1.471,1.933l1.24,1.562c0.111,0.138,0.185,0.259,0.185,0.435
			c0,0.314-0.267,0.527-0.545,0.527c-0.26,0-0.425-0.12-0.555-0.296l-1.572-2.006h-1.434v1.737c0,0.314-0.25,0.564-0.564,0.564
			c-0.323,0-0.573-0.25-0.573-0.564V84.197z M42.104,86.833c0.813,0,1.331-0.426,1.331-1.082v-0.019c0-0.692-0.5-1.073-1.34-1.073
			h-1.656v2.174H42.104z"/>
		<path fill="#FFFFFF" d="M48.656,86.879V86.86c0-1.82,1.405-3.347,3.394-3.347s3.375,1.507,3.375,3.328v0.019
			c0,1.822-1.406,3.348-3.394,3.348S48.656,88.701,48.656,86.879z M54.231,86.879V86.86c0-1.257-0.916-2.302-2.201-2.302
			c-1.286,0-2.182,1.026-2.182,2.283v0.019c0,1.258,0.915,2.293,2.201,2.293C53.334,89.153,54.231,88.138,54.231,86.879z"/>
		<path fill="#FFFFFF" d="M59.756,84.197c0-0.323,0.25-0.572,0.574-0.572h1.979c1.517,0,2.46,0.859,2.46,2.163v0.019
			c0,1.452-1.165,2.21-2.589,2.21h-1.286v1.562c0,0.314-0.25,0.564-0.563,0.564c-0.324,0-0.574-0.25-0.574-0.564V84.197z
			 M62.216,86.991c0.86,0,1.396-0.482,1.396-1.157v-0.019c0-0.757-0.545-1.156-1.396-1.156h-1.323v2.332H62.216z"/>
		<path fill="#FFFFFF" d="M68.889,89.523v-5.326c0-0.323,0.25-0.572,0.573-0.572h3.764c0.277,0,0.508,0.231,0.508,0.508
			c0,0.287-0.231,0.509-0.508,0.509h-3.2v1.684h2.783c0.277,0,0.509,0.229,0.509,0.517c0,0.278-0.232,0.501-0.509,0.501h-2.783
			v1.738h3.246c0.277,0,0.508,0.229,0.508,0.508c0,0.286-0.231,0.509-0.508,0.509h-3.811C69.139,90.098,68.889,89.848,68.889,89.523
			z"/>
		<path fill="#FFFFFF" d="M78.04,84.197c0-0.323,0.25-0.572,0.573-0.572h2.312c0.813,0,1.452,0.24,1.868,0.646
			c0.342,0.352,0.537,0.833,0.537,1.396v0.019c0,1.035-0.602,1.665-1.471,1.933l1.239,1.562c0.111,0.138,0.185,0.259,0.185,0.435
			c0,0.314-0.269,0.527-0.546,0.527c-0.258,0-0.425-0.12-0.554-0.296l-1.572-2.006h-1.434v1.737c0,0.314-0.25,0.564-0.564,0.564
			c-0.324,0-0.573-0.25-0.573-0.564V84.197z M80.841,86.833c0.814,0,1.333-0.426,1.333-1.082v-0.019c0-0.692-0.5-1.073-1.341-1.073
			h-1.655v2.174H80.841z"/>
		<path fill="#FFFFFF" d="M89.245,84.678h-1.572c-0.296,0-0.528-0.239-0.528-0.526c0-0.286,0.232-0.526,0.528-0.526h4.3
			c0.286,0,0.518,0.24,0.518,0.526c0,0.287-0.231,0.526-0.518,0.526h-1.582v4.901c0,0.314-0.259,0.564-0.574,0.564
			s-0.572-0.25-0.572-0.564V84.678z"/>
		<path fill="#FFFFFF" d="M98.422,87.582l-2.229-3.061c-0.074-0.11-0.129-0.241-0.129-0.397c0-0.305,0.25-0.545,0.573-0.545
			c0.251,0,0.417,0.138,0.556,0.341l1.803,2.599l1.831-2.607c0.139-0.203,0.305-0.342,0.545-0.342c0.333,0,0.555,0.25,0.555,0.555
			c0,0.156-0.074,0.296-0.157,0.406l-2.21,3.024v2.024c0,0.314-0.25,0.564-0.573,0.564c-0.315,0-0.565-0.25-0.565-0.564V87.582z"/>
	</g>
</g>
</svg>
