<svg xmlns="http://www.w3.org/2000/svg" width="900" height="900" viewBox="-176.298 -345 900 900" enable-background="new -176.298 -345 900 900"><circle cx="273.702" cy="105" r="450" fill="#9EAF9F"/><g fill="#fff"><path d="M3.32 73.1c-.8-.34-1.3-.47-2.3-.47-3.04 0-7.7 1.55-13.46 1.55-15.76 0-24.29-9.2-24.29-21.3 0-11.5 7.7-22.94 24.83-22.94 7.37 0 12.58 2.24 14.53 2.24.55 0 .9-.14 1.22-.48h1.7l.33 11.16H3.85C1.35 35.9-4.13 32.1-11.65 32.1c-10.14 0-16.9 7.58-16.9 19 0 11.86 7.78 20.65 18.13 20.65 6.63 0 12.5-3.52 16.3-9.94H7.9L3.33 73.1zM45.36 65.4c0 3.9.6 5.74 6.02 5.87v1.83H31.83v-1.83c5.48-.34 6.02-1.82 6.02-6.36V39.7c0-5.07-.75-6.76-6.02-6.83v-1.82h19.55v1.82c-5.08.2-6.02 1.3-6.02 7.18V50.1h24.4V39.97c0-5.48-.66-6.9-6.2-7.1v-1.83h19.88v1.83c-5.34.27-6.16 1.42-6.16 6.63v25.48c0 4.8.74 5.95 6.16 6.3v1.82h-19.9V71.3c5.3-.2 6.23-1.63 6.23-6.43v-11.7h-24.4V65.4zM106 71.27c4.54-.06 5.42-.8 7.3-6.1l12.24-33.54-.54-1.7h7.58l13.2 35.25c1.95 5.28 2.64 6.1 6.9 6.1v1.82h-20.1v-1.83c5.35 0 6.83-.54 6.83-2.5 0-.68-.25-1.83-.93-3.6l-3.24-8.38h-15.5l-3.3 9c-.5 1.27-.7 2.15-.7 2.83 0 1.96 1.37 2.84 6.78 2.64v1.83H106v-1.83zm27.94-17.86l-6.5-17.1-6.42 17.1h12.92zM188.9 64.57c0 5.82.73 6.9 6.9 6.7v1.82h-20.7v-1.83c5.67.2 6.28-1.36 6.28-5.82V38.33c0-4.4-.74-5.48-6.3-5.48v-1.83c1.57 0 5.02-.26 9.7-.47 3.57-.13 6.9-.13 8.24-.13 13.66 0 18.33 5.95 18.33 12.1 0 5-2.85 8.66-8.52 11.03 1.08.74 4 3.58 5.07 4.67l4.4 4.4c6.02 6 10.62 8.7 16.23 9.33v1.9c-13.32.33-16.63-2.04-22.72-8.13l-3.58-3.58c-3.44-3.45-4.46-4.4-7.3-6.5-1.96.13-4.27.2-6.03 0v8.93zm0-10.82c.46.07 1.74.2 2.15.2 9-.4 12.1-3.85 12.1-10.75 0-6.83-3.64-10.9-11.02-10.9-1 0-2.63.15-3.24.28v21.17zM245.2 29.88H247c.27.47.48.8 1.1.95.6.13 1.55.2 3.3.2h28.6c3.46 0 4-.14 4.4-1.15h1.84l1.22 11.63h-1.97c-.93-7.02-2.28-7.43-6.34-7.43h-9.68v31.86c0 4.6.74 5.35 7.84 5.35v1.83h-23.2V71.3c6.77 0 7.86-.88 7.86-5.35V34.07h-9.68c-4 0-5.35.4-6.36 7.44h-1.96l1.22-11.62zM309.9 73.1v-1.83c5.47 0 6.83-.88 6.83-4.67V37.45c0-4.47-2.24-4.6-6.83-4.6v-1.82h34.56l.6 10.14h-1.82l-.34-1.42c-1.36-5.54-2.44-5.68-6.77-5.68h-11.9v15.76h10.48c3.93 0 4.68-.47 5.08-5.14h1.83v13.6h-1.82c-.46-4.8-1.35-5.42-5.07-5.42h-10.47v12.3c0 4.2.54 4.88 3.98 4.88h7.52c6.83 0 8.2-.94 10-7.57h1.84l-1.02 10.6H309.9zM383.64 64.57c0 5.82.74 6.9 6.9 6.7v1.82h-20.7v-1.83c5.68.2 6.3-1.36 6.3-5.82V38.33c0-4.4-.75-5.48-6.3-5.48v-1.83c1.56 0 5.02-.26 9.68-.47 3.6-.13 6.9-.13 8.25-.13 13.67 0 18.33 5.95 18.33 12.1 0 5-2.84 8.66-8.52 11.03 1.08.74 4 3.58 5.08 4.67l4.4 4.4c6 6 10.6 8.7 16.23 9.33v1.9c-13.33.33-16.65-2.04-22.74-8.13l-3.6-3.58c-3.43-3.45-4.45-4.4-7.3-6.5-1.95.13-4.26.2-6 0v8.93h-.02zm0-10.82c.48.07 1.76.2 2.17.2 9-.4 12.1-3.85 12.1-10.75 0-6.83-3.64-10.9-11-10.9-1.03 0-2.65.15-3.26.28v21.17zM443.14 73.1v-1.83c5.47 0 6.83-.88 6.83-4.67V37.45c0-4.47-2.24-4.6-6.83-4.6v-1.82h34.56l.6 10.14h-1.82l-.33-1.42c-1.36-5.54-2.44-5.68-6.77-5.68h-11.9v15.76h10.47c3.93 0 4.67-.47 5.08-5.14h1.83v13.6h-1.83c-.47-4.8-1.35-5.42-5.07-5.42h-10.5v12.3c0 4.2.56 4.88 4 4.88h7.5c6.84 0 8.2-.94 10.02-7.57h1.83l-1 10.6h-36.66zM509.72 38.8c0-4.94-1.28-6.02-6.42-5.95v-1.82c1.96 0 7.78-.27 10.63-.4 3.65-.14 7.1-.14 9.67-.14 10.2 0 17.58 1.8 21.7 5.94 4.2 4.2 5.83 9.33 5.83 14.4 0 9.95-6.97 22.26-26.8 22.26H503.3v-1.83c5.75 0 6.42-.95 6.42-5.48v-27zm7.5 27.53c0 4.27.62 4.88 5.02 4.88 8.12 0 12.3-1.75 15.42-4.87 4.13-4.12 5.28-9.8 5.28-14.54 0-4.88-1.1-10.35-5.2-14.48-3.4-3.4-7.65-4.94-15.57-4.94-1.14 0-3.24 0-4.93.13v33.83zM-26.5 161.52h2.03c1.68 6.22 5.88 9.74 11.7 9.74 4.94 0 8.4-2.9 8.4-6.96 0-9.47-21.3-13.2-21.3-24.96 0-5.83 5.13-9.88 12.37-9.88 2.23 0 3.85.27 5.2.54 1.36.27 2.43.54 3.58.54.88 0 1.36-.2 1.9-.8h1.68l1.5 10.47h-2.03c-2.04-5.33-6.23-8.58-11.03-8.58-4.33 0-6.63 2.57-6.63 5.55 0 9.06 21.38 11.76 21.38 24.8 0 6.98-5.9 11.72-14.55 11.72-5.07 0-7.17-1.22-9.06-1.22-.8 0-1.35.2-1.83.74h-1.6l-1.7-11.7zM27.16 130.54h19.2v1.83c-5 0-5.94 1.08-5.94 5.82v18.2c0 8.98 6.02 13.1 14.48 13.1 7.5 0 14.54-3.24 14.54-13.24V138.2c0-5.28-1.02-5.83-6.5-5.83v-1.83h16.38v1.83c-5.15 0-6.16 1.1-6.16 5.83V157c0 10.62-8.2 16.7-20.5 16.7-12.85 0-19.76-6.15-19.76-17.18v-19c0-4.13-1.08-5.15-5.74-5.15v-1.83zM115.6 164.1c0 5.8.74 6.9 6.9 6.68v1.82h-20.7v-1.8c5.68.18 6.3-1.37 6.3-5.84v-27.12c0-4.4-.75-5.48-6.3-5.48v-1.83c1.55 0 5-.27 9.67-.47 3.6-.13 6.9-.13 8.25-.13 13.67 0 18.34 5.95 18.34 12.1 0 5-2.84 8.67-8.53 11.03 1.1.74 4 3.6 5.08 4.67l4.4 4.4c6.03 6 10.63 8.7 16.24 9.33v1.9c-13.32.33-16.63-2.04-22.72-8.13l-3.6-3.58c-3.44-3.45-4.45-4.4-7.3-6.5-1.95.14-4.26.2-6.02 0v8.94zm0-10.83c.47.06 1.76.2 2.16.2 9-.4 12.1-3.86 12.1-10.76 0-6.82-3.65-10.88-11.02-10.88-1 0-2.63.13-3.24.27v21.17zM172.18 137.58c-1.9-4.66-2.64-5.2-6.97-5.2v-1.84h20.84v1.83c-5.54.07-6.5 1.5-6.5 2.9 0 .88.35 2.23 1.1 4.07l10.2 25.08 9.96-23.94c1.2-2.9 1.55-4.2 1.55-5.2 0-2.23-1.76-2.9-6.1-2.9v-1.84h16.45v1.83c-4.8 0-5.7 2.5-7.85 7.7l-14 33.63h-4.13l-14.54-36.12zM234.64 172.62v-1.83c5.48 0 6.83-.9 6.83-4.68v-29.15c0-4.46-2.23-4.6-6.83-4.6v-1.83h34.56l.62 10.15h-1.84l-.33-1.43c-1.35-5.54-2.44-5.68-6.77-5.68h-11.9v15.75h10.48c3.92 0 4.66-.48 5.08-5.14h1.82v13.6h-1.82c-.48-4.8-1.36-5.4-5.08-5.4h-10.48v12.3c0 4.2.54 4.87 4 4.87h7.5c6.82 0 8.18-.95 10-7.58h1.83l-1 10.62h-36.66zM302.5 137.85c-3.37-4.87-4.24-5.28-8.44-5.48v-1.83h20.36v1.83c-3.65 0-4.73.75-4.73 1.96 0 .88.53 2.04 2.3 4.54l8.85 12.64 7.7-12.23c1.56-2.5 2.24-3.85 2.24-4.8 0-1.5-1.3-2.1-4.35-2.1v-1.83h15.9v1.83c-4.93.55-6.15 1.42-10.48 8.4l-9.13 14.73v9.4c0 5 .8 5.9 6.42 5.9v1.82h-20.43v-1.82c5.15 0 6.5-.48 6.5-6.1v-8.58l-12.72-18.27zM386.5 129.46c14.6 0 24.68 8.72 24.68 21.37 0 12.18-9.73 22.86-24.95 22.86-14.14 0-24.43-8.87-24.43-20.98 0-13.53 10.35-23.26 24.7-23.26zm.8 42.07c9.4 0 15.7-7.64 15.7-19 0-12.25-7.1-20.9-17.05-20.9-9.73 0-15.97 7.43-15.97 19.27 0 13.6 8.73 20.63 17.32 20.63zM450.3 164.1c0 5.8.75 6.9 6.9 6.68v1.82h-20.7v-1.8c5.7.18 6.3-1.37 6.3-5.84v-27.12c0-4.4-.75-5.48-6.3-5.48v-1.83c1.56 0 5.02-.27 9.7-.47 3.57-.13 6.9-.13 8.23-.13 13.67 0 18.33 5.95 18.33 12.1 0 5-2.84 8.67-8.52 11.03 1.1.74 4 3.6 5.07 4.67l4.4 4.4c6.04 6 10.63 8.7 16.26 9.33v1.9c-13.33.33-16.64-2.04-22.74-8.13l-3.58-3.58c-3.45-3.45-4.47-4.4-7.3-6.5-1.97.14-4.27.2-6.03 0v8.94zm0-10.83c.48.06 1.76.2 2.17.2 9-.4 12.1-3.86 12.1-10.76 0-6.82-3.65-10.88-11.02-10.88-1.02 0-2.64.13-3.24.27v21.17zM512.44 161.52h2.03c1.7 6.22 5.88 9.74 11.7 9.74 4.94 0 8.4-2.9 8.4-6.96 0-9.47-21.3-13.2-21.3-24.96 0-5.83 5.13-9.88 12.37-9.88 2.23 0 3.85.27 5.2.54 1.36.27 2.43.54 3.6.54.87 0 1.34-.2 1.88-.8h1.7l1.47 10.47h-2.03c-2.03-5.33-6.23-8.58-11.03-8.58-4.33 0-6.62 2.57-6.62 5.55 0 9.06 21.37 11.76 21.37 24.8 0 6.98-5.9 11.72-14.56 11.72-5.07 0-7.17-1.22-9.06-1.22-.8 0-1.35.2-1.83.74h-1.62l-1.7-11.7z"/></g></svg>