<svg xmlns="http://www.w3.org/2000/svg" width="900" height="900" viewBox="-10.847 -345.025 900 900"><path fill="#9FA88B" d="M889.15 104.98c0 248.53-201.47 450-449.98 450-248.54 0-450.02-201.47-450.02-450 0-248.54 201.48-450 450.02-450 248.5 0 449.98 201.46 449.98 450z"/><path fill="#fff" d="M166.12 71.25c4.2 0 5.4-.74 5.8-6.63l1.64-24.9c.4-6-.34-6.9-4.27-6.9V31h12.5l14.6 31.32L210.23 31h12.5v1.83c-3.77 0-4.6.82-4.32 3.92l2.44 30.78c.27 3.45 1.55 3.72 5.54 3.72v1.83h-19.2v-1.83c5.54 0 6.48-1.36 5.94-8.52l-1.83-24.97h-.15l-15.62 35.32h-2.3l-15.9-34.43h-.12l-1.62 25.03c-.5 7.23 1.07 7.23 5.53 7.57v1.83h-15v-1.83zm82.56 0c4.53-.07 5.4-.8 7.3-6.08l12.25-33.56-.54-1.66h7.56l13.2 35.24c1.95 5.27 2.63 6.08 6.88 6.08v1.83h-20.08v-1.84c5.34 0 6.83-.54 6.83-2.5 0-.68-.28-1.82-.96-3.58l-3.24-8.4h-15.48l-3.3 9c-.5 1.3-.7 2.17-.7 2.84 0 1.97 1.36 2.86 6.77 2.66v1.82h-16.53v-1.82zM276.6 53.4l-6.48-17.12-6.42 17.1h12.9zm50.9-14.75v25.97c0 5.28.7 6.97 6.78 6.63v1.83H318.1v-1.83c4.88.14 5.68-1.42 5.68-5.8V35c-1.62-1.42-3.1-1.96-5.67-2.17V31h12.25l30.17 31.87V38.65c0-5.07-.8-5.88-6.68-5.82V31h16.36v1.83c-4.53 0-5.94.82-5.94 5.96v34.7h-3.66l-33.1-34.86zm64.4 32.6c4.52-.07 5.4-.8 7.3-6.08l12.23-33.56-.54-1.66h7.56l13.18 35.24c1.96 5.27 2.65 6.08 6.9 6.08v1.83h-20.08v-1.84c5.34 0 6.83-.54 6.83-2.5 0-.68-.28-1.82-.96-3.58l-3.24-8.4h-15.48l-3.32 9c-.47 1.3-.67 2.17-.67 2.84 0 1.97 1.35 2.86 6.76 2.66v1.82h-16.5v-1.83zm27.9-17.85l-6.5-17.12-6.42 17.1h12.92zm80.83 16.64c-7.65 3.04-12.52 4.12-18.13 4.12-13.73 0-22.86-8.45-22.86-21.17 0-9 5.2-23.08 23.8-23.08 6.64 0 10.7 1.83 12.93 1.83.9 0 1.36-.2 1.76-.75h1.96v12.47h-2.05c-1.55-7.3-6.36-11.38-13.4-11.38-10.14 0-16.84 7.97-16.84 20.14 0 13.53 8.47 19.4 16.66 19.4 3.04 0 5.8-.73 8.65-2.2v-8.06c0-4.68-1.34-5.3-8.03-5.3V54.3h20.23v1.83c-4.6 0-4.66 2.8-4.66 5.36v8.57zM528.73 31h18.88v1.83c-4.5 0-5.8 1.02-5.8 5.82v26.32c0 5.08.94 6.42 5.8 6.3v1.82h-18.86v-1.85c5.35.13 5.55-1.96 5.55-5.82V37.9c0-3.64-.9-5.13-5.56-5.07V31zm52.44 7.65v25.97c0 5.28.68 6.97 6.77 6.63v1.83h-16.17v-1.83c4.87.14 5.68-1.42 5.68-5.8V35c-1.63-1.42-3.1-1.96-5.68-2.17V31H584l30.18 31.87V38.65c0-5.07-.82-5.88-6.7-5.82V31h16.37v1.83c-4.53 0-5.95.82-5.95 5.96v34.7h-3.65l-33.08-34.86zm109.08 31.4c-7.65 3.03-12.52 4.1-18.13 4.1-13.74 0-22.86-8.44-22.86-21.16 0-9 5.2-23.08 23.8-23.08 6.65 0 10.7 1.83 12.94 1.83.88 0 1.35-.2 1.75-.75h1.97v12.47h-2.04c-1.55-7.3-6.36-11.38-13.4-11.38-10.14 0-16.84 7.97-16.84 20.14 0 13.53 8.46 19.4 16.65 19.4 3.02 0 5.8-.73 8.64-2.2v-8.06c0-4.68-1.36-5.3-8.05-5.3V54.3h20.2v1.83c-4.6 0-4.65 2.8-4.65 5.36v8.57zm-445.4 100.72c4.54-.08 5.4-.82 7.3-6.08l12.26-33.6-.52-1.67h7.57l13.2 35.25c1.95 5.25 2.63 6.07 6.9 6.07v1.83h-20.1v-1.83c5.35 0 6.84-.54 6.84-2.5 0-.68-.28-1.82-.96-3.58l-3.24-8.4h-15.5l-3.33 8.98c-.47 1.3-.67 2.17-.67 2.85 0 1.96 1.35 2.84 6.76 2.64v1.83h-16.5v-1.83zm27.95-17.87l-6.5-17.12-6.42 17.12h12.92zm80.8 16.64c-7.64 3.06-12.5 4.13-18.12 4.13-13.74 0-22.86-8.44-22.86-21.17 0-9 5.2-23.06 23.8-23.06 6.64 0 10.7 1.83 12.93 1.83.88 0 1.36-.2 1.76-.74h1.98v12.45h-2.03c-1.56-7.3-6.36-11.38-13.4-11.38-10.14 0-16.84 8-16.84 20.17 0 13.52 8.46 19.4 16.66 19.4 3.04 0 5.82-.74 8.66-2.22v-8.05c0-4.66-1.35-5.28-8.04-5.28v-1.82h20.22v1.82c-4.6 0-4.66 2.77-4.66 5.35v8.57zm26.62 3.06v-1.84c5.47 0 6.83-.87 6.83-4.66v-29.15c0-4.46-2.23-4.6-6.83-4.6v-1.83h34.56l.62 10.15h-1.83l-.34-1.4c-1.36-5.56-2.44-5.7-6.77-5.7h-11.9v15.76h10.48c3.92 0 4.66-.47 5.07-5.14h1.85v13.6h-1.83c-.46-4.83-1.34-5.44-5.06-5.44h-10.48v12.3c0 4.2.54 4.87 3.98 4.87h7.52c6.83 0 8.18-.93 10-7.57h1.83l-1 10.63h-36.67zm69.7-34.44v25.98c0 5.28.68 6.97 6.77 6.63v1.83h-16.2v-1.83c4.87.14 5.68-1.42 5.68-5.8V134.5c-1.62-1.43-3.1-1.96-5.68-2.17v-1.82h12.24l30.17 31.86v-24.2c0-5.1-.8-5.9-6.7-5.83v-1.82h16.38v1.83c-4.53 0-5.95.8-5.95 5.95V173H483l-33.08-34.84zm67.28-8.8h1.8c.27.5.48.82 1.08.96.62.13 1.56.2 3.32.2H552c3.46 0 4-.14 4.4-1.16h1.84l1.2 11.64h-1.95c-.94-7.02-2.3-7.43-6.35-7.43h-9.68v31.86c0 4.6.74 5.34 7.84 5.34v1.83h-23.2v-1.83c6.77 0 7.86-.88 7.86-5.34v-31.86h-9.67c-4 0-5.36.4-6.37 7.43h-1.96l1.2-11.64zm67.32 32.14h2.03c1.7 6.2 5.9 9.73 11.7 9.73 4.94 0 8.4-2.9 8.4-6.97 0-9.45-21.3-13.18-21.3-24.96 0-5.8 5.14-9.87 12.37-9.87 2.23 0 3.86.27 5.2.54 1.36.27 2.44.55 3.6.55.88 0 1.35-.2 1.9-.82h1.67l1.47 10.5h-2.03c-2.03-5.36-6.22-8.6-11.02-8.6-4.33 0-6.63 2.57-6.63 5.54 0 9.06 21.36 11.77 21.36 24.83 0 6.96-5.88 11.7-14.54 11.7-5.08 0-7.17-1.22-9.06-1.22-.82 0-1.36.2-1.83.74h-1.62l-1.7-11.7z"/></svg>