<svg xmlns="http://www.w3.org/2000/svg" width="842.38" height="270.533" xmlns:xlink="http://www.w3.org/1999/xlink"><defs><path id="a" d="M0 0h842.38v270.53H0z"/></defs><clipPath id="b"><use xlink:href="#a" overflow="visible"/></clipPath><g clip-path="url(#b)"><defs><path id="c" d="M0 0h626.2v225.22H0z"/></defs><clipPath id="d"><use xlink:href="#c" overflow="visible"/></clipPath><path fill="#FFF" d="M337.98 115.7c13.5-4.42 23.5-13.44 23.5-24.25 0-9.2-3.53-16.35-14.06-20.7-8.03-3.3-19.95-3.17-28.72-3.17h-50.43v90.07l32.72-.02V80.86h7.4c12.26 0 19.35 4.5 19.35 14.12 0 14.6-22 22.33-22 22.33 8.6 12.58 17.2 24 22.27 29.42 9.38 9.94 16.32 12.73 29.48 12.73 7.28 0 14.54-.43 23.97-1.83-13.06-7.93-36.62-33.7-43.5-41.93m-167.75 4.5s7.1.95 16.35 7.77c9.88 7.25 16.87 5.72 21.6 2 5.43-4.25 4.53-9.26 4.53-9.26s-6.8 3.17-12.87 3.24c-7.36.1-10.22-1.6-15.06-3.15-7.13-2.28-14.55-.6-14.55-.6m55-7.68c0 42.43-23.4 79.35-58 98.6.8-3.97 2.77-20.94-17.53-43.48-16.1-17.8-42.24-22.12-49.1-46.9-6.28-22.58 4.5-40.3 4.5-40.3s-10.84-2.4-10.84-15.24c0-8.25 6.14-12.77 6.22-12.72-.7 1.77-1.1 3.7-1.1 5.72 0 8.54 6.9 15.47 15.45 15.47 1.22 0 2.4-.15 3.53-.4-1.26 2.02-27.57 45.26 29.6 72.32 8.4-2.54 18.54.43 24.8 10.9 0 0 12.08-8.96 9.7-25.92-3.04 3.14-7.1 6.07-11.82 6.07-9.26 0-17-7.22-17-16.48 0-9.24 7.5-16.76 16.75-16.76 7.76 0 13.98 5.46 15.88 12.63 10.2-6.93 10.87-15.95 10.87-15.95s6.35-2.2 8.76-7.27c.63-1.28-.67-2.17-.67-2.17s-20.14-9.53-37.2-17.5c-1.53-.7 1.2-2.93 2.45-5.26 2.62-4.94-15.05-12.73-24.47-14.96l16.57-41.38c37.15 18.42 62.66 56.73 62.66 101M112.6 225.23c-2.42 0-4.83-.07-7.22-.23.8-2.26 2.96-10.16.8-23.2-4.6-27.62-20.7-35.05-27.85-49.8 0 0-2.9 7.04-3.98 16.16 0 0-9.28-6.45-10.74-24.34-.98-12.52 4.83-43.24 30.46-56.3 0 0-25.56 27.4-10.84 52.62 0 0 2.08-4.55 5.3-8.22 0 0 1.54 9.68 17.7 24.1 12.55 11.2 35.27 30.1 32 66.28-8.23 1.92-16.78 2.92-25.62 2.92M118.9 0c11.34.64 22.28 2.93 32.5 6.7-1.6 7.5-8.24 13.4-16.18 13.4-9.16 0-16.5-7.25-16.5-16.4 0-.87.05-2.57.17-3.7M73.04 7C83.3 3.14 94.28.74 105.72.04c.14 1.18.2 2.7.2 3.65.02 9.13-7.4 16.55-16.56 16.55-7.96 0-14.74-5.73-16.3-13.25M0 112.53C0 68.58 25.17 30.5 61.84 11.93l16.54 41.2c-7.47 2.34-30.5 8.58-47.54 32 0 0 9.52-2.57 16.32 1.52 0 0-19 14.23-27 34.69 0 0-3.8 61.4 50.83 95.92-41.6-16.55-71-57.2-71-104.73" clip-path="url(#d)"/><path fill="#FFF" d="M150.9 75.84c4.14 0 7.66-2.8 8.9-6.64 0 0-3.9-2-8.52-3.93-4.36-1.84-9.03-2.9-9.03-2.9-2.84 8.2 3.48 13.47 8.66 13.47m377.6 62.94c-8.42 3.22-17.65 5.1-27.68 5.1-15.43 0-38.23-7.68-38.23-31.85 0-18.97 13.83-32.1 36.13-32.1 8.8 0 18.97 1.48 29.78 7.1v-15.9c-7.5-3.3-19.62-5.56-32.54-5.56-40.5 0-67.5 18.28-67.5 47.85 0 28.35 26.38 46.2 68.4 46.2 10.1 0 21.82-1.78 31.65-5.25m11.8-15.94c11.1 5.6 21.1 7.22 33.98 7.22 8.03 0 18.9-2.04 18.9-9.72 0-9.13-14.6-10.75-30.15-15.87-12.57-4.16-23.5-12.05-23.5-26.44 0-17.88 16.02-28.04 44.27-28.04 10.3 0 21.65 1.5 31 4.4V85.9c-7.7-3.78-17.14-6.63-26.17-6.63-6.97 0-15.53 2.32-15.53 8.76 0 8.18 15.3 10.23 28.75 14.67 16.64 5.5 24.35 12.7 24.35 27.34 0 11.28-8.1 29.6-48.9 29.6-11.78 0-25.9-1.95-36.97-5.24m-154.6-86.82h32.7v90.04h-32.7z" clip-path="url(#d)"/></g></svg>